<svg width="48" height="49" viewBox="0 0 48 49" fill="none" xmlns="http://www.w3.org/2000/svg">
<path d="M17.7994 27.1725C17.7994 26.5737 17.3137 26.0886 16.7144 26.0886H12.9284C12.3298 26.0886 11.844 26.5737 11.844 27.1725V30.9581C11.844 31.5577 12.3298 32.0429 12.9284 32.0429H16.7144C17.3137 32.0429 17.7994 31.5577 17.7994 30.9581V27.1725Z" fill="#225EC9"/>
<path d="M27.261 27.1725C27.261 26.5737 26.7752 26.0886 26.1771 26.0886H22.3905C21.7919 26.0886 21.3062 26.5737 21.3062 27.1725V30.9581C21.3062 31.5577 21.7919 32.0429 22.3905 32.0429H26.1771C26.7752 32.0429 27.261 31.5577 27.261 30.9581V27.1725Z" fill="#225EC9"/>
<path d="M36.7237 27.1725C36.7237 26.5737 36.2379 26.0886 35.6393 26.0886H31.8533C31.254 26.0886 30.7683 26.5737 30.7683 27.1725V30.9581C30.7683 31.5577 31.254 32.0429 31.8533 32.0429H35.6393C36.2379 32.0429 36.7237 31.5577 36.7237 30.9581V27.1725Z" fill="#225EC9"/>
<path d="M17.7994 36.6355C17.7994 36.0357 17.3137 35.551 16.7144 35.551H12.9284C12.3298 35.551 11.844 36.0357 11.844 36.6355V40.4204C11.844 41.0196 12.3298 41.5048 12.9284 41.5048H16.7144C17.3137 41.5048 17.7994 41.0195 17.7994 40.4204V36.6355Z" fill="#225EC9"/>
<path d="M27.261 36.6355C27.261 36.0357 26.7752 35.551 26.1771 35.551H22.3905C21.7919 35.551 21.3062 36.0357 21.3062 36.6355V40.4204C21.3062 41.0196 21.7919 41.5048 22.3905 41.5048H26.1771C26.7752 41.5048 27.261 41.0195 27.261 40.4204V36.6355Z" fill="#225EC9"/>
<path d="M36.7237 36.6355C36.7237 36.0357 36.2379 35.551 35.6398 35.551H31.8533C31.254 35.551 30.7683 36.0357 30.7683 36.6355V40.4204C30.7683 41.0196 31.254 41.5048 31.8533 41.5048H35.6398C36.2379 41.5048 36.7237 41.0195 36.7237 40.4204V36.6355Z" fill="#225EC9"/>
<path d="M43.4935 6.12403V11.9062C43.4935 14.5197 41.3733 16.6258 38.7602 16.6258H35.7743C33.161 16.6258 31.0128 14.5197 31.0128 11.9062V6.10327H17.5546V11.9062C17.5546 14.5197 15.4064 16.6258 12.7935 16.6258H9.80707C7.19407 16.6258 5.074 14.5197 5.074 11.9062V6.12403C2.79021 6.19287 0.913574 8.08263 0.913574 10.4054V44.2917C0.913574 46.6582 2.83163 48.6017 5.19807 48.6017H43.3693C45.7322 48.6017 47.6538 46.6541 47.6538 44.2917V10.4054C47.6538 8.08263 45.7772 6.19287 43.4935 6.12403ZM42.1066 42.1815C42.1066 43.2042 41.2774 44.0339 40.2544 44.0339H8.23144C7.20837 44.0339 6.37918 43.2042 6.37918 42.1815V24.678C6.37918 23.655 7.20827 22.8253 8.23144 22.8253H40.2543C41.2773 22.8253 42.1065 23.655 42.1065 24.678L42.1066 42.1815Z" fill="#225EC9"/>
<path d="M9.79666 13.5257H12.7501C13.6466 13.5257 14.3734 12.8 14.3734 11.9035V2.42434C14.3734 1.52779 13.6466 0.801514 12.7501 0.801514H9.79666C8.9001 0.801514 8.17334 1.52779 8.17334 2.42434V11.9035C8.17334 12.8 8.9001 13.5257 9.79666 13.5257Z" fill="#225EC9"/>
<path d="M35.7363 13.5257H38.6897C39.5856 13.5257 40.3125 12.8 40.3125 11.9035V2.42434C40.3126 1.52779 39.5857 0.801514 38.6897 0.801514H35.7363C34.8399 0.801514 34.113 1.52779 34.113 2.42434V11.9035C34.113 12.8 34.8399 13.5257 35.7363 13.5257Z" fill="#225EC9"/>
</svg>
