<svg width="63" height="48" viewBox="0 0 63 48" fill="none" xmlns="http://www.w3.org/2000/svg">
<g id="Group">
<g id="Group_2">
<g id="Group_3">
<path id="Vector" d="M9.5717 0.000488281C9.57002 0.000488281 9.56812 0.000488281 9.56644 0.000488281C8.97468 0.000488281 8.4181 0.231166 7.99783 0.650389C7.57292 1.07425 7.33887 1.63862 7.33887 2.23943V35.812C7.33887 37.0431 8.34437 38.0472 9.58055 38.0503C14.792 38.0628 23.5232 39.1489 29.5465 45.4523V10.3176C29.5465 9.90026 29.4399 9.50821 29.2387 9.18379C24.2951 1.22234 14.7949 0.0127068 9.5717 0.000488281Z" fill="#225EC9"/>
<path id="Vector_2" d="M55.2299 35.8117V2.23894C55.2299 1.63813 54.9958 1.07376 54.5709 0.649901C54.1507 0.230678 53.5937 0 53.0025 0C53.0006 0 52.9987 0 52.9971 0C47.774 0.0124292 38.2739 1.22207 33.33 9.18351C33.1288 9.50793 33.0225 9.89998 33.0225 10.3173V45.4518C39.0458 39.1485 47.777 38.0623 52.9884 38.0498C54.2244 38.0467 55.2299 37.0427 55.2299 35.8117Z" fill="#225EC9"/>
<path id="Vector_3" d="M60.329 7.74219H58.7056V35.8114C58.7056 38.9547 56.1445 41.5178 52.9964 41.5256C48.576 41.5362 41.2874 42.4005 36.1255 47.2861C45.053 45.1002 54.4643 46.5211 59.8278 47.7434C60.4975 47.8959 61.1895 47.7384 61.7261 47.3107C62.2608 46.8841 62.5675 46.2464 62.5675 45.562V9.98071C62.5677 8.74643 61.5633 7.74219 60.329 7.74219Z" fill="#225EC9"/>
<path id="Vector_4" d="M3.86191 35.8114V7.74219H2.23852C1.00445 7.74219 0 8.74643 0 9.98071V45.5613C0 46.246 0.306728 46.8835 0.841395 47.3101C1.37754 47.7375 2.06894 47.8957 2.73969 47.7428C8.10322 46.5203 17.5147 45.0996 26.4418 47.2854C21.2801 42.4001 13.9915 41.536 9.57113 41.5254C6.42317 41.5178 3.86191 38.9547 3.86191 35.8114Z" fill="#225EC9"/>
</g>
</g>
</g>
</svg>
