<svg width="49" height="49" viewBox="0 0 49 49" fill="none" xmlns="http://www.w3.org/2000/svg">
<g clip-path="url(#clip0_81_608)">
<path d="M0.383789 34.6826C0.383789 35.456 1.01068 36.0829 1.78418 36.0829H10.1366C9.98449 35.6548 9.90098 35.1942 9.90098 34.7143C9.90098 31.5251 11.1486 28.1933 13.3232 25.5734C14.1736 24.549 15.1174 23.6837 16.1294 22.9893C16.1579 22.8117 16.1768 22.6312 16.186 22.4481C16.19 22.3657 16.1922 22.2825 16.1922 22.1994C16.1922 19.3898 13.8578 17.104 10.9885 17.104C8.11876 17.104 5.78441 19.3898 5.78441 22.1994C5.78441 22.2862 5.7866 22.3726 5.79098 22.4587C5.83984 23.4058 6.1542 24.2854 6.66257 25.0279C2.97597 26.5162 0.383789 30.8523 0.383789 34.6826Z" fill="#225EC9"/>
<path d="M35.2444 25.5741C37.419 28.194 38.6666 31.5257 38.6666 34.7153C38.6666 35.2069 38.5794 35.6784 38.4204 36.1157H46.7834C47.5569 36.1157 48.1838 35.4884 48.1838 34.7153C48.1838 30.8788 45.5832 26.535 41.8875 25.0537C42.394 24.3101 42.7069 23.4301 42.7536 22.4823C42.7576 22.3999 42.7602 22.3167 42.7602 22.2336C42.7602 19.4237 40.4255 17.1382 37.5561 17.1382C34.6864 17.1382 32.3521 19.424 32.3521 22.2336C32.3521 22.3193 32.3542 22.405 32.3586 22.4899C32.3666 22.6519 32.3834 22.8116 32.4071 22.9691C33.4308 23.6668 34.3852 24.5391 35.2444 25.5741Z" fill="#225EC9"/>
<path d="M19.2483 24.3497C17.8385 24.9529 16.5278 25.9521 15.406 27.3033C13.6282 29.4451 12.6082 32.1466 12.6082 34.7151C12.6082 35.4883 13.2354 36.1155 14.0085 36.1155H34.5585C35.3317 36.1155 35.9589 35.4883 35.9589 34.7151C35.9589 32.1466 34.9389 29.4451 33.1611 27.3033C32.0346 25.9463 30.7173 24.9445 29.3005 24.342C29.9343 23.6794 30.434 22.8924 30.7542 22.0226C31.016 21.3119 31.1593 20.5464 31.1593 19.7488C31.1593 16.037 28.0693 13.0171 24.2708 13.0171C20.4722 13.0171 17.3819 16.037 17.3819 19.7488C17.3819 20.5504 17.5263 21.3195 17.7907 22.0332C18.1127 22.9022 18.6134 23.6881 19.2483 24.3497Z" fill="#225EC9"/>
</g>
<defs>
<clipPath id="clip0_81_608">
<rect width="47.8" height="47.8" fill="white" transform="translate(0.383789 0.600098)"/>
</clipPath>
</defs>
</svg>
