<svg width="49" height="48" viewBox="0 0 49 48" fill="none" xmlns="http://www.w3.org/2000/svg">
<g clip-path="url(#clip0_81_615)">
<path d="M22.843 20.5186V40.4864H15.3036C12.9886 40.4864 11.1053 42.3698 11.1053 44.6848V45.2013H8.20898V48.0002H40.3032V45.2013H37.2733V44.6848C37.2733 42.3698 35.3899 40.4864 33.0749 40.4864H25.642V20.5405C25.2131 20.5889 24.7775 20.6147 24.3358 20.6147C23.83 20.6148 23.3318 20.5819 22.843 20.5186Z" fill="#225EC9"/>
<path d="M10.2472 12.389V10.0566H7.4483V12.389H5.02339V15.188H6.72411L0.411621 28.4365V28.7529C0.411621 33.3682 4.16644 37.123 8.78185 37.123C13.3972 37.123 17.152 33.3682 17.152 28.7529V28.4494L11.1157 15.188H14.541C13.9984 14.3248 13.5668 13.3852 13.2661 12.3891L10.2472 12.389ZM3.54504 28.3595L8.91208 17.1028L14.1173 28.3595H3.54504Z" fill="#225EC9"/>
<path d="M42.1197 15.1881H43.4616V12.3892H41.3199V10.0259H38.521V12.3892H35.4054C35.1048 13.3852 34.6731 14.3248 34.1305 15.1881H37.728L31.4155 28.4366V28.753C31.4155 33.3683 35.1703 37.1232 39.7858 37.1232C44.4011 37.1232 48.1559 33.3683 48.1559 28.753V28.4495L42.1197 15.1881ZM34.5959 28.4925L39.9161 17.103L45.0696 28.4802L34.5959 28.4925Z" fill="#225EC9"/>
<path d="M33.1893 9.05375C33.1893 4.17189 29.2176 0.200195 24.3357 0.200195C19.4539 0.200195 15.4822 4.17189 15.4822 9.05375C15.4822 13.9356 19.4539 17.9073 24.3357 17.9073C29.2176 17.9073 33.1893 13.9356 33.1893 9.05375ZM25.1856 12.779V13.9308H23.7225V12.8309C22.6848 12.7686 21.6783 12.4884 21.0557 12.1045L21.8443 10.3197C22.5292 10.7243 23.4423 10.9838 24.2413 10.9838C24.9366 10.9838 25.1856 10.8385 25.1856 10.5894C25.1856 9.67627 21.1698 10.4131 21.1698 7.7047C21.1698 6.5322 22.0207 5.54642 23.7225 5.3077V4.17674H25.1856V5.28707C25.9535 5.3597 26.7005 5.55688 27.292 5.88886L26.5553 7.66325C25.8393 7.30008 25.1649 7.12363 24.5319 7.12363C23.8158 7.12363 23.5876 7.33117 23.5876 7.58025C23.5876 8.45186 27.6034 7.72552 27.6034 10.4027C27.6034 11.5234 26.794 12.4988 25.1856 12.779Z" fill="#225EC9"/>
</g>
<defs>
<clipPath id="clip0_81_615">
<rect width="47.8" height="47.8" fill="white" transform="translate(0.383789 0.200195)"/>
</clipPath>
</defs>
</svg>
