<svg width="49" height="49" viewBox="0 0 49 49" fill="none" xmlns="http://www.w3.org/2000/svg">
<g clip-path="url(#clip0_81_841)">
<path d="M44.6269 45.6008V30.6607H28.5357V45.6008H25.735V27.8599H35.181V11.8867H32.0323V5.62868H28.4695V0.601562H25.6687V5.62868H22.1057V11.8867H18.9571V45.6008H16.1563V18.1447H3.94069V45.6008H0.383789V48.4016H48.1838V45.6008H44.6269ZM28.7976 15.3439H31.5984V18.1447H28.7976V15.3439ZM28.7976 21.6019H31.5984V24.4027H28.7976V21.6019ZM11.387 44.5024H8.58625V41.7016H11.387V44.5024ZM11.387 37.8025H8.58625V35.0017H11.387V37.8025ZM11.387 31.1026H8.58625V28.3018H11.387V31.1026ZM11.387 24.4027H8.58625V21.6019H11.387V24.4027ZM25.3404 24.4027H22.5396V21.6019H25.3404V24.4027ZM25.3404 18.1447H22.5396V15.3439H25.3404V18.1447ZM25.6686 9.08588H28.4694V11.8867H25.6686V9.08588ZM34.8331 45.6008H32.0323V34.3603H34.8331V45.6008ZM41.1304 45.6008H38.3296V34.3603H41.1304V45.6008Z" fill="#225EC9"/>
</g>
<defs>
<clipPath id="clip0_81_841">
<rect width="47.8" height="47.8" fill="white" transform="translate(0.383789 0.601562)"/>
</clipPath>
</defs>
</svg>
