<svg width="54" height="48" viewBox="0 0 54 48" fill="none" xmlns="http://www.w3.org/2000/svg">
<path d="M2.12922 46.9661H5.26021C6.12478 46.9661 6.8257 46.2652 6.8257 45.4006V28.1802H2.12922C1.26465 28.1802 0.563721 28.8809 0.563721 29.7457V45.4006C0.563721 46.2651 1.26465 46.9661 2.12922 46.9661Z" fill="#225EC9"/>
<path d="M22.9924 32.9399C23.0237 32.9399 33.836 36.4466 33.836 36.4466C35.6568 36.9924 37.2745 35.9622 37.7811 34.4428C38.3133 32.7833 37.4054 31.0299 35.7773 30.4978L21.0512 25.676C17.8302 24.5035 13.4897 24.7457 9.95703 26.7211V44.2466L22.2409 47.0294C24.4912 47.5243 26.6992 47.8016 28.8265 47.8016H29.1709C34.4309 47.7389 39.4717 46.2466 43.9179 43.5538L52.6533 37.4484C54.1248 36.4151 54.4067 34.474 53.4361 33.0964C52.4341 31.656 50.4929 31.3117 49.084 32.3136L40.6929 38.1999C38.0003 39.7654 34.7128 40.1098 31.7383 39.1078L22.0844 35.9141C21.2703 35.6637 20.8319 34.7556 21.1138 33.9417C21.3643 33.1591 22.1783 32.7208 22.9924 32.9399Z" fill="#225EC9"/>
<path d="M41.4761 0.00146484C34.5592 0.00146484 28.9521 5.60855 28.9521 12.5254C28.9521 19.4421 34.5592 25.0494 41.4761 25.0494C48.393 25.0494 54.0001 19.4421 54.0001 12.5254C54.0001 5.60855 48.393 0.00146484 41.4761 0.00146484ZM37.5624 6.26355C38.4269 6.26355 39.1279 6.96427 39.1279 7.82905C39.1279 8.69362 38.4269 9.39454 37.5624 9.39454C36.6978 9.39454 35.9969 8.69362 35.9969 7.82905C35.9969 6.96427 36.6978 6.26355 37.5624 6.26355ZM38.7655 18.2249C38.2132 18.8859 37.229 18.9795 36.5594 18.4252C35.896 17.8717 35.8057 16.8841 36.3591 16.2191L44.1866 6.82609C44.7401 6.16409 45.7277 6.07392 46.3927 6.62581C47.0562 7.17926 47.1464 8.16688 46.593 8.8319L38.7655 18.2249ZM45.3898 18.7874C44.5253 18.7874 43.8244 18.0865 43.8244 17.2219C43.8244 16.3571 44.5253 15.6564 45.3898 15.6564C46.2544 15.6564 46.9553 16.3571 46.9553 17.2219C46.9553 18.0865 46.2544 18.7874 45.3898 18.7874Z" fill="#225EC9"/>
</svg>
