<svg width="49" height="49" viewBox="0 0 49 49" fill="none" xmlns="http://www.w3.org/2000/svg">
<g clip-path="url(#clip0_81_626)">
<path d="M38.1311 0.800293H10.4365C8.12 0.800293 6.23535 2.68494 6.23535 5.00146V44.3991C6.23535 46.7156 8.12 48.6003 10.4365 48.6003H38.1311C40.4476 48.6003 42.3323 46.7156 42.3323 44.3991V5.00146C42.3323 2.68494 40.4475 0.800293 38.1311 0.800293ZM11.939 9.04859C11.939 8.43242 12.4431 7.92828 13.0593 7.92828H35.8831C36.4993 7.92828 37.0034 8.43242 37.0034 9.04859V13.3197C37.0035 13.9359 36.4994 14.44 35.8832 14.44H13.0593C12.4431 14.44 11.939 13.9359 11.939 13.3197V9.04859ZM25.5934 24.3637H22.9744C22.2009 24.3637 21.574 23.7367 21.574 22.9633V21.0604C21.574 20.287 22.201 19.66 22.9744 19.66H25.5934C26.3668 19.66 26.9938 20.287 26.9938 21.0604V22.9633C26.9938 23.7367 26.3668 24.3637 25.5934 24.3637ZM26.9938 30.081V31.9839C26.9938 32.7573 26.3668 33.3843 25.5934 33.3843H22.9744C22.201 33.3843 21.574 32.7573 21.574 31.9839V30.081C21.574 29.3075 22.2009 28.6806 22.9744 28.6806H25.5934C26.3668 28.6806 26.9938 29.3076 26.9938 30.081ZM16.9838 41.0045C16.9838 41.7779 16.3568 42.4049 15.5834 42.4049H12.9644C12.191 42.4049 11.564 41.7779 11.564 41.0045V39.1015C11.564 38.3281 12.191 37.7011 12.9644 37.7011H15.5834C16.3568 37.7011 16.9838 38.3281 16.9838 39.1015V41.0045ZM16.9838 31.9839C16.9838 32.7573 16.3568 33.3843 15.5834 33.3843H12.9644C12.191 33.3843 11.564 32.7573 11.564 31.9839V30.081C11.564 29.3076 12.191 28.6806 12.9644 28.6806H15.5834C16.3568 28.6806 16.9838 29.3076 16.9838 30.081V31.9839ZM16.9838 22.9633C16.9838 23.7367 16.3568 24.3637 15.5834 24.3637H12.9644C12.191 24.3637 11.564 23.7367 11.564 22.9633V21.0604C11.564 20.287 12.191 19.66 12.9644 19.66H15.5834C16.3568 19.66 16.9838 20.287 16.9838 21.0604V22.9633ZM37.0035 41.0045C37.0035 41.7779 36.3765 42.4049 35.6031 42.4049H22.9743C22.2009 42.4049 21.5739 41.7779 21.5739 41.0045V39.1015C21.5739 38.3281 22.2008 37.7011 22.9743 37.7011H35.6031C36.3765 37.7011 37.0035 38.3281 37.0035 39.1015V41.0045ZM37.0035 31.9839C37.0035 32.7573 36.3765 33.3843 35.6031 33.3843H32.9841C32.2107 33.3843 31.5837 32.7573 31.5837 31.9839V30.081C31.5837 29.3076 32.2107 28.6806 32.9841 28.6806H35.6031C36.3765 28.6806 37.0035 29.3076 37.0035 30.081V31.9839ZM37.0035 22.9633C37.0035 23.7367 36.3765 24.3637 35.6031 24.3637H32.9841C32.2107 24.3637 31.5837 23.7367 31.5837 22.9633V21.0604C31.5837 20.287 32.2107 19.66 32.9841 19.66H35.6031C36.3765 19.66 37.0035 20.287 37.0035 21.0604V22.9633Z" fill="#225EC9"/>
</g>
<defs>
<clipPath id="clip0_81_626">
<rect width="47.8" height="47.8" fill="white" transform="translate(0.383789 0.800293)"/>
</clipPath>
</defs>
</svg>
