<svg width="49" height="49" viewBox="0 0 49 49" fill="none" xmlns="http://www.w3.org/2000/svg">
<g clip-path="url(#clip0_81_630)">
<path d="M41.6331 9.34929H33.2654C33.0594 9.34929 32.8923 9.18209 32.8923 8.97585V0.600586L41.6331 9.34929Z" fill="#225EC9"/>
<path d="M31.493 12.1501C30.7209 12.1501 30.0935 11.5227 30.0935 10.7497V0.600586H8.33334C7.56126 0.600586 6.93481 1.22796 6.93481 2.00098V21.3618L21.5035 21.3432C23.13 19.5827 25.2524 18.4437 27.6867 18.4761C29.8331 18.4761 31.9225 19.3397 33.4209 20.8456C33.8718 21.2937 34.4712 21.5411 35.1097 21.5411H35.1153L41.6328 21.529V12.1501H31.493ZM20.3001 14.6045H13.9302C13.1582 14.6045 12.5308 13.9771 12.5308 13.2041C12.5308 12.4311 13.1582 11.8037 13.9302 11.8037H20.3001C21.0722 11.8037 21.6987 12.4311 21.6987 13.2041C21.6987 13.9771 21.0722 14.6045 20.3001 14.6045ZM20.3001 9.00293H13.9302C13.1582 9.00293 12.5308 8.37555 12.5308 7.60254C12.5308 6.82952 13.1582 6.20215 13.9302 6.20215H20.3001C21.0722 6.20215 21.6987 6.82952 21.6987 7.60254C21.6987 8.37555 21.0722 9.00293 20.3001 9.00293Z" fill="#225EC9"/>
<path d="M33.261 35.7804C33.2601 35.7804 28.2827 30.8517 28.2827 30.8517C28.1014 30.6722 27.8095 30.6728 27.6293 30.8534C26.9925 31.492 25.6434 32.8449 25.6406 32.847C23.7361 34.5629 21.6058 35.4695 19.4782 35.4695C18.2953 35.4952 17.0033 35.1581 15.9214 34.5685C14.2476 33.6798 13.3813 31.7678 13.8116 29.9155C14.0882 28.643 14.8605 27.9499 15.8038 27.0176C16.6001 26.2157 17.6298 25.1794 18.6661 24.144L1.75907 24.1711C0.98605 24.1721 0.385376 24.8004 0.38631 25.5743L0.383789 36.8764C0.384723 37.6494 1.01303 38.2749 1.78689 38.274L8.19713 38.2618L17.6586 47.6921C18.5977 48.6285 20.112 48.6359 21.0614 47.7201C22.0285 46.7856 22.0164 45.2153 21.0894 44.248L23.02 46.1712C23.9432 47.102 25.5051 47.1273 26.4564 46.1647C27.4039 45.2134 27.4011 43.6748 26.4498 42.7282C27.402 43.6851 28.9704 43.6552 29.8871 42.7207C30.8178 41.7983 30.8412 40.2336 29.8806 39.2832C30.8024 40.2101 32.2978 40.2139 33.2264 39.3635C33.5025 39.1238 33.706 38.8283 33.837 38.499C34.2159 37.5778 33.9928 36.4662 33.261 35.7804Z" fill="#225EC9"/>
<path d="M46.7096 24.3194L35.1206 24.3418C33.7408 24.3446 32.417 23.8003 31.4405 22.8266C29.4586 20.8287 26.1567 20.7503 24.1738 22.666C22.3497 24.3773 18.1795 28.6037 16.9118 29.8752C16.7194 30.0694 16.5962 30.3019 16.5402 30.5465C16.402 31.1347 16.6513 31.7854 17.2348 32.0953C19.4688 33.281 21.8128 32.5257 23.7658 30.7659L25.8318 28.6849C26.8979 27.4781 28.7755 27.3916 29.9217 28.5337L35.1906 33.7515C37.3973 35.7306 37.333 39.6344 35.0272 41.5097C34.665 41.8234 34.2663 42.0838 33.8407 42.2864L36.7133 42.2818C40.4288 42.2743 41.2224 38.7042 41.2224 38.7042L46.7377 38.6921C47.5108 38.6912 48.1847 38.0629 48.1838 37.2889V25.717C48.1818 24.944 47.4826 24.3185 46.7096 24.3194Z" fill="#225EC9"/>
</g>
<defs>
<clipPath id="clip0_81_630">
<rect width="47.8" height="47.8" fill="white" transform="translate(0.383789 0.600586)"/>
</clipPath>
</defs>
</svg>
