<svg width="49" height="49" viewBox="0 0 49 49" fill="none" xmlns="http://www.w3.org/2000/svg">
<g clip-path="url(#clip0_81_639)">
<path d="M38.143 11.4711H27.8931V1.22021L38.143 11.4711Z" fill="#225EC9"/>
<path d="M26.4927 14.2717C25.7197 14.2717 25.0923 13.6444 25.0923 12.8713V0.400391H1.78418C1.01116 0.400391 0.383789 1.02777 0.383789 1.80078V46.8C0.383789 47.573 1.01116 48.2004 1.78418 48.2004H29.4624C26.3144 45.7562 24.2847 41.936 24.2847 37.6517C24.2847 30.2903 30.2737 24.3013 37.6351 24.3013C38.0832 24.3013 38.5258 24.3237 38.9627 24.3667V14.2717H26.4927ZM15.2849 32.3293H7.38574C6.61273 32.3293 5.98535 31.7019 5.98535 30.9289C5.98535 30.1559 6.61273 29.5285 7.38574 29.5285H15.2849C16.0588 29.5285 16.6853 30.1559 16.6853 30.9289C16.6853 31.7019 16.0588 32.3293 15.2849 32.3293ZM21.8658 25.7941H7.38574C6.61273 25.7941 5.98535 25.1668 5.98535 24.3937C5.98535 23.6207 6.61273 22.9934 7.38574 22.9934H21.8658C22.6388 22.9934 23.2662 23.6207 23.2662 24.3937C23.2662 25.1668 22.6388 25.7941 21.8658 25.7941ZM21.8658 19.259H7.38574C6.61273 19.259 5.98535 18.6316 5.98535 17.8586C5.98535 17.0856 6.61273 16.4582 7.38574 16.4582H21.8658C22.6388 16.4582 23.2662 17.0856 23.2662 17.8586C23.2662 18.6316 22.6388 19.259 21.8658 19.259Z" fill="#225EC9"/>
<path d="M37.6341 27.1021C31.8169 27.1021 27.0854 31.8335 27.0854 37.6507C27.0854 43.468 31.8169 48.2003 37.6341 48.2003C43.4513 48.2003 48.1837 43.468 48.1837 37.6507C48.1837 31.8335 43.4513 27.1021 37.6341 27.1021ZM43.0676 35.7873L37.3596 41.4953C37.0861 41.7688 36.7276 41.906 36.3691 41.906C36.0106 41.906 35.6521 41.7688 35.3795 41.4953L32.2006 38.3173C31.6545 37.7712 31.6545 36.8842 32.2006 36.3372C32.7477 35.7901 33.6346 35.7901 34.1817 36.3372L36.3691 38.5255L37.9394 36.9552L41.0875 33.8071C41.6346 33.26 42.5206 33.26 43.0676 33.8071C43.6147 34.3542 43.6147 35.2402 43.0676 35.7873Z" fill="#225EC9"/>
</g>
<defs>
<clipPath id="clip0_81_639">
<rect width="47.8" height="47.8" fill="white" transform="translate(0.383789 0.400391)"/>
</clipPath>
</defs>
</svg>
