<svg width="49" height="48" viewBox="0 0 49 48" fill="none" xmlns="http://www.w3.org/2000/svg">
<g clip-path="url(#clip0_81_644)">
<path d="M48.1265 26.491L44.5122 5.99307C44.1931 4.18339 42.6193 2.91016 40.8433 2.91016C40.6283 2.91016 9.19202 8.43339 9.19202 8.43339C7.16332 8.79114 5.80868 10.7257 6.16643 12.7544L6.51485 14.7306H34.8862C38.4855 14.7306 41.4137 17.6588 41.4137 21.2581V23.8737V30.2194V31.4621L45.1009 30.8119C47.1296 30.4542 48.4843 28.5197 48.1265 26.491Z" fill="#225EC9"/>
<path d="M38.6161 33.0166H0.383789V41.56C0.383789 43.62 2.0538 45.29 4.11378 45.29H34.8861C36.9461 45.29 38.6161 43.62 38.6161 41.56V33.0166ZM11.4886 41.9294H5.14297C4.37051 41.9294 3.74426 41.3032 3.74426 40.5307C3.74426 39.7583 4.37051 39.132 5.14297 39.132H11.4886C12.2611 39.132 12.8873 39.7583 12.8873 40.5307C12.8873 41.3032 12.2612 41.9294 11.4886 41.9294Z" fill="#225EC9"/>
<path d="M0.388428 21.0764H38.6115C38.5167 19.1009 36.8851 17.5283 34.8861 17.5283H4.11384C2.11483 17.5283 0.483281 19.1009 0.388428 21.0764Z" fill="#225EC9"/>
<path d="M0.383789 23.8735H38.6161V30.2192H0.383789V23.8735Z" fill="#225EC9"/>
</g>
<defs>
<clipPath id="clip0_81_644">
<rect width="47.8" height="47.8" fill="white" transform="translate(0.383789 0.200195)"/>
</clipPath>
</defs>
</svg>
