<svg width="49" height="49" viewBox="0 0 49 49" fill="none" xmlns="http://www.w3.org/2000/svg">
<g clip-path="url(#clip0_81_882)">
<path d="M48.1265 27.0923L44.5122 6.59439C44.1931 4.78471 42.6193 3.51147 40.8433 3.51147C40.6283 3.51147 9.19202 9.03471 9.19202 9.03471C7.16332 9.39246 5.80868 11.3271 6.16643 13.3558L6.51485 15.3319H34.8862C38.4855 15.3319 41.4137 18.2601 41.4137 21.8594V24.475V30.8207V32.0634L45.1009 31.4132C47.1296 31.0556 48.4843 29.121 48.1265 27.0923Z" fill="#225EC9"/>
<path d="M38.6161 33.6182H0.383789V42.1616C0.383789 44.2215 2.0538 45.8916 4.11378 45.8916H34.8861C36.9461 45.8916 38.6161 44.2215 38.6161 42.1616V33.6182ZM11.4886 42.531H5.14297C4.37051 42.531 3.74426 41.9047 3.74426 41.1323C3.74426 40.3598 4.37051 39.7336 5.14297 39.7336H11.4886C12.2611 39.7336 12.8873 40.3598 12.8873 41.1323C12.8873 41.9047 12.2612 42.531 11.4886 42.531Z" fill="#225EC9"/>
<path d="M0.388428 21.6776H38.6115C38.5167 19.7021 36.8851 18.1295 34.8861 18.1295H4.11384C2.11483 18.1295 0.483281 19.7021 0.388428 21.6776Z" fill="#225EC9"/>
<path d="M0.383789 24.475H38.6161V30.8206H0.383789V24.475Z" fill="#225EC9"/>
</g>
<defs>
<clipPath id="clip0_81_882">
<rect width="47.8" height="47.8" fill="white" transform="translate(0.383789 0.801514)"/>
</clipPath>
</defs>
</svg>
