<svg width="49" height="48" viewBox="0 0 49 48" fill="none" xmlns="http://www.w3.org/2000/svg">
<g clip-path="url(#clip0_81_649)">
<path d="M46.2164 14.2715C46.0083 14.2715 45.7947 14.3012 45.5815 14.3601L43.1693 15.0247L40.6643 8.92271C39.9549 7.1939 37.857 5.7876 35.9884 5.7876H12.5454C10.6766 5.7876 8.57895 7.1939 7.86949 8.92271L5.36782 15.0163L2.98585 14.3601C2.77287 14.3014 2.55908 14.2715 2.35119 14.2715C1.21131 14.2715 0.383789 15.1423 0.383789 16.3424V17.7647C0.383789 19.1655 1.52326 20.305 2.92407 20.305H3.1968L2.79259 21.2898C2.13333 22.8961 1.59703 25.615 1.59703 27.3512V39.4736C1.59703 40.8744 2.7367 42.0139 4.13731 42.0139H7.45512C8.85594 42.0139 9.99541 40.8744 9.99541 39.4736V36.4462H38.5388V39.4736C38.5388 40.8744 39.6783 42.0139 41.0791 42.0139H44.3967C45.7975 42.0139 46.937 40.8744 46.937 39.4736V27.3512C46.937 25.6152 46.4007 22.8961 45.7413 21.2898L45.337 20.305H45.6435C47.0441 20.305 48.1838 19.1655 48.1838 17.7647V16.3424C48.1838 15.1423 47.3565 14.2715 46.2164 14.2715ZM7.18951 18.9251L10.9786 9.69537C11.4031 8.66137 12.6649 7.81535 13.7827 7.81535H34.7516C35.8693 7.81535 37.1311 8.66137 37.5554 9.69537L41.3445 18.9251C41.7691 19.9591 41.2019 20.8051 40.0841 20.8051H8.4501C7.33238 20.8051 6.76518 19.9591 7.18951 18.9251ZM15.6482 30.5995C15.6482 31.1583 15.191 31.6156 14.6321 31.6156H7.43399C6.87513 31.6156 6.41788 31.1583 6.41788 30.5995V27.1449C6.41788 26.586 6.87513 26.1288 7.43399 26.1288H14.6321C15.191 26.1288 15.6482 26.586 15.6482 27.1449V30.5995ZM42.0481 30.5995C42.0481 31.1583 41.5908 31.6156 41.032 31.6156H33.834C33.2752 31.6156 32.8179 31.1583 32.8179 30.5995V27.1449C32.8179 26.586 33.2752 26.1288 33.834 26.1288H41.032C41.5908 26.1288 42.0481 26.586 42.0481 27.1449V30.5995Z" fill="#225EC9"/>
</g>
<defs>
<clipPath id="clip0_81_649">
<rect width="47.8" height="47.8" fill="white" transform="translate(0.383789 0.000488281)"/>
</clipPath>
</defs>
</svg>
