<svg width="49" height="49" viewBox="0 0 49 49" fill="none" xmlns="http://www.w3.org/2000/svg">
<g clip-path="url(#clip0_81_897)">
<path d="M48.1837 11.7156V29.7952C48.1837 30.5716 47.5542 31.2011 46.7778 31.2011H44.6032V16.9419C44.6032 15.2563 43.2371 13.8902 41.5515 13.8902H23.0576C22.9661 13.8902 22.8826 13.8384 22.8421 13.756L20.9341 9.88598C20.4155 8.83532 19.367 8.18399 18.1964 8.18399H13.1677V6.00864C13.1677 5.23223 13.7972 4.60278 14.5736 4.60278H24.5882C24.6812 4.60278 24.7636 4.6542 24.8037 4.73699L26.7121 8.60775C27.2303 9.65732 28.2792 10.3097 29.4498 10.3097H46.7778C47.5542 10.3097 48.1837 10.9392 48.1837 11.7156Z" fill="#225EC9"/>
<path d="M41.7915 16.9419V36.1874C41.7915 36.9639 41.162 37.5933 40.3856 37.5933H38.2114V23.3338C38.2114 21.6485 36.8449 20.2821 35.1597 20.2821H16.6658C16.5739 20.2821 16.4904 20.2306 16.4502 20.1482L14.5418 16.2782C14.0152 15.2115 12.9569 14.5762 11.8042 14.5762H6.77588V12.4016C6.77588 11.6252 7.40533 10.9957 8.18174 10.9957H18.1964C18.289 10.9957 18.3714 11.0464 18.4119 11.1288L20.3199 14.9996C20.8385 16.0495 21.887 16.702 23.0576 16.702H41.5515C41.6835 16.702 41.7915 16.8099 41.7915 16.9419Z" fill="#225EC9"/>
<path d="M35.1598 23.0938H16.6659C15.4952 23.0938 14.4464 22.4417 13.9282 21.3918C12.9665 19.4404 13.3899 20.301 12.0198 17.5218C11.9797 17.4386 11.8969 17.3879 11.8043 17.3879H1.78965C1.01324 17.3879 0.383789 18.0174 0.383789 18.7938V42.5804C0.383789 43.3568 1.01324 43.9862 1.78965 43.9862H33.9939C34.7703 43.9862 35.3998 43.3568 35.3998 42.5804V23.3338C35.3998 23.2017 35.2918 23.0938 35.1598 23.0938ZM26.9081 39.4295C26.9081 40.2092 26.2728 40.8354 25.5022 40.8354C24.7327 40.8354 24.0963 40.2099 24.0963 39.4295C24.0963 38.9168 24.0963 39.0262 24.0963 38.5145C24.0963 37.7421 24.7232 37.1086 25.5022 37.1086C26.2801 37.1086 26.9081 37.7421 26.9081 38.5145V39.4295ZM31.5177 39.4295C31.5177 40.2092 30.882 40.8354 30.1118 40.8354C29.3376 40.8354 28.7056 40.2074 28.7056 39.4295C28.7056 38.9168 28.7056 39.0262 28.7056 38.5145C28.7056 37.7414 29.3329 37.1086 30.1118 37.1086C30.8897 37.1086 31.5177 37.7421 31.5177 38.5145V39.4295Z" fill="#225EC9"/>
</g>
<defs>
<clipPath id="clip0_81_897">
<rect width="47.8" height="47.8" fill="white" transform="translate(0.383789 0.401611)"/>
</clipPath>
</defs>
</svg>
