<svg width="49" height="49" viewBox="0 0 49 49" fill="none" xmlns="http://www.w3.org/2000/svg">
<g clip-path="url(#clip0_81_662)">
<path d="M4.67785 0.602539C3.90388 0.602539 3.27759 1.22883 3.27759 2.0028V24.5937C3.27759 25.3677 3.90388 25.994 4.67785 25.994H43.8853C44.6592 25.994 45.2855 25.3677 45.2855 24.5937V2.0028C45.2855 1.22883 44.6592 0.602539 43.8853 0.602539H4.67785ZM13.0794 17.4991C13.8534 17.4991 14.4797 18.1254 14.4797 18.8993C14.4797 19.6733 13.8534 20.2996 13.0794 20.2996H10.2789C9.50494 20.2996 8.87865 19.6733 8.87865 18.8993V7.69721C8.87865 6.92324 9.50494 6.29695 10.2789 6.29695H13.0794C13.8534 6.29695 14.4797 6.92324 14.4797 7.69721C14.4797 8.47119 13.8534 9.09748 13.0794 9.09748H11.6792V17.4991H13.0794ZM24.2816 20.2996C20.4212 20.2996 17.2802 17.1586 17.2802 13.2983C17.2802 9.43793 20.4212 6.29695 24.2816 6.29695C28.1419 6.29695 31.2829 9.43793 31.2829 13.2983C31.2829 17.1586 28.1419 20.2996 24.2816 20.2996ZM39.6845 18.8993C39.6845 19.6733 39.0582 20.2996 38.2842 20.2996H35.4837C34.7097 20.2996 34.0834 19.6733 34.0834 18.8993C34.0834 18.1254 34.7097 17.4991 35.4837 17.4991H36.8839V9.09748H35.4837C34.7097 9.09748 34.0834 8.47119 34.0834 7.69721C34.0834 6.92324 34.7097 6.29695 35.4837 6.29695H38.2842C39.0582 6.29695 39.6845 6.92324 39.6845 7.69721V18.8993Z" fill="#225EC9"/>
<path d="M24.2816 17.4992C26.6016 17.4992 28.4824 15.6185 28.4824 13.2984C28.4824 10.9784 26.6016 9.09766 24.2816 9.09766C21.9616 9.09766 20.0808 10.9784 20.0808 13.2984C20.0808 15.6185 21.9616 17.4992 24.2816 17.4992Z" fill="#225EC9"/>
<path d="M7.47846 48.3984H1.78405C1.01073 48.3984 0.383789 47.7714 0.383789 46.9981V32.9955C0.383789 32.2222 1.01073 31.5952 1.78405 31.5952H8.87873V46.9981C8.87873 47.7714 8.25178 48.3984 7.47846 48.3984Z" fill="#225EC9"/>
<path d="M47.872 34.9629C47.8599 34.9479 47.8476 34.9327 47.8353 34.9176C46.3678 33.1188 43.6618 32.9396 41.8525 34.394C41.7256 34.4961 37.601 37.8031 36.4055 38.5964C34.7965 39.6641 33.8109 39.9478 32.3345 39.9971L21.4811 39.9985C20.7072 39.9985 20.0809 39.3704 20.0809 38.5964C20.0809 37.8224 20.7072 37.1961 21.4811 37.1961H32.6833C33.4566 37.1961 34.0835 36.5692 34.0835 35.7959C34.0835 33.4758 32.2028 31.5951 29.8827 31.5951H26.5244C24.4345 31.5231 21.9252 31.2992 19.1332 30.6543C16.1317 29.9636 14.2755 29.9593 11.6792 30.9011V45.6485C13.6023 45.1145 15.579 44.9029 17.7575 45.42C29.6924 48.2648 39.5909 45.4367 47.8218 36.7755C48.2922 36.2806 48.299 35.4956 47.872 34.9629Z" fill="#225EC9"/>
</g>
<defs>
<clipPath id="clip0_81_662">
<rect width="47.8" height="47.8" fill="white" transform="translate(0.383789 0.600586)"/>
</clipPath>
</defs>
</svg>
