<svg width="42" height="49" viewBox="0 0 42 49" fill="none" xmlns="http://www.w3.org/2000/svg">
<path d="M41.5188 41.2159C41.5188 41.2159 36.2134 32.0976 35.2618 30.4623C36.3445 30.132 37.4979 29.8403 37.9772 29.0128C38.7759 27.634 37.3541 25.3721 37.7275 23.8942C38.112 22.3732 40.3821 21.057 40.3821 19.5109C40.3821 18.0046 38.0352 16.2448 37.6503 14.7327C37.2744 13.2551 38.6919 10.9908 37.8906 9.61361C37.0893 8.23635 34.4204 8.3495 33.3218 7.29233C32.1914 6.20442 32.1949 3.54263 30.8314 2.81356C29.4624 2.08178 27.2375 3.56071 25.7175 3.21039C24.2148 2.86407 22.8723 0.601562 21.3027 0.601562C19.7098 0.601562 17.1763 3.16802 16.779 3.26038C15.2597 3.61355 13.032 2.13823 11.6644 2.87311C10.3022 3.60463 10.3106 6.26668 9.18229 7.3564C8.08546 8.41551 5.41644 8.30726 4.61762 9.68608C3.81893 11.0646 5.24063 13.326 4.86745 14.8047C4.49323 16.2871 2.14404 17.7891 2.14404 19.5035C2.14404 21.0498 4.41985 22.3618 4.80673 23.8821C5.18276 25.3597 3.76532 27.6238 4.5666 29.0014C5.00282 29.7513 5.99256 30.0591 6.98101 30.3551C7.09637 30.3895 7.31454 30.5186 7.16677 30.7339C6.49053 31.9012 1.04773 41.2947 1.04773 41.2947C0.614735 42.0418 0.96635 42.6823 1.82885 42.7186L6.05069 42.8946C6.9132 42.9309 7.99517 43.5577 8.45555 44.2879L10.7084 47.8627C11.1687 48.5929 11.8992 48.5792 12.3321 47.8322C12.3321 47.8322 18.6355 36.9497 18.6381 36.9466C18.7645 36.7988 18.8916 36.8292 18.9525 36.8809C19.6421 37.4681 20.6036 38.0539 21.406 38.0539C22.193 38.0539 22.9216 37.5025 23.6424 36.8875C23.7011 36.8375 23.8438 36.735 23.9482 36.9476C23.9499 36.951 30.2463 47.774 30.2463 47.774C30.6803 48.5201 31.4109 48.5327 31.8699 47.8016L34.1164 44.2225C34.5755 43.4918 35.6563 42.8626 36.5188 42.825L40.7402 42.6411C41.6023 42.6032 41.9528 41.9618 41.5188 41.2159ZM28.2798 31.4268C23.612 34.1425 18.009 33.8514 13.7294 31.1521C7.45858 27.1354 5.39526 18.8263 9.16498 12.3198C12.9777 5.73835 21.359 3.41604 27.9998 7.03282C28.0347 7.05181 28.0692 7.07144 28.1038 7.09082C28.153 7.11807 28.2021 7.14572 28.251 7.17362C30.2998 8.3548 32.0763 10.0691 33.3484 12.2556C37.2363 18.9387 34.9627 27.5389 28.2798 31.4268Z" fill="#225EC9"/>
<path d="M27.2116 9.14047C27.1922 9.12924 27.1725 9.11877 27.1532 9.10766C23.6058 7.05455 19.0844 6.90445 15.295 9.10908C9.67174 12.3806 7.75827 19.6169 11.0298 25.24C12.028 26.956 13.396 28.3257 14.9743 29.3088C15.1085 29.3938 15.2442 29.4773 15.383 29.5577C21.0123 32.819 28.2447 30.8925 31.5059 25.2634C34.7669 19.634 32.8409 12.4018 27.2116 9.14047ZM28.6198 18.3431L26.6487 20.2643C26.0383 20.8593 25.6567 22.0337 25.801 22.874L26.2663 25.5868C26.4104 26.4271 25.911 26.79 25.1564 26.3933L22.72 25.1124C21.9654 24.7157 20.7306 24.7157 19.9759 25.1124L17.5397 26.3933C16.785 26.79 16.2855 26.4271 16.4297 25.5868L16.895 22.874C17.0391 22.0337 16.6575 20.8593 16.0471 20.2643L14.0761 18.3431C13.4655 17.7481 13.6564 17.1608 14.5001 17.0381L17.2239 16.6423C18.0675 16.5198 19.0665 15.7939 19.4439 15.0295L20.662 12.5613C21.0393 11.7968 21.6568 11.7968 22.034 12.5613L23.2522 15.0295C23.6295 15.7939 24.6284 16.5198 25.4722 16.6423L28.196 17.0381C29.0395 17.1608 29.2303 17.7481 28.6198 18.3431Z" fill="#225EC9"/>
</svg>
