<svg width="50" height="50" viewBox="0 0 50 50" fill="none" xmlns="http://www.w3.org/2000/svg">
<path d="M28.3203 0.857788V9.7656H37.2278L28.3203 0.857788Z" fill="#225EC9"/>
<path d="M35.4988 17.5781C36.3876 17.5781 37.2533 17.6781 38.0859 17.8665V12.6953H26.8555C26.0465 12.6953 25.3906 12.0395 25.3906 11.2305V0H5.37109C2.40947 0 0 2.40947 0 5.37109V44.6289C0 47.5905 2.40947 50 5.37109 50H32.7148C35.6765 50 38.0859 47.5905 38.0859 44.6289V40.7272C37.2533 40.9156 36.3876 41.0156 35.4988 41.0156C29.0371 41.0156 23.7801 35.7586 23.7801 29.2969C23.7801 22.8352 29.0371 17.5781 35.4988 17.5781ZM20.0195 36.1328H7.32422C6.51523 36.1328 5.85938 35.477 5.85938 34.668C5.85938 33.859 6.51523 33.2031 7.32422 33.2031H20.0195C20.8285 33.2031 21.4844 33.859 21.4844 34.668C21.4844 35.477 20.8285 36.1328 20.0195 36.1328ZM20.0195 30.2734H7.32422C6.51523 30.2734 5.85938 29.6176 5.85938 28.8086C5.85938 27.9996 6.51523 27.3438 7.32422 27.3438H20.0195C20.8285 27.3438 21.4844 27.9996 21.4844 28.8086C21.4844 29.6176 20.8285 30.2734 20.0195 30.2734ZM20.0195 24.4141H7.32422C6.51523 24.4141 5.85938 23.7582 5.85938 22.9492C5.85938 22.1402 6.51523 21.4844 7.32422 21.4844H20.0195C20.8285 21.4844 21.4844 22.1402 21.4844 22.9492C21.4844 23.7582 20.8285 24.4141 20.0195 24.4141ZM23.9258 18.5547H7.32422C6.51523 18.5547 5.85938 17.8988 5.85938 17.0898C5.85938 16.2809 6.51523 15.625 7.32422 15.625H23.9258C24.7348 15.625 25.3906 16.2809 25.3906 17.0898C25.3906 17.8988 24.7348 18.5547 23.9258 18.5547Z" fill="#225EC9"/>
<path d="M49.5709 41.2975L42.6602 34.3867C43.6846 32.9495 44.2878 31.1923 44.2878 29.2969C44.2878 24.4506 40.3451 20.5078 35.4988 20.5078C30.6525 20.5078 26.7097 24.4506 26.7097 29.2969C26.7097 34.1432 30.6525 38.0859 35.4988 38.0859C37.3943 38.0859 39.1514 37.4827 40.5886 36.4583L47.4993 43.3689C47.7853 43.655 48.1602 43.798 48.535 43.798C48.9098 43.798 49.2848 43.6551 49.5708 43.3689C50.1431 42.797 50.1431 41.8695 49.5709 41.2975Z" fill="#225EC9"/>
</svg>
