<svg width="49" height="49" viewBox="0 0 49 49" fill="none" xmlns="http://www.w3.org/2000/svg">
<g clip-path="url(#clip0_81_669)">
<path d="M31.1923 14.4043C29.3905 14.4043 27.9247 12.9385 27.9247 11.1367V0.400391H11.2134C8.38207 0.400391 6.07861 2.70385 6.07861 5.53516V43.0656C6.07861 45.8969 8.38207 48.2004 11.2134 48.2004H37.354C40.1853 48.2004 42.4888 45.8969 42.4888 43.0656V14.4043H31.1923ZM13.7341 34.0098H20.5232C21.2966 34.0098 21.9236 34.6368 21.9236 35.4102C21.9236 36.1835 21.2966 36.8105 20.5232 36.8105H13.7341C12.9607 36.8105 12.3337 36.1835 12.3337 35.4102C12.3337 34.6368 12.9607 34.0098 13.7341 34.0098ZM12.3337 27.9414C12.3337 27.168 12.9607 26.541 13.7341 26.541H34.2731C35.0465 26.541 35.6735 27.168 35.6735 27.9414C35.6735 28.7148 35.0465 29.3418 34.2731 29.3418H13.7341C12.9607 29.3418 12.3337 28.7148 12.3337 27.9414ZM34.2731 19.0723C35.0465 19.0723 35.6735 19.6993 35.6735 20.4727C35.6735 21.246 35.0465 21.873 34.2731 21.873H13.7341C12.9607 21.873 12.3337 21.246 12.3337 20.4727C12.3337 19.6993 12.9607 19.0723 13.7341 19.0723H34.2731Z" fill="#225EC9"/>
<path d="M30.7256 11.1365C30.7256 11.3939 30.935 11.6033 31.1924 11.6033H41.8647C41.6085 11.1303 41.2789 10.6959 40.883 10.3213L31.881 1.80485C31.5317 1.47436 31.1425 1.19867 30.7257 0.980957V11.1365H30.7256Z" fill="#225EC9"/>
</g>
<defs>
<clipPath id="clip0_81_669">
<rect width="47.8" height="47.8" fill="white" transform="translate(0.383789 0.400391)"/>
</clipPath>
</defs>
</svg>
