<svg width="49" height="48" viewBox="0 0 49 48" fill="none" xmlns="http://www.w3.org/2000/svg">
<g clip-path="url(#clip0_81_913)">
<path d="M44.4513 34.1591H43.0599V32.4023C43.0599 28.2426 39.6757 24.8586 35.5161 24.8586H25.997V18.3614H30.1702C32.2283 18.3614 33.9027 16.687 33.9027 14.6288V5.56842C33.9027 3.51031 32.2283 1.83582 30.1702 1.83582H19.0205C16.9624 1.83582 15.288 3.51022 15.288 5.56842V14.6287C15.288 16.6868 16.9624 18.3613 19.0205 18.3613H23.1937V24.8585H13.1137C8.95401 24.8585 5.57001 28.2426 5.57001 32.4022V34.159H4.1164C2.05819 34.1591 0.383789 35.8335 0.383789 37.8917V42.2317C0.383789 44.2898 2.05819 45.9642 4.1164 45.9642H9.82683C11.8849 45.9642 13.5593 44.2898 13.5593 42.2317V37.8917C13.5593 35.8335 11.8849 34.1591 9.82683 34.1591H8.37331V32.4023C8.37331 29.7885 10.4999 27.662 13.1136 27.662H23.1936V34.1591H21.7401C19.6819 34.1591 18.0075 35.8335 18.0075 37.8917V42.2317C18.0075 44.2898 19.6819 45.9642 21.7401 45.9642H27.4505C29.5086 45.9642 31.183 44.2898 31.183 42.2317V37.8917C31.183 35.8335 29.5086 34.1591 27.4505 34.1591H25.997V27.662H35.5162C38.1301 27.662 40.2566 29.7885 40.2566 32.4023V34.1591H38.7407C36.6826 34.1591 35.0082 35.8335 35.0082 37.8917V42.2317C35.0082 44.2898 36.6826 45.9642 38.7407 45.9642H44.4512C46.5094 45.9642 48.1838 44.2898 48.1838 42.2317V37.8917C48.1839 35.8335 46.5095 34.1591 44.4513 34.1591Z" fill="#225EC9"/>
</g>
<defs>
<clipPath id="clip0_81_913">
<rect width="47.8" height="47.8" fill="white" transform="translate(0.383789)"/>
</clipPath>
</defs>
</svg>
