<svg width="49" height="49" viewBox="0 0 49 49" fill="none" xmlns="http://www.w3.org/2000/svg">
<g clip-path="url(#clip0_81_917)">
<path d="M28.1699 0.799805C33.5719 0.799805 37.9511 5.17928 37.9511 10.5813C37.9511 15.9833 33.572 20.3625 28.1699 20.3625C22.7676 20.3625 18.3884 15.9833 18.3884 10.5813C18.3884 5.17928 22.7676 0.799805 28.1699 0.799805Z" fill="#225EC9"/>
<path d="M21.7656 42.3126C22.8135 41.9043 24.2107 40.9151 24.2107 40.9151C25.2005 40.2749 25.4913 38.9353 24.8512 37.946L21.9401 33.4622C21.3578 32.5889 20.1351 32.0066 18.9707 32.8221L17.748 33.6374C16.9329 34.0445 15.9433 33.7534 15.4191 32.9972L12.0424 27.757C11.5184 26.9997 11.693 25.8352 12.3918 25.3696L13.7308 24.5546C14.7207 23.914 15.0117 22.5747 14.3712 21.5852L11.4601 17.102C10.8197 16.1124 9.48068 15.8213 8.49075 16.4616C8.49075 16.4616 6.97687 17.3932 6.16183 18.2082C2.72678 21.4687 4.35686 26.1264 9.07291 33.3461C13.7308 40.6239 17.5735 44.1171 21.7656 42.3126Z" fill="#225EC9"/>
<path d="M31.7214 22.8079H28.228H24.7348C20.8341 22.8079 17.3408 24.6125 15.0119 27.4073L16.9914 30.4929L17.1079 30.4349C17.9813 29.8526 18.9126 29.5616 19.9025 29.5616C21.5909 29.5616 23.2213 30.4349 24.1526 31.8905L27.0638 36.3731C28.5773 38.702 27.9371 41.7883 25.6082 43.3018C25.2591 43.5348 23.8615 44.5242 22.6391 44.9904C21.591 45.4561 20.4848 45.6306 19.3787 45.6306C16.7004 45.6306 14.3132 44.2917 12.1592 42.2538V45.456C12.1592 45.456 16.9332 48.5997 27.7625 48.5997H28.6359C38.4751 48.5997 44.2392 45.456 44.2392 45.456V35.3838C44.239 28.4553 38.5915 22.8079 31.7214 22.8079Z" fill="#225EC9"/>
</g>
<defs>
<clipPath id="clip0_81_917">
<rect width="47.8" height="47.8" fill="white" transform="translate(0.383789 0.799805)"/>
</clipPath>
</defs>
</svg>
