<svg width="49" height="48" viewBox="0 0 49 48" fill="none" xmlns="http://www.w3.org/2000/svg">
<g clip-path="url(#clip0_81_672)">
<path d="M38.7544 1.02051V9.53647H47.2698L38.7544 1.02051Z" fill="#225EC9"/>
<path d="M37.354 12.3374C36.5806 12.3374 35.9536 11.7104 35.9536 10.937V0.200684H15.8813C13.5648 0.200684 11.6802 2.08533 11.6802 4.40186V20.0572C12.1416 20.0154 12.6084 19.9929 13.0806 19.9929C17.8538 19.9929 22.1268 22.1752 24.9546 25.5944H40.1548C40.9282 25.5944 41.5552 26.2214 41.5552 26.9948C41.5552 27.7682 40.9282 28.3952 40.1548 28.3952H26.7995C27.6749 30.1033 28.2393 31.9956 28.4205 33.9968H40.1548C40.9282 33.9968 41.5552 34.6238 41.5552 35.3972C41.5552 36.1706 40.9282 36.7976 40.1548 36.7976H28.4205C28.0017 41.4225 25.5307 45.4637 21.9271 48.0007H43.8892C46.2057 48.0007 48.0903 46.116 48.0903 43.7995V12.3374H37.354ZM40.1548 19.9929H19.6157C18.8423 19.9929 18.2153 19.3659 18.2153 18.5925C18.2153 17.8191 18.8423 17.1921 19.6157 17.1921H40.1548C40.9282 17.1921 41.5552 17.8191 41.5552 18.5925C41.5552 19.3659 40.9282 19.9929 40.1548 19.9929Z" fill="#225EC9"/>
<path d="M13.0806 22.7935C6.13099 22.7935 0.477051 28.4474 0.477051 35.397C0.477051 42.3466 6.13099 48.0005 13.0806 48.0005C20.0301 48.0005 25.6841 42.3466 25.6841 35.397C25.6841 28.4474 20.0301 22.7935 13.0806 22.7935ZM12.3026 33.9966H13.8586C15.4887 33.9966 16.8149 35.3228 16.8149 36.953V38.5089C16.8149 39.9256 15.8132 41.1122 14.481 41.3989V41.9321C14.481 42.7055 13.854 43.3325 13.0806 43.3325C12.3072 43.3325 11.6802 42.7055 11.6802 41.9321V41.3989C10.3479 41.1122 9.34619 39.9256 9.34619 38.5089C9.34619 37.7355 9.97319 37.1085 10.7466 37.1085C11.52 37.1085 12.147 37.7355 12.147 38.5089C12.147 38.5947 12.2168 38.6646 12.3026 38.6646H13.8586C13.9444 38.6646 14.0143 38.5947 14.0143 38.5089V36.953C14.0143 36.8672 13.9444 36.7974 13.8586 36.7974H12.3026C10.6725 36.7974 9.34619 35.4711 9.34619 33.841V32.285C9.34619 30.8684 10.3479 29.6818 11.6802 29.3951V28.8618C11.6802 28.0884 12.3072 27.4614 13.0806 27.4614C13.854 27.4614 14.481 28.0884 14.481 28.8618V29.3951C15.8132 29.6818 16.8149 30.8684 16.8149 32.285C16.8149 33.0584 16.1879 33.6854 15.4146 33.6854C14.6412 33.6854 14.0142 33.0584 14.0142 32.285C14.0142 32.1992 13.9443 32.1294 13.8585 32.1294H12.3025C12.2167 32.1294 12.1469 32.1992 12.1469 32.285V33.841C12.147 33.9268 12.2168 33.9966 12.3026 33.9966Z" fill="#225EC9"/>
</g>
<defs>
<clipPath id="clip0_81_672">
<rect width="47.8" height="47.8" fill="white" transform="translate(0.383789 0.200684)"/>
</clipPath>
</defs>
</svg>
