<svg width="49" height="48" viewBox="0 0 49 48" fill="none" xmlns="http://www.w3.org/2000/svg">
<g clip-path="url(#clip0_81_676)">
<path d="M38.2876 30.9963C35.5203 30.9963 33.0818 32.3576 31.5501 34.4277L18.3078 27.6469C18.5276 26.8975 18.6821 26.1209 18.6821 25.3014C18.6821 24.1898 18.4542 23.1331 18.0605 22.1611L31.9193 13.8215C33.4616 15.6316 35.7285 16.8057 38.2876 16.8057C42.9209 16.8057 46.6899 13.0367 46.6899 8.40332C46.6899 3.76999 42.9209 0.000976562 38.2876 0.000976562C33.6543 0.000976562 29.8853 3.76999 29.8853 8.40332C29.8853 9.47107 30.1051 10.4839 30.4699 11.4242L16.5699 19.7883C15.0289 18.032 12.7946 16.899 10.2798 16.899C5.64645 16.899 1.87744 20.668 1.87744 25.3014C1.87744 29.9347 5.64645 33.7037 10.2798 33.7037C13.0927 33.7037 15.5724 32.3025 17.0983 30.1742L30.2971 36.9329C30.054 37.7177 29.8853 38.5351 29.8853 39.3986C29.8853 44.032 33.6543 47.801 38.2876 47.801C42.9209 47.801 46.6899 44.032 46.6899 39.3986C46.6899 34.7653 42.9209 30.9963 38.2876 30.9963Z" fill="#225EC9"/>
</g>
<defs>
<clipPath id="clip0_81_676">
<rect width="47.8" height="47.8" fill="white" transform="translate(0.383789 0.000976562)"/>
</clipPath>
</defs>
</svg>
