<svg width="49" height="49" viewBox="0 0 49 49" fill="none" xmlns="http://www.w3.org/2000/svg">
<g clip-path="url(#clip0_81_680)">
<path d="M40.7836 15.6013H34.7838C32.3575 15.6013 30.3835 13.6273 30.3835 11.201V5.1996C30.3835 2.76618 28.414 0.800781 25.9847 0.800781H19.7841C17.3308 0.800781 15.3838 2.79167 15.3838 5.20109V32.2006C15.3838 34.6539 17.3747 36.6009 19.7841 36.6009H40.7837C43.2426 36.6009 45.1841 34.604 45.1841 32.2006V20.0017C45.184 17.5753 43.21 15.6013 40.7836 15.6013ZM35.949 20.9776L29.9491 29.9775C29.4199 30.8022 28.1479 30.8019 27.6187 29.9775L24.6187 25.4775C24.1896 24.834 24.3636 23.9646 25.0071 23.5356C25.6505 23.1065 26.52 23.2804 26.9491 23.9239L28.7838 26.6761L33.6186 19.424C34.0475 18.7805 34.917 18.6067 35.5605 19.0356C36.2042 19.4646 36.3781 20.3342 35.949 20.9776Z" fill="#225EC9"/>
<path d="M6.58294 38.2006V12.9692C4.76261 13.4873 3.38379 15.1518 3.38379 17.2009V44.2005C3.38379 46.6268 5.35778 48.6008 7.7841 48.6008H28.7838C30.7936 48.6008 32.4918 47.2458 33.0161 45.4016H13.784C9.81336 45.4017 6.58294 42.1713 6.58294 38.2006Z" fill="#225EC9"/>
<path d="M12.5828 32.2005V6.96924C10.7625 7.48738 9.38379 9.15207 9.38379 11.2009V38.2005C9.38379 40.6268 11.3578 42.6008 13.7841 42.6008H34.7838C36.7936 42.6008 38.4918 41.2458 39.0161 39.4016H19.784C15.8134 39.4017 12.5828 36.1713 12.5828 32.2005Z" fill="#225EC9"/>
<path d="M33.1843 11.201C33.1843 12.0829 33.9018 12.8005 34.7838 12.8005H40.7837C42.1457 12.8005 43.4206 13.1807 44.5079 13.8405C44.0796 12.8253 43.4555 11.8923 42.653 11.0898L34.8951 3.33188C34.0928 2.52955 33.1601 1.90563 32.1453 1.47729C32.8045 2.56418 33.1844 3.83826 33.1844 5.19953V11.201H33.1843Z" fill="#225EC9"/>
</g>
<defs>
<clipPath id="clip0_81_680">
<rect width="47.8" height="47.8" fill="white" transform="translate(0.383789 0.800781)"/>
</clipPath>
</defs>
</svg>
