<svg width="49" height="49" viewBox="0 0 49 49" fill="none" xmlns="http://www.w3.org/2000/svg">
<g clip-path="url(#clip0_81_686)">
<path d="M41.1521 5.13509C35.1064 -0.910588 25.3046 -0.910588 19.2589 5.13509L18.3456 6.04833L3.70716 20.6867C2.60608 21.7878 2.60608 23.5729 3.70716 24.674C4.80759 25.7744 6.59262 25.7744 7.69379 24.6733L23.2455 9.12172C27.0889 5.2783 33.3208 5.27839 37.1647 9.12237C41.0082 12.9658 41.0082 19.1975 37.1647 23.0409L19.0907 41.115C16.8951 43.3107 13.3356 43.3107 11.1399 41.115C8.9449 38.92 8.9449 35.3605 11.1405 33.1648L15.1214 29.184L26.6834 17.622C27.2306 17.0747 28.1178 17.0747 28.6652 17.622C29.2125 18.1693 29.2125 19.0565 28.6652 19.6038L15.6447 32.6242C14.5437 33.7253 14.5437 35.5103 15.6441 36.6108C16.7452 37.7119 18.5303 37.7119 19.6314 36.6108L32.6518 23.5904C35.4014 20.8408 35.4014 16.3835 32.6525 13.6346C29.903 10.8851 25.4456 10.8851 22.6961 13.6346L7.15315 29.1776C2.75527 33.5754 2.75527 40.7051 7.15249 45.1024C11.5504 49.5003 18.68 49.5003 23.078 45.1024L41.152 27.0283C47.1978 20.9827 47.1978 11.1807 41.1521 5.13509Z" fill="#225EC9"/>
</g>
<defs>
<clipPath id="clip0_81_686">
<rect width="47.8" height="47.8" fill="white" transform="translate(0.383789 0.60083)"/>
</clipPath>
</defs>
</svg>
