<svg width="49" height="49" viewBox="0 0 49 49" fill="none" xmlns="http://www.w3.org/2000/svg">
<g clip-path="url(#clip0_81_942)">
<path d="M10.0069 0.85083C6.75052 1.97207 4.40534 5.06692 4.40534 8.69952V44.5587C4.39003 41.3342 6.8479 38.5726 10.0069 38.172V0.85083Z" fill="#225EC9"/>
<path d="M12.8076 32.3818V38.1169H18.5436L12.8076 32.3818Z" fill="#225EC9"/>
<path d="M19.9038 27.7345V17.564C19.9038 16.355 20.3809 15.2253 21.2463 14.3823C22.6094 13.0066 24.9127 12.7268 26.5501 13.7372C28.5672 10.1066 34.5139 11.0768 34.8226 15.7677C35.8729 15.3381 37.1673 15.3518 38.2013 15.8191V0.399902H12.8076V28.5579C14.8933 27.0576 17.5932 26.7841 19.9038 27.7345Z" fill="#225EC9"/>
<path d="M20.0738 40.9177H10.8471C9.5522 40.9177 8.41322 41.5974 7.76904 42.6187C6.23327 44.9826 8.01084 48.2278 10.8471 48.1998H24.275C22.0978 46.3867 20.5639 43.8268 20.0738 40.9177Z" fill="#225EC9"/>
<path d="M42.577 21.3936C41.6794 21.3517 40.8797 22.1317 40.8984 23.0283V28.9575H38.0977V19.954C38.0977 19.4321 37.8652 18.9597 37.502 18.6469C36.4664 17.7399 34.829 18.5178 34.8338 19.8858C34.8342 20.9784 34.8336 27.7123 34.8338 28.9575H32.0331C32.0331 26.2975 32.0331 18.7983 32.0331 16.0366C31.9896 13.7725 28.8404 13.7372 28.7692 15.9787C28.7703 17.39 28.7688 26.0998 28.7692 28.9575C28.7239 28.9571 26.1228 28.9593 25.9685 28.9594C25.9692 27.6721 25.9677 19.8812 25.9685 17.6264C25.9692 16.1547 24.2488 15.3701 23.1994 16.3905C22.8802 16.7013 22.7046 17.1177 22.7046 17.564V33.702L20.3137 31.3111C18.8554 29.8528 16.6456 29.5933 14.9194 30.5325C15.7907 31.4037 22.0088 37.622 22.7046 38.3177C22.4107 43.6412 26.6537 48.2177 32.0144 48.1997H34.8525C39.9863 48.1997 44.1623 44.0182 44.1623 38.8778V23.0908C44.1623 22.1787 43.4509 21.4169 42.577 21.3936Z" fill="#225EC9"/>
</g>
<defs>
<clipPath id="clip0_81_942">
<rect width="47.8" height="47.8" fill="white" transform="translate(0.383789 0.399902)"/>
</clipPath>
</defs>
</svg>
