<svg width="49" height="49" viewBox="0 0 49 49" fill="none" xmlns="http://www.w3.org/2000/svg">
<g clip-path="url(#clip0_81_970)">
<path d="M22.0433 39.3293H17.5622C16.7888 39.3293 16.1619 39.9563 16.1619 40.7297V46.7978C16.1619 47.9316 17.4449 48.5969 18.3716 47.9405L19.8027 46.9268L21.2339 47.9405C22.1503 48.5898 23.4436 47.9409 23.4436 46.7978V40.7297C23.4436 39.9563 22.8166 39.3293 22.0433 39.3293Z" fill="#225EC9"/>
<path d="M24.2839 9.7027L18.3977 14.6833H30.17L24.2839 9.7027Z" fill="#225EC9"/>
<path d="M18.2158 17.484H22.8836V27.3797H18.2158V17.484Z" fill="#225EC9"/>
<path d="M40.7145 0.399902H11.5875C8.75597 0.399902 6.45288 2.70299 6.45288 5.53448V38.4891C6.45288 41.3206 8.75597 43.6237 11.5875 43.6237H13.3612V40.823H11.5875C10.3001 40.823 9.25356 39.7765 9.25356 38.4891C9.25356 37.2017 10.3001 36.1552 11.5875 36.1552H39.3142V40.823H26.2443V43.6237H40.7145C41.4875 43.6237 42.1148 42.9963 42.1148 42.2233V1.80024C42.1148 1.02725 41.4875 0.399902 40.7145 0.399902ZM33.9929 30.1804H14.5748C13.8015 30.1804 13.1745 29.5535 13.1745 28.7801C13.1745 28.0067 13.8015 27.3798 14.5748 27.3798H15.415V17.484H14.5748C13.9872 17.484 13.462 17.1171 13.2599 16.5653C13.0578 16.0136 13.2217 15.3943 13.6703 15.0147L23.3793 6.79936C23.9016 6.3576 24.6662 6.3576 25.1885 6.79936L34.8975 15.0147C35.3461 15.3943 35.51 16.0136 35.3079 16.5653C35.1058 17.1171 34.5806 17.484 33.993 17.484H33.1528V27.3798H33.993C34.7663 27.3798 35.3933 28.0067 35.3933 28.7801C35.3933 29.5535 34.7662 30.1804 33.9929 30.1804Z" fill="#225EC9"/>
<path d="M25.6841 17.484H30.3519V27.3797H25.6841V17.484Z" fill="#225EC9"/>
</g>
<defs>
<clipPath id="clip0_81_970">
<rect width="47.8" height="47.8" fill="white" transform="translate(0.383789 0.399902)"/>
</clipPath>
</defs>
</svg>
