<svg width="49" height="49" viewBox="0 0 49 49" fill="none" xmlns="http://www.w3.org/2000/svg">
<g clip-path="url(#clip0_81_964)">
<path d="M3.19446 0.608582C1.64213 0.608582 0.383789 1.86701 0.383789 3.41925V11.8513H6.00513V3.41925C6.00513 1.86692 4.7467 0.608582 3.19446 0.608582Z" fill="#225EC9"/>
<path d="M18.6532 44.877C18.6532 46.1762 18.2589 47.3848 17.5845 48.3903H36.4072C40.1925 48.3903 43.426 46.0569 44.7749 42.769H18.6532V44.877Z" fill="#225EC9"/>
<path d="M34.2809 27.141C41.8197 27.5505 48.5757 20.7975 48.166 13.2559C40.6272 12.8464 33.8713 19.5995 34.2809 27.141Z" fill="#225EC9"/>
<path d="M42.6375 27.8768C38.6026 30.1718 34.9087 29.9701 34.918 29.9689C34.3379 29.9689 33.9812 29.9365 33.4963 29.9133L31.8833 31.5263H36.9225V34.337H14.4372V31.5263H27.9084L31.5089 27.9257L31.4745 27.2935C31.09 20.2156 35.8435 13.5509 42.6375 11.2485V7.72931C42.6375 3.80309 39.4433 0.608948 35.5172 0.608948H8.05957C8.53945 1.43641 8.81583 2.39606 8.81583 3.41962V44.877C8.81583 46.8174 10.3888 48.3903 12.3292 48.3903C14.2695 48.3903 15.8425 46.8174 15.8425 44.877V39.9583H42.6375V27.8768ZM14.4372 14.6623H28.4905V17.473H14.4372V14.6623ZM14.4372 20.2836H28.4905V23.0943H14.4372V20.2836ZM14.4372 25.905H24.2745V28.7156H14.4372V25.905Z" fill="#225EC9"/>
</g>
<defs>
<clipPath id="clip0_81_964">
<rect width="47.8" height="47.8" fill="white" transform="translate(0.383789 0.599609)"/>
</clipPath>
</defs>
</svg>
