<svg width="49" height="49" viewBox="0 0 49 49" fill="none" xmlns="http://www.w3.org/2000/svg">
<g clip-path="url(#clip0_81_960)">
<path d="M10.2798 0.799805C7.96354 0.799805 6.07861 2.68473 6.07861 5.00098V40.949C6.90298 40.471 7.85991 40.1975 8.87939 40.1975H10.2798V0.799805Z" fill="#225EC9"/>
<path d="M13.0806 0.799805V40.1975H42.4888V0.799805H13.0806ZM27.0845 17.7912C24.7682 17.7912 22.8833 15.9063 22.8833 13.59C22.8833 11.7649 24.054 10.2067 25.6841 9.62973V6.58809H28.4849V9.62973C30.1149 10.2067 31.2856 11.7649 31.2856 13.59H28.4849C28.4849 12.818 27.8566 12.1896 27.0845 12.1896C26.3124 12.1896 25.6841 12.818 25.6841 13.59C25.6841 14.3621 26.3124 14.9904 27.0845 14.9904C29.4007 14.9904 31.2856 16.8754 31.2856 19.1916C31.2856 21.0168 30.1149 22.5749 28.4849 23.1519V26.1936H25.6841V23.1519C24.054 22.5749 22.8833 21.0168 22.8833 19.1916H25.6841C25.6841 19.9637 26.3124 20.592 27.0845 20.592C27.8566 20.592 28.4849 19.9637 28.4849 19.1916C28.4849 18.4195 27.8566 17.7912 27.0845 17.7912ZM36.8872 37.3967H17.2817V34.5959H36.8872V37.3967ZM36.8872 31.7951H17.2817V28.9943H36.8872V31.7951Z" fill="#225EC9"/>
<path d="M6.07861 45.799C6.07861 47.3459 7.33252 48.5998 8.87939 48.5998H42.4888V42.9982H8.87939C7.33252 42.9982 6.07861 44.2521 6.07861 45.799Z" fill="#225EC9"/>
</g>
<defs>
<clipPath id="clip0_81_960">
<rect width="47.8" height="47.8" fill="white" transform="translate(0.383789 0.799805)"/>
</clipPath>
</defs>
</svg>
