<svg width="49" height="48" viewBox="0 0 49 48" fill="none" xmlns="http://www.w3.org/2000/svg">
<g clip-path="url(#clip0_81_953)">
<path d="M42.1606 24.9567C42.3934 23.8318 42.5414 22.6937 42.6019 21.5486C43.9362 20.9655 46.2993 19.6462 47.4039 17.2773C48.7055 14.4857 47.9556 11.5689 46.7585 8.72666C43.8153 9.63551 41.0961 10.935 39.7934 13.7285C38.4694 16.5678 39.4624 19.8227 39.8279 20.8233C39.7798 22.8517 39.4217 24.8613 38.7616 26.8058C37.0148 28.544 36.3735 30.9806 36.1683 32.0318C35.1288 33.5533 33.4975 35.1008 31.3132 36.6381C29.2888 37.0527 27.2895 38.3881 25.9307 39.8846C25.347 40.199 24.7592 40.5099 24.2828 40.7664C23.8121 40.5126 23.2319 40.2053 22.6364 39.8841C21.2787 38.3889 19.2794 37.0531 17.255 36.6383C15.0701 35.1007 13.4387 33.5531 12.3994 32.032C12.1943 30.9809 11.5528 28.5442 9.80611 26.8058C9.14581 24.8611 8.78781 22.8514 8.73976 20.8233C9.10523 19.8227 10.0981 16.5678 8.77419 13.7284C7.47131 10.9347 4.75174 9.63533 1.80898 8.72656C0.613406 11.5653 -0.138984 14.4837 1.16361 17.2773C2.26831 19.6462 4.63138 20.9654 5.96569 21.5486C6.02615 22.6937 6.17423 23.8318 6.40701 24.9567C3.95475 24.3657 1.98374 24.8436 0.383789 25.2097C0.767822 28.2662 1.57535 31.1696 4.10021 32.9375C5.91354 34.2072 8.33296 34.4908 10.5278 34.22C11.2516 35.1712 12.1391 36.1042 13.2046 37.0308C10.5836 38.0582 9.07807 39.9542 8.40854 40.6945C10.4761 42.9779 12.8031 44.8931 15.8853 44.8931C18.3599 44.8931 20.4574 43.4738 21.601 42.5054C24.4193 44.0179 23.1471 43.3388 24.2824 43.9657C26.12 42.9596 23.2805 44.4812 26.9667 42.5055C28.1104 43.4738 30.2078 44.8931 32.6824 44.8931C35.7624 44.8931 38.089 42.9807 40.1591 40.6945C39.485 39.9492 38.0013 38.065 35.3633 37.0309C36.4285 36.1043 37.316 35.1713 38.0399 34.22C40.2346 34.4908 42.654 34.2074 44.4675 32.9375C46.9924 31.1695 47.7999 28.2661 48.1839 25.2097C47.1947 24.9833 44.9065 24.2949 42.1606 24.9567Z" fill="#225EC9"/>
<path d="M20.084 26.6991C20.084 24.3842 21.9678 22.5005 24.2826 22.5005C26.5974 22.5005 28.4812 24.3842 28.4812 26.6991C28.4812 27.1898 28.3963 27.661 28.2405 28.0986H34.0793V2.90698H14.4858V28.0986H20.3247C20.1688 27.661 20.084 27.1898 20.084 26.6991ZM20.084 8.50512H28.4812V11.3042H20.084V8.50512ZM20.084 14.1033H28.4812V16.9023H20.084V14.1033Z" fill="#225EC9"/>
<path d="M24.2826 28.0986C25.0555 28.0986 25.6821 27.472 25.6821 26.6991C25.6821 25.9262 25.0555 25.2996 24.2826 25.2996C23.5096 25.2996 22.8831 25.9262 22.8831 26.6991C22.8831 27.472 23.5096 28.0986 24.2826 28.0986Z" fill="#225EC9"/>
<path d="M20.2314 31.6711L22.7357 32.9233L23.7648 30.8659C22.787 30.7446 21.9118 30.2865 21.2624 29.611L20.2314 31.6711Z" fill="#225EC9"/>
<path d="M28.3337 31.6711L27.3027 29.611C26.6533 30.2865 25.7781 30.7446 24.8003 30.8659L25.8294 32.9233L28.3337 31.6711Z" fill="#225EC9"/>
</g>
<defs>
<clipPath id="clip0_81_953">
<rect width="47.8" height="47.8" fill="white" transform="translate(0.383789)"/>
</clipPath>
</defs>
</svg>
