<svg width="49" height="48" viewBox="0 0 49 48" fill="none" xmlns="http://www.w3.org/2000/svg">
<g clip-path="url(#clip0_81_812)">
<path d="M29.7919 44.9924H28.2498C27.5992 41.8004 24.7707 39.3909 21.3896 39.3909H10.1865C6.80541 39.3909 3.9769 41.8004 3.32628 44.9924H1.78418C1.01014 44.9924 0.383789 45.6188 0.383789 46.3928C0.383789 47.1669 1.01014 47.7932 1.78418 47.7932C11.1383 47.7932 20.4468 47.7932 29.7919 47.7932C30.566 47.7932 31.1923 47.1669 31.1923 46.3928C31.1923 45.6188 30.566 44.9924 29.7919 44.9924Z" fill="#225EC9"/>
<path d="M36.8524 12.7132L24.9697 0.830671C23.8758 -0.263218 22.1025 -0.263218 21.0088 0.830671C19.9151 1.92437 19.9151 3.69773 21.0088 4.79153L32.8915 16.6742C33.9852 17.7679 35.7586 17.7679 36.8524 16.6742C37.9461 15.5803 37.9461 13.8071 36.8524 12.7132Z" fill="#225EC9"/>
<path d="M17.0478 32.5177L5.16506 20.635C4.07136 19.5413 2.298 19.5413 1.20421 20.635C0.110317 21.7287 0.110317 23.502 1.20421 24.5959L13.0869 36.4786C14.1808 37.5723 15.9539 37.5723 17.0478 36.4786C18.1415 35.3849 18.1415 33.6115 17.0478 32.5177Z" fill="#225EC9"/>
<path d="M19.0275 6.7721L7.14502 18.6545L19.0275 30.537L30.9099 18.6545L19.0275 6.7721Z" fill="#225EC9"/>
<path d="M46.9535 40.6215L44.9609 38.459L39.0195 44.4004L41.0121 46.5628C42.6528 48.2034 45.3128 48.2034 46.9535 46.5628C48.5941 44.9221 48.5941 42.2622 46.9535 40.6215Z" fill="#225EC9"/>
<path d="M33.5781 27.2629C33.8142 26.3366 33.6164 25.3208 32.8914 24.5958C31.7975 23.5019 30.0241 23.5019 28.9304 24.5958L24.9696 28.5567C23.8757 29.6504 23.8757 31.4237 24.9696 32.5176C25.6946 33.2426 26.7105 33.4404 27.6367 33.2043L37.0389 42.4198L42.9803 36.4784L33.5781 27.2629Z" fill="#225EC9"/>
</g>
<defs>
<clipPath id="clip0_81_812">
<rect width="47.8" height="47.8" fill="white" transform="translate(0.383789 0.00170898)"/>
</clipPath>
</defs>
</svg>
