<svg width="49" height="48" viewBox="0 0 49 48" fill="none" xmlns="http://www.w3.org/2000/svg">
<g clip-path="url(#clip0_81_949)">
<path d="M24.2834 14.993C19.2613 14.993 15.1758 19.0786 15.1758 24.1003C15.1758 29.1224 19.2613 33.2079 24.2834 33.2079C29.3051 33.2079 33.3907 29.1224 33.3907 24.1003C33.3907 19.0786 29.3051 14.993 24.2834 14.993ZM29.6906 22.3852L23.166 28.9097C22.8921 29.1836 22.5329 29.3207 22.1741 29.3207C21.8152 29.3207 21.4564 29.184 21.1825 28.9097L18.6891 26.4164C18.1414 25.869 18.1414 24.981 18.6891 24.4333C19.2365 23.8855 20.1245 23.8855 20.6723 24.4333L22.1741 25.935L27.7074 20.402C28.2548 19.8543 29.1428 19.8543 29.6906 20.402C30.2383 20.9494 30.2383 21.8374 29.6906 22.3852Z" fill="#225EC9"/>
<path d="M44.5882 13.1689L44.5867 13.1317C44.5659 12.6726 44.5521 12.1868 44.5437 11.6464C44.5047 9.01081 42.4095 6.83073 39.7736 6.68339C34.2778 6.37669 30.0263 4.58464 26.3937 1.04392L26.3627 1.01438C25.1779 -0.0720135 23.3906 -0.0720135 22.2053 1.01438L22.1743 1.04392C18.5417 4.58464 14.2902 6.37669 8.79444 6.68376C6.15887 6.83073 4.0634 9.01081 4.02437 11.6467C4.01635 12.1836 4.00213 12.6693 3.98134 13.1317L3.97915 13.2182C3.8723 18.8223 3.73956 25.7968 6.0728 32.1274C7.35576 35.6087 9.2988 38.6348 11.8476 41.1223C14.7505 43.9552 18.5527 46.2042 23.1484 47.8066C23.2979 47.8588 23.4533 47.9011 23.6115 47.9328C23.8347 47.9773 24.0594 47.9995 24.284 47.9995C24.5087 47.9995 24.7337 47.9773 24.9565 47.9328C25.1148 47.9011 25.2712 47.8584 25.4215 47.8059C30.0118 46.2006 33.8099 43.9505 36.7103 41.118C39.2579 38.6297 41.201 35.6028 42.485 32.1208C44.827 25.7713 44.6947 18.7836 44.5882 13.1689ZM24.2833 36.0127C17.7146 36.0127 12.3709 30.669 12.3709 24.1003C12.3709 17.5316 17.7146 12.1879 24.2833 12.1879C30.8516 12.1879 36.1957 17.5316 36.1957 24.1003C36.1957 30.669 30.8516 36.0127 24.2833 36.0127Z" fill="#225EC9"/>
</g>
<defs>
<clipPath id="clip0_81_949">
<rect width="47.8" height="47.8" fill="white" transform="translate(0.383789 0.199707)"/>
</clipPath>
</defs>
</svg>
