<svg width="49" height="49" viewBox="0 0 49 49" fill="none" xmlns="http://www.w3.org/2000/svg">
<g clip-path="url(#clip0_81_688)">
<path d="M14.0142 8.80322C16.3344 8.80322 18.2153 6.92229 18.2153 4.60205C18.2153 2.28181 16.3344 0.400879 14.0142 0.400879C11.6939 0.400879 9.81299 2.28181 9.81299 4.60205C9.81299 6.92229 11.6939 8.80322 14.0142 8.80322Z" fill="#225EC9"/>
<path d="M22.8833 14.8715C22.8833 12.3487 21.5417 10.1337 19.5349 8.90112C18.2524 10.5443 16.2553 11.604 14.0142 11.604C11.773 11.604 9.77592 10.5443 8.49345 8.90112C6.48659 10.1337 5.14502 12.3487 5.14502 14.8715V16.2719H22.8833V14.8715Z" fill="#225EC9"/>
<path d="M46.7834 19.0728H1.78418C1.01079 19.0728 0.383789 19.6998 0.383789 20.4731V22.3403C0.383789 23.1137 1.01079 23.7407 1.78418 23.7407H46.7834C47.5568 23.7407 48.1838 23.1137 48.1838 22.3403V20.4731C48.1838 19.6998 47.5568 19.0728 46.7834 19.0728Z" fill="#225EC9"/>
<path d="M28.9517 33.0767H37.354V41.6657H28.9517V33.0767Z" fill="#225EC9"/>
<path d="M11.2134 33.0767H19.6157V41.6657H11.2134V33.0767Z" fill="#225EC9"/>
<path d="M3.27783 46.8005C3.27783 47.5739 3.90483 48.2009 4.67822 48.2009H43.8892C44.6625 48.2009 45.2896 47.5739 45.2896 46.8005V26.5415H3.27783V46.8005ZM26.1509 31.6763C26.1509 30.9029 26.7779 30.2759 27.5513 30.2759H38.7544C39.5278 30.2759 40.1548 30.9029 40.1548 31.6763V43.0661C40.1548 43.8395 39.5278 44.4665 38.7544 44.4665H27.5513C26.7779 44.4665 26.1509 43.8395 26.1509 43.0661V31.6763ZM8.4126 31.6763C8.4126 30.9029 9.0396 30.2759 9.81299 30.2759H21.0161C21.7895 30.2759 22.4165 30.9029 22.4165 31.6763V43.0661C22.4165 43.8395 21.7895 44.4665 21.0161 44.4665H9.81299C9.0396 44.4665 8.4126 43.8395 8.4126 43.0661V31.6763Z" fill="#225EC9"/>
<path d="M34.5532 8.80322C36.8735 8.80322 38.7544 6.92229 38.7544 4.60205C38.7544 2.28181 36.8735 0.400879 34.5532 0.400879C32.233 0.400879 30.3521 2.28181 30.3521 4.60205C30.3521 6.92229 32.233 8.80322 34.5532 8.80322Z" fill="#225EC9"/>
<path d="M43.4224 14.8715C43.4224 12.3487 42.0808 10.1337 40.0739 8.90112C38.7915 10.5443 36.7944 11.604 34.5532 11.604C32.312 11.604 30.315 10.5443 29.0325 8.90112C27.0257 10.1337 25.6841 12.3487 25.6841 14.8715V16.2719H43.4224V14.8715Z" fill="#225EC9"/>
</g>
<defs>
<clipPath id="clip0_81_688">
<rect width="47.8" height="47.8" fill="white" transform="translate(0.383789 0.400879)"/>
</clipPath>
</defs>
</svg>
