<svg width="49" height="48" viewBox="0 0 49 48" fill="none" xmlns="http://www.w3.org/2000/svg">
<g clip-path="url(#clip0_81_977)">
<path d="M9.71969 1.02008L1.2041 9.53567H9.71969V1.02008Z" fill="#225EC9"/>
<path d="M14.3877 23.5396H19.0557V33.8091H14.3877V23.5396Z" fill="#225EC9"/>
<path d="M11.5869 38.0103C11.5869 38.7824 12.2151 39.4106 12.9873 39.4106H20.4561C21.2282 39.4106 21.8564 38.7824 21.8564 38.0103C21.8564 37.2381 21.2282 36.6099 20.4561 36.6099H12.9873C12.2151 36.6099 11.5869 37.2381 11.5869 38.0103Z" fill="#225EC9"/>
<path d="M20.4561 17.938H12.9873C12.2151 17.938 11.5869 18.5662 11.5869 19.3384C11.5869 20.1106 12.2151 20.7388 12.9873 20.7388H20.4561C21.2282 20.7388 21.8564 20.1106 21.8564 19.3384C21.8564 18.5662 21.2282 17.938 20.4561 17.938Z" fill="#225EC9"/>
<path d="M46.0832 26.5737H21.8564V30.7749H46.0832C47.2433 30.7749 48.1838 29.8344 48.1838 28.6743C48.1838 27.5142 47.2433 26.5737 46.0832 26.5737Z" fill="#225EC9"/>
<path d="M21.8564 34.0499C23.4864 34.628 24.6572 36.1846 24.6572 38.0103C24.6572 40.3268 22.7726 42.2114 20.4561 42.2114H12.9873C10.6708 42.2114 8.78613 40.3268 8.78613 38.0103C8.78613 36.1846 9.95695 34.628 11.5869 34.0499V23.2987C9.95695 22.7206 8.78613 21.164 8.78613 19.3384C8.78613 17.0219 10.6708 15.1372 12.9873 15.1372H20.4561C22.7726 15.1372 24.6572 17.0219 24.6572 19.3384C24.6572 21.164 23.4864 22.7206 21.8564 23.2987V23.7729H34.9268V4.40088C34.9268 2.08435 33.0421 0.199707 30.7256 0.199707H12.5205V10.936C12.5205 11.7094 11.8935 12.3364 11.1201 12.3364H0.383789V43.7985C0.383789 46.1151 2.26843 47.9997 4.58496 47.9997H30.7256C33.0421 47.9997 34.9268 46.1151 34.9268 43.7985V33.5757H21.8564V34.0499ZM16.7217 5.80127H27.9248C28.6982 5.80127 29.3252 6.42827 29.3252 7.20166C29.3252 7.97505 28.6982 8.60205 27.9248 8.60205H16.7217C15.9483 8.60205 15.3213 7.97505 15.3213 7.20166C15.3213 6.42827 15.9483 5.80127 16.7217 5.80127Z" fill="#225EC9"/>
</g>
<defs>
<clipPath id="clip0_81_977">
<rect width="47.8" height="47.8" fill="white" transform="translate(0.383789 0.199707)"/>
</clipPath>
</defs>
</svg>
