<svg width="49" height="48" viewBox="0 0 49 48" fill="none" xmlns="http://www.w3.org/2000/svg">
<g clip-path="url(#clip0_81_698)">
<path d="M41.2613 4.23387C40.4685 3.43938 39.4141 3.00171 38.2923 3.00171H36.4302V4.8689C36.4302 6.92803 34.7568 8.60327 32.6999 8.60327H15.9139C13.857 8.60327 12.1837 6.92803 12.1837 4.8689V3.00171H10.3155C8.00406 3.00171 6.12156 4.88421 6.11895 7.19821L6.07862 43.7951C6.07731 44.9181 6.5133 45.9742 7.30601 46.7688C8.09891 47.5634 9.15331 48.0009 10.2751 48.0009H38.2518C40.5632 48.0009 42.4458 46.1184 42.4483 43.8044L42.4888 7.20755C42.4901 6.08453 42.0541 5.02845 41.2613 4.23387ZM24.7593 17.0056H34.6977C35.4702 17.0056 36.0965 17.6326 36.0965 18.406C36.0965 19.1794 35.4702 19.8064 34.6977 19.8064H24.7593C23.9867 19.8064 23.3605 19.1794 23.3605 18.406C23.3605 17.6326 23.9867 17.0056 24.7593 17.0056ZM24.7593 26.3416H34.6977C35.4702 26.3416 36.0965 26.9686 36.0965 27.7419C36.0965 28.5153 35.4702 29.1423 34.6977 29.1423H24.7593C23.9867 29.1423 23.3605 28.5153 23.3605 27.7419C23.3605 26.9686 23.9867 26.3416 24.7593 26.3416ZM24.7593 35.6775H34.7376C35.5102 35.6775 36.1364 36.3045 36.1364 37.0779C36.1364 37.8513 35.5102 38.4783 34.7376 38.4783H24.7593C23.9867 38.4783 23.3605 37.8513 23.3605 37.0779C23.3605 36.3045 23.9867 35.6775 24.7593 35.6775ZM12.8407 17.0609C13.3871 16.514 14.2727 16.514 14.819 17.0609L15.5796 17.8224L18.8056 14.5929C19.3519 14.0461 20.2375 14.0459 20.7837 14.5929C21.33 15.1397 21.33 16.0265 20.7837 16.5734L16.5687 20.793C16.3063 21.0556 15.9505 21.2032 15.5795 21.2032C15.2085 21.2032 14.8527 21.0557 14.5904 20.793L12.8406 19.0412C12.2944 18.4944 12.2944 17.6077 12.8407 17.0609ZM12.8407 27.1098C13.3871 26.5629 14.2727 26.5629 14.819 27.1098L15.5796 27.8712L18.8056 24.6418C19.3518 24.095 20.2375 24.095 20.7837 24.6418C21.33 25.1886 21.33 26.0753 20.7837 26.6222L16.5687 30.8419C16.3064 31.1046 15.9505 31.2522 15.5795 31.2522C15.2085 31.2522 14.8527 31.1047 14.5904 30.8419L12.8406 29.0901C12.2944 28.5433 12.2944 27.6567 12.8407 27.1098ZM12.8407 36.4457C13.3871 35.8988 14.2727 35.8988 14.819 36.4457L15.5796 37.2072L18.8056 33.9777C19.3518 33.4309 20.2375 33.4309 20.7837 33.9777C21.33 34.5245 21.33 35.4112 20.7837 35.9581L16.5687 40.1779C16.3064 40.4405 15.9505 40.5881 15.5795 40.5881C15.2085 40.5881 14.8527 40.4406 14.5904 40.1779L12.8406 38.4261C12.2944 37.8793 12.2944 36.9926 12.8407 36.4457Z" fill="#225EC9"/>
<path d="M14.9817 4.8689C14.9817 5.38452 15.3992 5.80249 15.9143 5.80249H32.7003C33.2153 5.80249 33.6328 5.38452 33.6328 4.8689V1.13452C33.6328 0.618898 33.2153 0.200928 32.7003 0.200928H15.9143C15.3992 0.200928 14.9817 0.618898 14.9817 1.13452V4.8689Z" fill="#225EC9"/>
</g>
<defs>
<clipPath id="clip0_81_698">
<rect width="47.8" height="47.8" fill="white" transform="translate(0.383789 0.200928)"/>
</clipPath>
</defs>
</svg>
