<svg width="49" height="48" viewBox="0 0 49 48" fill="none" xmlns="http://www.w3.org/2000/svg">
<g clip-path="url(#clip0_81_988)">
<path d="M43.785 5.99994H16.7824C14.3569 5.99994 12.3835 7.97328 12.3835 10.4017C12.3835 12.8272 14.3569 14.8006 16.7824 14.8006H43.7849C46.2104 14.8006 48.1837 12.8272 48.1837 10.4017C48.1838 7.97318 46.2104 5.99994 43.785 5.99994Z" fill="#225EC9"/>
<path d="M4.78419 5.99994C2.35787 5.99994 0.383789 7.97393 0.383789 10.4002C0.383789 12.8266 2.35787 14.8006 4.78419 14.8006C7.21051 14.8006 9.1845 12.8266 9.1845 10.4002C9.1845 7.97393 7.21051 5.99994 4.78419 5.99994Z" fill="#225EC9"/>
<path d="M4.78419 19.4997C2.35787 19.4997 0.383789 21.4737 0.383789 23.9C0.383789 26.3263 2.35787 28.3003 4.78419 28.3003C7.21051 28.3003 9.1845 26.3263 9.1845 23.9C9.1845 21.4737 7.21051 19.4997 4.78419 19.4997Z" fill="#225EC9"/>
<path d="M4.78419 32.9995C2.35787 32.9995 0.383789 34.9734 0.383789 37.3998C0.383789 39.8261 2.35787 41.8001 4.78419 41.8001C7.21051 41.8001 9.1845 39.8261 9.1845 37.3998C9.1845 34.9734 7.21051 32.9995 4.78419 32.9995Z" fill="#225EC9"/>
<path d="M43.785 19.4997H16.7824C14.3569 19.4997 12.3835 21.473 12.3835 23.9015C12.3835 26.327 14.3569 28.3003 16.7824 28.3003H43.7849C46.2104 28.3003 48.1837 26.327 48.1837 23.9015C48.1838 21.4729 46.2104 19.4997 43.785 19.4997Z" fill="#225EC9"/>
<path d="M43.785 32.9995H16.7824C14.3569 32.9995 12.3835 34.9728 12.3835 37.4013C12.3835 39.8267 14.3569 41.8001 16.7824 41.8001H43.7849C46.2104 41.8001 48.1837 39.8267 48.1837 37.4013C48.1838 34.9728 46.2104 32.9995 43.785 32.9995Z" fill="#225EC9"/>
</g>
<defs>
<clipPath id="clip0_81_988">
<rect width="47.8" height="47.8" fill="white" transform="translate(0.383789)"/>
</clipPath>
</defs>
</svg>
