<svg width="49" height="49" viewBox="0 0 49 49" fill="none" xmlns="http://www.w3.org/2000/svg">
<g clip-path="url(#clip0_81_997)">
<path d="M17.715 25.0204L1.63434 41.101C-0.0330606 42.7684 -0.0330606 45.4816 1.63434 47.149C2.46804 47.9827 3.56314 48.3996 4.65825 48.3996C5.75335 48.3996 6.84855 47.9827 7.68225 47.149L23.763 31.0683L17.715 25.0204Z" fill="#225EC9"/>
<path d="M26.8808 9.10073L16.3259 19.6556L29.1288 32.4585L39.6837 21.9036L26.8808 9.10073Z" fill="#225EC9"/>
<path d="M47.772 26.0376L43.6487 21.9142L29.1406 36.4223L33.2641 40.5458C33.5387 40.8203 33.8985 40.9575 34.2582 40.9575C34.6179 40.9575 34.9778 40.8202 35.2523 40.5457L47.772 28.0259C48.321 27.4768 48.321 26.5867 47.772 26.0376Z" fill="#225EC9"/>
<path d="M22.7457 1.01142C22.482 0.747771 22.1244 0.599609 21.7515 0.599609C21.3786 0.599609 21.021 0.747771 20.7574 1.01142L8.23771 13.5312C7.68867 14.0802 7.68867 14.9704 8.23771 15.5195L12.3611 19.6429L26.8692 5.13482L22.7457 1.01142Z" fill="#225EC9"/>
</g>
<defs>
<clipPath id="clip0_81_997">
<rect width="47.8" height="47.8" fill="white" transform="translate(0.383789 0.599609)"/>
</clipPath>
</defs>
</svg>
