<svg width="49" height="48" viewBox="0 0 49 48" fill="none" xmlns="http://www.w3.org/2000/svg">
<g clip-path="url(#clip0_81_703)">
<path d="M18.1311 12.586C18.1311 7.69315 14.1504 3.7124 9.2575 3.7124C4.36463 3.7124 0.383789 7.69315 0.383789 12.586C0.383789 17.4789 4.36454 21.4596 9.25741 21.4596C14.1503 21.4596 18.1311 17.4789 18.1311 12.586ZM7.67908 17.5178L3.3979 13.2366L5.37833 11.2562L7.67908 13.557L12.838 8.39792L14.8185 10.3784L7.67908 17.5178Z" fill="#225EC9"/>
<path d="M20.9319 12.586C20.9319 16.1339 19.3406 19.3168 16.8347 21.4596H48.1838V3.7124H16.8347C19.3406 5.85528 20.9319 9.03809 20.9319 12.586ZM34.7157 7.8527H43.8869V10.6535H34.7157V7.8527ZM26.5194 7.8527H31.5735V10.6535H26.5194V7.8527ZM26.5194 14.137H43.8869V16.9378H26.5194V14.137Z" fill="#225EC9"/>
<path d="M20.9318 35.2347C20.9318 38.7724 19.3498 41.9472 16.8563 44.09H48.1836V26.3425H16.8127C19.3311 28.4857 20.9318 31.6765 20.9318 35.2347ZM34.7155 30.4828H43.8868V33.2836H34.7155V30.4828ZM26.5193 30.4828H31.5734V33.2836H26.5193V30.4828ZM26.5193 36.7672H43.8868V39.568H26.5193V36.7672Z" fill="#225EC9"/>
<path d="M9.25741 44.09C14.1582 44.09 18.131 40.1172 18.131 35.2164C18.131 30.3156 14.1582 26.3428 9.25741 26.3428C4.35664 26.3428 0.383789 30.3156 0.383789 35.2164C0.383789 40.1172 4.35664 44.09 9.25741 44.09Z" fill="#225EC9"/>
</g>
<defs>
<clipPath id="clip0_81_703">
<rect width="47.8" height="47.8" fill="white" transform="translate(0.383789 0.000976562)"/>
</clipPath>
</defs>
</svg>
