<svg width="49" height="49" viewBox="0 0 49 49" fill="none" xmlns="http://www.w3.org/2000/svg">
<g clip-path="url(#clip0_81_1010)">
<path d="M41.5804 22.9929V24.0664C38.5384 24.3745 35.4731 24.3746 32.4312 24.0664V22.9929H29.6304V31.5819H32.4312V30.5084C33.487 30.4014 34.5457 30.3317 35.6054 30.2989V39.2374H34.0183V48.1999H39.9933V39.2374H38.4062V30.2989C39.4658 30.3316 40.5245 30.4014 41.5804 30.5084V31.5819H44.3812V22.9929H41.5804Z" fill="#225EC9"/>
<path d="M31.2174 36.4366H32.8045V34.3827H26.8295V20.1921H35.2319V21.4595C35.824 21.4843 36.4162 21.4967 37.0057 21.4967V10.7628H26.6428V0.399902H4.18652V45.2124H31.2173V36.4366H31.2174ZM10.5477 8.86862L12.4142 10.7352L15.7504 7.39896L17.7308 9.37939L12.4142 14.6961L8.56722 10.8491L10.5477 8.86862ZM17.6241 35.5603H8.67403V32.7595H17.6241V35.5603ZM24.4255 27.1931H8.67403V24.3923H24.4255V27.1931ZM24.4255 21.2181H8.67403V18.4173H24.4255V21.2181Z" fill="#225EC9"/>
<path d="M29.4436 1.80029V7.96201H35.6053L29.4436 1.80029Z" fill="#225EC9"/>
</g>
<defs>
<clipPath id="clip0_81_1010">
<rect width="47.8" height="47.8" fill="white" transform="translate(0.383789 0.399902)"/>
</clipPath>
</defs>
</svg>
