<svg width="56" height="49" viewBox="0 0 56 49" fill="none" xmlns="http://www.w3.org/2000/svg">
<g clip-path="url(#clip0_81_831)">
<path d="M28.3346 23.6128C28.0366 23.6283 27.7368 23.6559 27.4387 23.6662C27.7368 23.6541 28.0366 23.6283 28.3346 23.6128Z" fill="#FEFEFE"/>
<path d="M45.4395 36.8221C42.3641 36.8221 39.2871 36.7911 36.21 36.7773C39.2871 36.7911 42.3624 36.8239 45.4395 36.8221Z" fill="#FEFEFE"/>
<path d="M42.1902 24.9636C37.895 17.4897 33.6257 9.99857 29.3478 2.51604C29.0307 1.96299 28.6896 1.42372 28.314 0.801758C26.1363 4.55422 24.0292 8.19642 21.9031 11.8283C21.6723 12.2211 21.879 12.4692 22.0461 12.7604C24.1429 16.3784 26.2379 19.9948 28.3347 23.6129C28.3347 23.6129 28.3381 23.6129 28.3399 23.6146L28.3485 23.618C30.4228 27.2654 32.5007 30.9128 34.5716 34.5619C34.9937 35.3062 35.3917 36.0625 35.8 36.8137C35.9361 36.8016 36.0739 36.7896 36.2101 36.7775C37.7004 34.3155 39.1752 31.8432 40.6792 29.3915C41.1806 28.5731 41.6854 27.7582 42.1954 26.9467C42.664 26.1989 42.5934 25.67 42.1902 24.9654V24.9636Z" fill="#DA282E"/>
<path d="M55.6823 47.7642C55.236 47.0665 54.8794 46.3118 54.4814 45.583C53.0704 42.9935 51.6438 40.4144 50.2586 37.8111C49.8658 37.0737 49.3885 36.7997 48.515 36.8083C47.4899 36.8187 46.4648 36.8221 45.4396 36.8238C42.3643 36.8238 39.2872 36.7928 36.2101 36.7791C36.074 36.7911 35.9362 36.8032 35.8001 36.8152C30.7313 36.8256 25.6643 36.8359 20.5955 36.8462C20.5438 36.86 20.5266 36.8928 20.5438 36.9444C20.8419 37.0513 20.959 37.3149 21.102 37.5664C21.7791 38.7604 22.4648 39.9492 23.1471 41.1414C24.3101 43.1779 25.4989 45.2006 26.6205 47.2594C27.0133 47.9813 27.4871 48.2639 28.3175 48.2208C29.72 48.1484 31.1293 48.1794 32.5334 48.2053C36.8872 48.2863 41.241 48.1071 45.5982 48.3328C48.832 48.4999 52.0797 48.3638 55.3222 48.3724C55.8322 48.3724 56.032 48.3104 55.6823 47.7642Z" fill="#E1E1E1"/>
<path d="M28.3501 23.618C28.3501 23.618 28.345 23.6163 28.3415 23.6146H28.3364V23.6129C28.0383 23.6284 27.7385 23.6542 27.4404 23.6663C27.3405 23.6697 27.2406 23.6732 27.1424 23.6715C23.4416 23.6611 19.7425 23.6646 16.0418 23.6112C15.3078 23.6008 14.9322 23.8455 14.5721 24.4726C11.6949 29.4931 8.77115 34.4878 5.87496 39.498C4.14689 42.4872 2.44123 45.4919 0.709717 48.5156C0.83032 48.5466 0.911296 48.5845 0.990549 48.5845C5.09276 48.588 9.19498 48.5811 13.2972 48.6035C13.771 48.6069 13.9295 48.3571 14.1242 48.0194C16.2589 44.3238 18.4021 40.6351 20.5454 36.9446C20.5282 36.893 20.5454 36.8619 20.5971 36.8464C23.1125 32.4789 25.6262 28.1131 28.1451 23.749C28.1813 23.687 28.2812 23.6611 28.3501 23.6198V23.618Z" fill="#0E3569"/>
</g>
<defs>
<clipPath id="clip0_81_831">
<rect width="55.1482" height="47.8" fill="white" transform="translate(0.709717 0.801758)"/>
</clipPath>
</defs>
</svg>
