<svg width="49" height="48" viewBox="0 0 49 48" fill="none" xmlns="http://www.w3.org/2000/svg">
<g clip-path="url(#clip0_81_768)">
<path d="M46.7834 8.40381H42.5823V42.1999C42.5823 43.8282 43.2881 45.2836 44.4037 46.3026C44.9598 46.8104 45.8083 46.809 46.3641 46.301C47.4788 45.2821 48.1838 43.8273 48.1838 42.1999V9.8042C48.1838 9.03016 47.5575 8.40381 46.7834 8.40381Z" fill="#225EC9"/>
<path d="M17.1885 25.2085H8.78613V33.6108H17.1885V25.2085Z" fill="#225EC9"/>
<path d="M31.1924 8.40381H8.78613V16.8062H31.1924V8.40381Z" fill="#225EC9"/>
<path d="M39.5947 42.1999C39.5947 -11.7508 39.5947 14.1896 39.5947 1.40186C39.5947 0.627813 38.9684 0.00146484 38.1943 0.00146484H1.78418C1.01014 0.00146484 0.383789 0.627813 0.383789 1.40186V40.7995C0.383789 44.6602 3.52505 47.8015 7.38574 47.8015H41.7801C40.4365 46.3115 39.5947 44.3597 39.5947 42.1999ZM5.98535 23.8081C5.98535 23.0341 6.6117 22.4077 7.38574 22.4077H18.5889C19.3629 22.4077 19.9893 23.0341 19.9893 23.8081V35.0112C19.9893 35.7853 19.3629 36.4116 18.5889 36.4116H7.38574C6.6117 36.4116 5.98535 35.7853 5.98535 35.0112V23.8081ZM32.5928 42.1999H7.38574C5.53975 42.1999 5.53218 39.3991 7.38574 39.3991H32.5928C34.4388 39.3991 34.4463 42.1999 32.5928 42.1999ZM32.5928 36.4116H24.1904C22.3444 36.4116 22.3369 33.6108 24.1904 33.6108H32.5928C34.4388 33.6108 34.4463 36.4116 32.5928 36.4116ZM32.5928 30.8101H24.1904C22.3444 30.8101 22.3369 28.0093 24.1904 28.0093H32.5928C34.4388 28.0093 34.4463 30.8101 32.5928 30.8101ZM32.5928 25.2085H24.1904C22.3444 25.2085 22.3369 22.4077 24.1904 22.4077H32.5928C34.4388 22.4077 34.4463 25.2085 32.5928 25.2085ZM33.9932 18.2065C33.9932 18.9806 33.3668 19.6069 32.5928 19.6069H7.38574C6.6117 19.6069 5.98535 18.9806 5.98535 18.2065V7.00342C5.98535 6.22938 6.6117 5.60303 7.38574 5.60303H32.5928C33.3668 5.60303 33.9932 6.22938 33.9932 7.00342V18.2065Z" fill="#225EC9"/>
</g>
<defs>
<clipPath id="clip0_81_768">
<rect width="47.8" height="47.8" fill="white" transform="translate(0.383789 0.00146484)"/>
</clipPath>
</defs>
</svg>
