<svg width="49" height="48" viewBox="0 0 49 48" fill="none" xmlns="http://www.w3.org/2000/svg">
<g clip-path="url(#clip0_81_1016)">
<path d="M36.8873 29.7013V25.5001H39.7814C44.4148 25.5001 48.1838 21.7311 48.1838 17.0977C48.1838 12.4644 44.4148 8.6954 39.7814 8.6954H36.8873V4.49423H11.6803V8.6954H8.87949V11.4962H11.6803V15.6974H36.8873V11.4962H39.7814C42.8708 11.4962 45.383 14.0084 45.383 17.0977C45.383 20.1871 42.8708 22.6993 39.7814 22.6993H36.8873V18.4981H11.6803V22.6993H8.78613C4.1528 22.6993 0.383789 26.4683 0.383789 31.1017C0.383789 35.735 4.1528 39.504 8.78613 39.504H11.6803V43.7052H36.8873V39.504H39.6881V36.7032H36.8873V32.502H11.6803V36.7032H8.78613C5.69678 36.7032 3.18457 34.191 3.18457 31.1017C3.18457 28.0123 5.69678 25.5001 8.78613 25.5001H11.6803V29.7013H36.8873Z" fill="#225EC9"/>
<path d="M41.2087 35.3028L44.0095 38.1036L41.2087 40.9044L43.189 42.8846L48.1837 38.1036L43.189 33.3226L41.2087 35.3028Z" fill="#225EC9"/>
<path d="M2.36403 14.8768L7.35876 10.0958L2.36403 5.31476L0.383789 7.295L3.18457 10.0958L0.383789 12.8966L2.36403 14.8768Z" fill="#225EC9"/>
</g>
<defs>
<clipPath id="clip0_81_1016">
<rect width="47.8" height="47.8" fill="white" transform="translate(0.383789 0.199707)"/>
</clipPath>
</defs>
</svg>
