<svg width="49" height="48" viewBox="0 0 49 48" fill="none" xmlns="http://www.w3.org/2000/svg">
<g clip-path="url(#clip0_81_1021)">
<path d="M10.2799 16.898H42.4889V7.09522C42.4889 4.77495 40.608 2.89404 38.2877 2.89404H4.58496C2.2647 2.89404 0.383789 4.77495 0.383789 7.09522V29.5015C0.383789 31.8217 2.2647 33.7026 4.58496 33.7026H6.07871V40.7046C6.07871 41.2707 6.41919 41.7822 6.94303 41.9983C7.45912 42.2137 8.06493 42.0989 8.46927 41.6947L16.4613 33.7026H20.0826V25.3003H10.2799C9.50584 25.3003 8.87949 24.674 8.87949 23.8999C8.87949 23.1259 9.50584 22.4995 10.2799 22.4995H20.2243C20.4365 21.4583 20.8994 20.5168 21.5188 19.6987H10.2799C9.50584 19.6987 8.87949 19.0724 8.87949 18.2983C8.87949 17.5243 9.50584 16.898 10.2799 16.898ZM10.2799 11.2964H32.6861C33.4602 11.2964 34.0865 11.9227 34.0865 12.6968C34.0865 13.4708 33.4602 14.0972 32.6861 14.0972H10.2799C9.50584 14.0972 8.87949 13.4708 8.87949 12.6968C8.87949 11.9227 9.50584 11.2964 10.2799 11.2964Z" fill="#225EC9"/>
<path d="M43.9825 19.6987H27.0845C24.7679 19.6987 22.8833 21.5833 22.8833 23.8999V35.103C22.8833 37.4196 24.7679 39.3042 27.0845 39.3042H34.907L40.0982 44.4954C40.5025 44.8997 41.1084 45.0144 41.6244 44.799C42.1482 44.583 42.4888 44.0715 42.4888 43.5054V39.3042H43.9825C46.2991 39.3042 48.1837 37.4196 48.1837 35.103V23.8999C48.1837 21.5833 46.2991 19.6987 43.9825 19.6987ZM39.2777 29.0911L35.0765 33.2923C34.5295 33.8393 33.6432 33.8393 33.0963 33.2923L30.9957 31.1917C30.4487 30.6447 30.4487 29.7585 30.9957 29.2115C31.5427 28.6645 32.4289 28.6645 32.9759 29.2115L34.0864 30.322L37.2975 27.1109C37.8445 26.5639 38.7308 26.5639 39.2778 27.1109C39.8248 27.6579 39.8248 28.5442 39.2777 29.0911Z" fill="#225EC9"/>
</g>
<defs>
<clipPath id="clip0_81_1021">
<rect width="47.8" height="47.8" fill="white" transform="translate(0.383789)"/>
</clipPath>
</defs>
</svg>
