<svg width="49" height="49" viewBox="0 0 49 49" fill="none" xmlns="http://www.w3.org/2000/svg">
<g clip-path="url(#clip0_81_1061)">
<path d="M25.1483 31.2154H23.4202V33.5424H25.1483V31.2154Z" fill="#225EC9"/>
<path d="M2.64066 5.76651C1.39627 5.76651 0.383789 6.7789 0.383789 8.02338V36.8506C1.06354 36.5102 1.83002 36.3186 2.64066 36.3186H4.89743V5.76651H2.64066Z" fill="#225EC9"/>
<path d="M24.262 20.721L18.9087 25.0952V33.5428H20.619V28.4149H27.9488V33.5428H29.6591V25.1342L24.262 20.721Z" fill="#225EC9"/>
<path d="M45.9269 39.1194H40.8694V10.4293H7.69822V39.1194H2.64066C1.39627 39.1194 0.383789 40.1318 0.383789 41.3762C0.383789 42.6207 1.39627 43.6331 2.64066 43.6331H45.9269C47.1713 43.6331 48.1838 42.6207 48.1838 41.3763C48.1838 40.1318 47.1713 39.1194 45.9269 39.1194ZM34.8408 29.3711L32.46 27.4244V36.3436H16.108V27.3837L13.7264 29.3297L11.9543 27.1608L24.2629 17.1037L36.6138 27.203L34.8408 29.3711Z" fill="#225EC9"/>
<path d="M45.9269 5.76651H43.6702V36.3186H45.9269C46.7376 36.3186 47.5041 36.5101 48.1838 36.8505V8.02338C48.1838 6.7789 47.1713 5.76651 45.9269 5.76651Z" fill="#225EC9"/>
</g>
<defs>
<clipPath id="clip0_81_1061">
<rect width="47.8" height="47.8" fill="white" transform="translate(0.383789 0.799805)"/>
</clipPath>
</defs>
</svg>
