<svg width="49" height="49" viewBox="0 0 49 49" fill="none" xmlns="http://www.w3.org/2000/svg">
<g clip-path="url(#clip0_81_716)">
<path d="M0.383789 14.605V16.0054C0.383789 18.322 2.26834 20.2065 4.58496 20.2065H5.98535V34.6551C4.35884 35.2352 3.18457 36.775 3.18457 38.5983V39.9987H45.383V38.5983C45.383 36.775 44.2089 35.2352 42.5822 34.6551V20.2065H43.9826C46.2992 20.2065 48.1838 18.322 48.1838 16.0054V14.605H0.383789ZM19.9893 34.3972H14.3877V20.2065H19.9893V34.3972ZM34.1799 34.3972H28.5783V20.2065H34.1799V34.3972Z" fill="#225EC9"/>
<path d="M25.0034 0.748745C24.6095 0.55185 23.9579 0.55185 23.564 0.748745L1.45312 11.8042H47.1143L25.0034 0.748745Z" fill="#225EC9"/>
<path d="M0.383789 42.7996V47.0007C0.383789 47.7741 1.01079 48.4011 1.78418 48.4011H46.7834C47.5568 48.4011 48.1838 47.7741 48.1838 47.0007V42.7996H0.383789Z" fill="#225EC9"/>
</g>
<defs>
<clipPath id="clip0_81_716">
<rect width="47.8" height="47.8" fill="white" transform="translate(0.383789 0.601074)"/>
</clipPath>
</defs>
</svg>
