<svg width="49" height="49" viewBox="0 0 49 49" fill="none" xmlns="http://www.w3.org/2000/svg">
<g clip-path="url(#clip0_81_726)">
<path d="M16.784 21.2016H31.7838C32.5572 21.2016 33.1842 20.5746 33.1842 19.8012V15.8324C33.1842 14.0223 32.0985 12.4186 30.4183 11.7466L29.6306 11.4314C28.2175 12.7175 26.3407 13.5026 24.2839 13.5026C22.2271 13.5026 20.3503 12.7175 18.9372 11.4314L18.1494 11.7466C16.4692 12.4185 15.3835 14.0222 15.3835 15.8324V19.8012C15.3836 20.5746 16.0105 21.2016 16.784 21.2016Z" fill="#225EC9"/>
<path d="M24.2839 10.7018C27.1284 10.7018 29.4343 8.39594 29.4343 5.55148C29.4343 2.70702 27.1284 0.401123 24.2839 0.401123C21.4394 0.401123 19.1335 2.70702 19.1335 5.55148C19.1335 8.39594 21.4394 10.7018 24.2839 10.7018Z" fill="#225EC9"/>
<path d="M21.1786 39.4003V38.1862C22.047 37.1234 22.5189 35.8052 22.5189 34.4145C22.5189 32.8185 21.8972 31.3178 20.7683 30.1889L14.3099 23.7305C13.1384 22.559 11.2389 22.559 10.0674 23.7305C8.89592 24.9021 8.89583 26.8016 10.0674 27.9731L13.2741 31.1798C13.8369 31.7425 13.8205 32.6651 13.2251 33.207C12.6675 33.7145 11.7988 33.6655 11.2657 33.1323L7.67198 29.5386C6.84174 28.7084 6.38418 27.604 6.38362 26.4278L6.38371 16.8491C6.38371 14.3853 4.42373 12.2583 1.79398 12.2549C0.987264 12.2539 0.383976 12.9028 0.383976 13.6553L0.383789 28.0341C0.384069 29.7766 1.06242 31.4142 2.29373 32.6455L9.04828 39.4003H21.1786Z" fill="#225EC9"/>
<path d="M21.2781 42.2012H9.27832C8.50493 42.2012 7.87793 42.8282 7.87793 43.6016V46.8007C7.87793 47.5741 8.50493 48.2011 9.27832 48.2011H21.2781C22.0515 48.2011 22.6785 47.5741 22.6785 46.8007V43.6016C22.6785 42.8282 22.0515 42.2012 21.2781 42.2012Z" fill="#225EC9"/>
<path d="M48.1835 13.6555C48.1836 12.903 47.5802 12.2541 46.7735 12.2551C44.1438 12.2586 42.1838 14.3855 42.1838 16.8493L42.1839 26.428C42.1833 27.6042 41.7257 28.7086 40.8955 29.5388L37.3018 33.1325C36.7687 33.6657 35.9001 33.7148 35.3424 33.2072C34.747 32.6653 34.7306 31.7428 35.2934 31.18L38.5001 27.9733C39.6717 26.8017 39.6717 24.9022 38.5001 23.7308C37.3285 22.5593 35.4291 22.5592 34.2576 23.7308L27.7992 30.1892C26.6703 31.3181 26.0486 32.8187 26.0486 34.4147C26.0486 35.8055 26.5206 37.1236 27.3889 38.1864V39.4006H39.5192L46.2738 32.6457C47.5051 31.4144 48.1834 29.7768 48.1837 28.0344L48.1835 13.6555Z" fill="#225EC9"/>
<path d="M39.2893 42.2012H27.2896C26.5162 42.2012 25.8892 42.8282 25.8892 43.6016V46.8007C25.8892 47.5741 26.5162 48.2011 27.2896 48.2011H39.2893C40.0627 48.2011 40.6897 47.5741 40.6897 46.8007V43.6016C40.6897 42.8282 40.0627 42.2012 39.2893 42.2012Z" fill="#225EC9"/>
</g>
<defs>
<clipPath id="clip0_81_726">
<rect width="47.8" height="47.8" fill="white" transform="translate(0.383789 0.401123)"/>
</clipPath>
</defs>
</svg>
