<svg width="49" height="49" viewBox="0 0 49 49" fill="none" xmlns="http://www.w3.org/2000/svg">
<g clip-path="url(#clip0_81_1029)">
<path d="M20.0825 16.0973C20.0825 12.2366 16.9413 9.09531 13.0806 9.09531C9.21988 9.09531 6.07861 12.2366 6.07861 16.0973C6.07861 19.958 9.21988 23.1926 13.0806 23.1926C16.9413 23.1926 20.0825 19.958 20.0825 16.0973Z" fill="#225EC9"/>
<path d="M25.6841 37.1965H24.2837C23.5103 37.1965 22.8833 37.8233 22.8833 38.5969V41.3977C22.8833 42.171 23.5103 42.798 24.2837 42.798H25.6841C27.231 42.798 28.4849 41.5439 28.4849 39.9973C28.4849 38.4504 27.231 37.1965 25.6841 37.1965Z" fill="#225EC9"/>
<path d="M8.34725 48.3996L9.2716 45.5988H7.479C5.96668 45.5988 4.53818 45.2627 3.27783 44.6185V46.9992C3.27783 47.7833 3.89391 48.3996 4.67822 48.3996H8.34725Z" fill="#225EC9"/>
<path d="M7.4791 42.7971H10.2238C10.1094 43.1435 11.9749 37.4917 12.0724 37.1965H7.4791C6.69479 37.1965 6.07871 36.5802 6.07871 35.7961V30.1945C6.07871 29.4102 6.69479 28.7941 7.4791 28.7941C8.26341 28.7941 8.87949 29.4102 8.87949 30.1945V34.3948H12.9965C12.8972 34.6893 14.4658 30.0409 14.5652 29.7463C14.7332 29.1862 15.2654 28.7941 15.8814 28.7941H25.5441C24.8999 25.6012 22.0712 23.1926 18.6822 23.1926H7.4791C3.60235 23.1926 0.383789 26.3346 0.383789 30.1945V35.7961C0.383789 39.8014 3.82184 42.7971 7.4791 42.7971Z" fill="#225EC9"/>
<path d="M26.1504 31.5949H16.8908L11.2888 48.3996H21.4831C22.0856 48.3996 22.6204 48.0141 22.811 47.4425L23.4536 45.5149C21.5335 45.1282 20.0827 43.43 20.0827 41.3977V38.5969C20.0827 36.2803 21.9673 34.3957 24.2839 34.3957H25.6843C26.1735 34.3957 26.64 34.4788 27.0927 34.5971L27.479 33.438C27.7813 32.5314 27.1064 31.5949 26.1504 31.5949Z" fill="#225EC9"/>
<path d="M43.9825 0.599609H27.0845C24.7679 0.599609 22.8833 2.48416 22.8833 4.80078V16.0973C22.8833 18.4139 24.7679 20.3918 27.0845 20.3918H28.4849V24.593C28.4849 25.1591 28.8253 25.6706 29.3492 25.8866C29.8657 26.1022 30.4716 25.9866 30.8754 25.583L36.0667 20.3918H43.9825C46.2991 20.3918 48.1837 18.4139 48.1837 16.0973V4.80078C48.1837 2.48416 46.2991 0.599609 43.9825 0.599609ZM39.2777 10.0854L35.0765 14.2866C34.803 14.5601 34.4446 14.6969 34.0864 14.6969C33.7282 14.6969 33.3698 14.5601 33.0963 14.2866L30.9958 12.186C30.4488 11.639 30.4488 10.7527 30.9958 10.2057C31.5428 9.65874 32.429 9.65874 32.976 10.2057L34.0864 11.3162L37.2975 8.10514C37.8445 7.55815 38.7308 7.55815 39.2778 8.10514C39.8248 8.65213 39.8248 9.5384 39.2777 10.0854Z" fill="#225EC9"/>
</g>
<defs>
<clipPath id="clip0_81_1029">
<rect width="47.8" height="47.8" fill="white" transform="translate(0.383789 0.599609)"/>
</clipPath>
</defs>
</svg>
