<svg width="49" height="49" viewBox="0 0 49 49" fill="none" xmlns="http://www.w3.org/2000/svg">
<g clip-path="url(#clip0_81_1084)">
<path d="M0.383789 4.60156V27.1012C0.383789 27.8742 1.01116 28.5016 1.78418 28.5016H8.87949V22.9H4.67832C3.9053 22.9 3.27793 22.2726 3.27793 21.4996C3.27793 20.7266 3.9053 20.0992 4.67832 20.0992H8.87949V17.2984H4.67832C3.9053 17.2984 3.27793 16.6711 3.27793 15.898C3.27793 15.125 3.9053 14.4977 4.67832 14.4977H8.87949V11.6969H4.67832C3.9053 11.6969 3.27793 11.0695 3.27793 10.2965C3.27793 9.52347 3.9053 8.89609 4.67832 8.89609H8.87949V3.20117H1.78418C1.01116 3.20117 0.383789 3.82855 0.383789 4.60156Z" fill="#225EC9"/>
<path d="M46.7833 3.20117H39.688V8.89609H43.8892C44.6622 8.89609 45.2896 9.52347 45.2896 10.2965C45.2896 11.0695 44.6622 11.6969 43.8892 11.6969H39.688V14.4977H43.8892C44.6622 14.4977 45.2896 15.125 45.2896 15.898C45.2896 16.6711 44.6622 17.2984 43.8892 17.2984H39.688V20.0992H43.8892C44.6622 20.0992 45.2896 20.7266 45.2896 21.4996C45.2896 22.2726 44.6622 22.9 43.8892 22.9H39.688V28.5016H46.7833C47.5563 28.5016 48.1837 27.8742 48.1837 27.1012V4.60156C48.1837 3.82855 47.5563 3.20117 46.7833 3.20117Z" fill="#225EC9"/>
<path d="M15.8778 33.2048C15.8775 30.5456 15.8767 27.7431 15.8748 25.751C15.8729 22.6009 18.4203 20.0536 21.5679 20.0536C21.5808 20.0536 24.7578 20.0525 24.7692 20.0525C25.2711 20.0525 25.6794 19.6442 25.6794 19.1423C25.6794 18.6404 25.2711 18.232 24.7692 18.232H23.8216C21.7624 18.232 20.0872 16.5568 20.0872 14.4977C20.0872 12.7625 21.2769 11.3 22.8833 10.8828V10.2965C22.8833 9.5231 23.5103 8.89609 24.2837 8.89609C25.0571 8.89609 25.6841 9.5231 25.6841 10.2965V10.7633H27.0891C27.8625 10.7633 28.4895 11.3903 28.4895 12.1637C28.4895 12.9371 27.8625 13.5641 27.0891 13.5641H23.8216C23.3068 13.5641 22.888 13.9829 22.888 14.4977C22.888 15.0124 23.3068 15.4312 23.8216 15.4312H24.7692C26.8154 15.4312 28.4802 17.096 28.4802 19.1423C28.4802 20.6826 27.5367 22.0065 26.1975 22.5671C27.2906 24.2407 27.0947 25.6163 27.0925 28.0277C28.6112 28.0299 29.9901 28.6462 30.9988 29.6435C33.0312 29.0003 35.3489 29.5498 36.8744 31.2893C36.8787 31.2882 36.8829 31.2874 36.8872 31.2864V1.80078C36.8872 1.02739 36.2602 0.400391 35.4868 0.400391H13.0806C12.3072 0.400391 11.6802 1.02739 11.6802 1.80078V32.7354C13.0738 32.3414 14.5822 32.5016 15.8778 33.2048Z" fill="#225EC9"/>
<path d="M38.2209 33.9099C36.6909 33.9455 35.4869 35.236 35.4869 36.7665V35.0437C35.4869 33.5176 34.2904 32.2276 32.7648 32.1857C31.1821 32.1424 29.8853 33.4125 29.8853 34.9855V33.6897C29.8853 32.1445 28.6215 30.8239 27.0763 30.8284C25.5741 30.8326 24.3506 32.0197 24.2869 33.5073C24.2905 29.5189 24.294 25.5895 24.294 25.5803C24.294 24.0754 23.0737 22.8542 21.5679 22.8542C19.9696 22.8542 18.6747 24.1501 18.6757 25.7484C18.6803 30.8169 18.6785 40.9931 18.6785 40.9931L15.4884 36.5035C14.592 35.2425 12.8413 34.9475 11.5822 35.8434C10.3219 36.7387 10.0259 38.4874 10.9222 39.7487L16.9991 48.2004H39.6881C40.4615 48.2004 41.0885 47.5734 41.0885 46.8V36.7098C41.0885 35.1458 39.8015 33.873 38.2209 33.9099Z" fill="#225EC9"/>
</g>
<defs>
<clipPath id="clip0_81_1084">
<rect width="47.8" height="47.8" fill="white" transform="translate(0.383789 0.400391)"/>
</clipPath>
</defs>
</svg>
