<svg width="49" height="49" viewBox="0 0 49 49" fill="none" xmlns="http://www.w3.org/2000/svg">
<g clip-path="url(#clip0_81_1037)">
<path d="M16.7959 39.7976C18.0849 39.7976 19.1299 38.7526 19.1299 37.4636C19.1299 36.1746 18.0849 35.1296 16.7959 35.1296C15.5069 35.1296 14.4619 36.1746 14.4619 37.4636C14.4619 38.7526 15.5069 39.7976 16.7959 39.7976Z" fill="#225EC9"/>
<path d="M41.0061 4.70666C40.036 3.73554 38.7459 3.20068 37.3733 3.20068H36.4438V5.06787C36.4438 7.12701 34.7686 8.80225 32.7095 8.80225H15.9048C13.8457 8.80225 12.1704 7.12701 12.1704 5.06787V3.20068H11.2327C8.40457 3.20068 6.10112 5.50162 6.09794 8.32975L6.05957 43.0594C6.05808 44.432 6.59144 45.7228 7.56145 46.6939C8.53145 47.665 9.82168 48.1999 11.1942 48.1999H37.3349C40.1631 48.1999 42.4666 45.899 42.4696 43.0708L42.5081 8.34114C42.5096 6.96848 41.9762 5.67769 41.0061 4.70666ZM11.661 37.4636C11.661 34.6323 13.9645 32.3288 16.7958 32.3288C19.6271 32.3288 21.9306 34.6323 21.9306 37.4636C21.9306 40.2949 19.6271 42.5983 16.7958 42.5983C13.9645 42.5983 11.661 40.2949 11.661 37.4636ZM27.9143 14.5135C27.3674 13.9667 27.3674 13.08 27.9143 12.5331C28.4612 11.9863 29.3479 11.9863 29.8948 12.5331L32.2053 14.8436L34.5159 12.5331C35.0627 11.9863 35.9494 11.9863 36.4963 12.5331C37.0432 13.0799 37.0432 13.9666 36.4963 14.5135L34.1858 16.8241L36.4963 19.1346C37.0432 19.6814 37.0432 20.5681 36.4963 21.115C36.2229 21.3885 35.8645 21.5253 35.5061 21.5253C35.1478 21.5253 34.7893 21.3885 34.516 21.115L32.2054 18.8045L29.8949 21.115C29.6214 21.3885 29.263 21.5253 28.9047 21.5253C28.5464 21.5253 28.1879 21.3885 27.9145 21.115C27.3676 20.5682 27.3676 19.6815 27.9145 19.1346L30.2251 16.8241L27.9143 14.5135ZM15.4112 12.9736C15.958 12.4268 16.8447 12.4268 17.3916 12.9736L20.7041 16.2861C21.251 16.8329 21.251 17.7197 20.7041 18.2666C20.4307 18.54 20.0723 18.6768 19.7139 18.6768C19.3556 18.6768 18.9971 18.54 18.7238 18.2666L17.8094 17.3522V22.1888C17.8094 23.922 18.8981 25.5002 20.5183 26.1159L28.6578 29.2089C31.3582 30.235 33.1724 32.8654 33.1724 35.7542V41.1979C33.1724 41.9713 32.5454 42.5983 31.7721 42.5983C30.9987 42.5983 30.3717 41.9713 30.3717 41.1979V35.7542C30.3717 34.0209 29.2831 32.4427 27.6628 31.827L19.5234 28.734C16.823 27.7079 15.0086 25.0775 15.0086 22.1888V17.3371L14.0943 18.2514C13.5475 18.7982 12.6607 18.7982 12.1138 18.2514C11.5669 17.7046 11.5669 16.8179 12.1138 16.271L15.4112 12.9736Z" fill="#225EC9"/>
<path d="M14.9712 5.06787C14.9712 5.58349 15.3892 6.00146 15.9048 6.00146H32.7095C33.2251 6.00146 33.6431 5.58349 33.6431 5.06787V1.3335C33.6431 0.817872 33.2251 0.399902 32.7095 0.399902H15.9048C15.3892 0.399902 14.9712 0.817872 14.9712 1.3335V5.06787Z" fill="#225EC9"/>
</g>
<defs>
<clipPath id="clip0_81_1037">
<rect width="47.8" height="47.8" fill="white" transform="translate(0.383789 0.399902)"/>
</clipPath>
</defs>
</svg>
