<svg width="49" height="48" viewBox="0 0 49 48" fill="none" xmlns="http://www.w3.org/2000/svg">
<g clip-path="url(#clip0_81_1041)">
<path d="M19.2004 39.5578L17.9507 42.3695H30.5419L29.2921 39.5578H19.2004Z" fill="#225EC9"/>
<path d="M14.3673 24.0789C13.5921 24.0789 12.9614 24.7096 12.9614 25.4848C13.0321 27.3473 15.7028 27.3468 15.7732 25.4848C15.7732 24.7095 15.1425 24.0789 14.3673 24.0789Z" fill="#225EC9"/>
<path d="M0.383789 0.207016V35.3541H48.1838V0.207016H0.383789ZM5.93206 5.80215H18.585V8.61391H5.93206V5.80215ZM5.93206 11.4257H18.585V14.2374H5.93206V11.4257ZM5.93206 17.0492H11.5556V19.861H5.93206V17.0492ZM25.6144 16.2256L18.1728 23.6672C19.5076 26.451 17.4676 29.7021 14.3674 29.7021C12.0417 29.7021 10.1497 27.81 10.1497 25.4844C10.1497 22.3834 13.4018 20.3447 16.1846 21.679L25.6144 12.2492L31.9409 18.5756L37.685 12.8315H35.4556V10.0197H42.485V17.0491H39.6732V14.8197L31.9409 22.552L25.6144 16.2256ZM42.6355 27.7707L40.6473 29.7589L38.8297 27.9413L37.012 29.7589L35.0238 27.7707L36.8415 25.9531L35.0238 24.1354L37.012 22.1472L38.8297 23.9649L40.6473 22.1472L42.6355 24.1354L40.8179 25.9531L42.6355 27.7707Z" fill="#225EC9"/>
<path d="M6.09473 47.9931H12.3743L16.7481 38.1519H10.4685L6.09473 47.9931Z" fill="#225EC9"/>
<path d="M31.7441 38.1519L36.118 47.9931H42.3976L38.0237 38.1519H31.7441Z" fill="#225EC9"/>
</g>
<defs>
<clipPath id="clip0_81_1041">
<rect width="47.8" height="47.8" fill="white" transform="translate(0.383789 0.200195)"/>
</clipPath>
</defs>
</svg>
