<svg width="49" height="48" viewBox="0 0 49 48" fill="none" xmlns="http://www.w3.org/2000/svg">
<path d="M45.4303 0.20166H3.13727C1.61656 0.20166 0.383789 1.43443 0.383789 2.95514V45.2482C0.383789 46.7689 1.61656 48.0017 3.13727 48.0017H45.4303C46.951 48.0017 48.1838 46.7689 48.1838 45.2482V2.95514C48.1838 1.43443 46.951 0.20166 45.4303 0.20166Z" fill="#46AD44"/>
<path d="M1.21631 47.1476C1.74968 47.6791 2.47194 47.9776 3.2249 47.9777H45.3218C46.0739 47.9749 46.7944 47.6751 47.3265 47.1435C47.8585 46.6119 48.159 45.8916 48.1624 45.1395V3.04268C48.1625 2.67036 48.0891 2.30169 47.9463 1.95784C47.8035 1.61399 47.5942 1.30175 47.3304 1.03906" fill="#FABD10"/>
<path d="M48.1622 24.5378H48.0751C41.8805 24.5378 35.9396 26.9983 31.5588 31.378C27.1781 35.7577 24.7163 41.6981 24.7148 47.8926V47.9798H45.3161C46.0697 47.9785 46.7921 47.6789 47.3254 47.1465C47.8588 46.6141 48.1596 45.8922 48.1622 45.1387V24.5378Z" fill="#2864AE"/>
<path d="M45.5937 44.6667C45.6279 44.6332 45.6551 44.5932 45.6736 44.5491C45.6922 44.505 45.7017 44.4576 45.7017 44.4097C45.7017 44.3619 45.6922 44.3145 45.6736 44.2704C45.6551 44.2263 45.6279 44.1863 45.5937 44.1528L43.3591 41.9182C43.3247 41.8961 43.298 41.864 43.2826 41.8262C43.2671 41.7884 43.2636 41.7468 43.2726 41.707C43.2815 41.6671 43.3025 41.631 43.3327 41.6035C43.3628 41.576 43.4007 41.5584 43.4412 41.5532L45.4961 40.8596C45.6808 40.7978 45.6808 40.6953 45.4961 40.6286L38.5965 38.1624C38.4118 38.0957 38.3142 38.1932 38.3809 38.378L40.8471 45.2726C40.9138 45.4573 41.0218 45.4573 41.0836 45.2726L41.7722 43.2177C41.7775 43.1772 41.795 43.1394 41.8225 43.1092C41.85 43.079 41.8861 43.058 41.926 43.0491C41.9658 43.0401 42.0074 43.0436 42.0452 43.0591C42.083 43.0745 42.1151 43.1012 42.1372 43.1356L44.3718 45.3652C44.4049 45.4001 44.4448 45.4278 44.489 45.4468C44.5331 45.4657 44.5807 45.4755 44.6287 45.4755C44.6768 45.4755 44.7244 45.4657 44.7685 45.4468C44.8127 45.4278 44.8525 45.4001 44.8857 45.3652L45.5937 44.6667Z" fill="white"/>
</svg>
