<svg width="49" height="49" viewBox="0 0 49 49" fill="none" xmlns="http://www.w3.org/2000/svg">
<g clip-path="url(#clip0_81_798)">
<path d="M0.383789 36.2422C0.383789 38.667 2.35637 40.6396 4.78116 40.6396H22.8834V43.4404H13.8582C13.0847 43.4404 12.4578 44.0673 12.4578 44.8408C12.4578 45.6143 13.0847 46.2412 13.8582 46.2412H34.7094C35.4829 46.2412 36.1098 45.6143 36.1098 44.8408C36.1098 44.0673 35.4829 43.4404 34.7094 43.4404H25.6842V40.6396H43.7864C46.2112 40.6396 48.1838 38.667 48.1838 36.2422V35.4954H0.383789V36.2422Z" fill="#225EC9"/>
<path d="M24.2839 24.7039C24.6941 23.9476 25.2948 22.1176 25.4388 19.1155H23.1289C23.273 22.1176 23.8736 23.9476 24.2839 24.7039Z" fill="#225EC9"/>
<path d="M17.125 16.3148H20.3299C20.4152 14.4917 20.669 12.6467 21.1391 11.1348C19.0925 12.1169 17.5717 14.026 17.125 16.3148Z" fill="#225EC9"/>
<path d="M24.2838 10.804C23.8771 11.5537 23.2831 13.3586 23.1328 16.3147H25.4347C25.2845 13.3586 24.6904 11.5537 24.2838 10.804Z" fill="#225EC9"/>
<path d="M17.125 19.1155C17.5699 21.394 19.0786 23.2962 21.111 24.282C20.6522 22.7656 20.4064 20.9276 20.3262 19.1155H17.125Z" fill="#225EC9"/>
<path d="M27.4285 11.1348C27.8985 12.6467 28.1524 14.4917 28.2377 16.3148H31.4429C30.9958 14.026 29.4751 12.1165 27.4285 11.1348Z" fill="#225EC9"/>
<path d="M27.4563 24.2823C29.4891 23.2962 30.9978 21.394 31.4427 19.1155H28.2415C28.1609 20.9276 27.9154 22.7656 27.4563 24.2823Z" fill="#225EC9"/>
<path d="M43.7864 2.36206H4.78116C2.35637 2.36206 0.383789 4.33464 0.383789 6.75943V32.6944H48.1838V6.75943C48.1838 4.33464 46.2112 2.36206 43.7864 2.36206ZM24.2838 27.8094C18.7176 27.8094 14.1893 23.2811 14.1893 17.7149C14.1893 12.1487 18.7176 7.62045 24.2838 7.62045C29.85 7.62045 34.3783 12.1487 34.3783 17.7149C34.3783 23.2811 29.85 27.8094 24.2838 27.8094Z" fill="#225EC9"/>
</g>
<defs>
<clipPath id="clip0_81_798">
<rect width="47.8" height="47.8" fill="white" transform="translate(0.383789 0.401611)"/>
</clipPath>
</defs>
</svg>
