<svg width="49" height="48" viewBox="0 0 49 48" fill="none" xmlns="http://www.w3.org/2000/svg">
<g clip-path="url(#clip0_81_1092)">
<path d="M41.2176 6.95929C32.9795 -1.28033 19.8116 -2.2915 10.4169 4.39695C7.56589 2.79873 4.13661 4.69299 4.13661 7.94974C4.13661 8.71856 4.35601 9.44956 4.74037 10.0933C-1.89496 19.485 -0.868474 32.6102 7.3492 40.8277C11.9668 45.4453 18.1705 47.8 24.3054 47.8C29.0896 47.8 33.9735 46.3471 38.0885 43.4385C38.731 43.8215 39.4603 44.0402 40.2271 44.0402C42.5499 44.0402 44.4301 42.1616 44.4301 39.8372C44.4301 39.0681 44.2112 38.3374 43.8266 37.6935C50.4619 28.3018 49.4352 15.1769 41.2176 6.95929ZM22.8824 44.9486C17.9561 44.617 13.048 42.5652 9.33029 38.8467C5.61263 35.129 3.56115 30.2208 3.22944 25.2946H8.87759C9.06739 27.4206 9.72744 29.5975 10.8128 31.5276C9.70018 33.1533 9.84554 35.3998 11.3114 36.8657C12.7837 38.3378 15.0275 38.4676 16.6373 37.3741C18.5697 38.4625 20.7541 39.0982 22.8824 39.2885V44.9486ZM22.8824 36.4776C21.3312 36.307 19.7203 35.8366 18.2962 35.0811C18.7679 33.4796 18.2884 31.9543 17.2561 30.9221C16.1772 29.8423 14.5625 29.5574 13.1321 29.9466C12.356 28.5036 11.8737 26.8699 11.7004 25.2944H20.3384C20.7617 26.4814 21.6954 27.4151 22.8823 27.8384L22.8824 36.4776ZM22.8824 19.9486C21.6955 20.3719 20.7618 21.3055 20.3385 22.4925H11.6808C12.3163 16.8214 16.7214 12.0167 22.8824 11.3318V19.9486ZM22.8824 8.52988C15.145 9.23278 9.52859 15.2762 8.86676 22.4926H3.24335C3.48497 18.8066 4.69528 15.0776 6.90061 11.8866C7.35705 12.0531 7.83934 12.1529 8.33975 12.1529C10.6586 12.1529 12.5428 10.2752 12.5428 7.94984C12.5428 7.44943 12.4429 6.96695 12.2765 6.51052C15.4676 4.30471 19.1966 3.09422 22.8824 2.8526V8.52988ZM25.6846 11.3319C27.987 11.5879 30.2987 12.4757 32.2024 13.9937L26.0843 20.1119C25.9544 20.0498 25.8215 19.9974 25.6846 19.9487V11.3319ZM25.6846 8.52969V2.8385C30.1688 3.14043 34.6441 4.88326 38.2001 7.99577L34.1837 12.0122C31.7214 9.96463 28.706 8.80417 25.6846 8.52969ZM25.6845 27.8386C26.8715 27.4153 27.8052 26.4722 28.2285 25.2853H36.8453C36.1584 31.463 31.3368 35.8631 25.6845 36.4969V27.8386ZM41.6394 35.9386C38.781 34.9665 36.0241 36.9743 36.0241 39.8373C36.0241 40.3377 36.1239 40.8202 36.2905 41.2766C33.0994 43.4825 29.3703 44.6929 25.6844 44.9345V39.25C33.2408 38.5522 38.965 32.7819 39.6461 25.2853H45.3236C45.081 28.9858 43.8616 32.7382 41.6394 35.9386Z" fill="#225EC9"/>
</g>
<defs>
<clipPath id="clip0_81_1092">
<rect width="47.8" height="47.8" fill="white" transform="translate(0.383789)"/>
</clipPath>
</defs>
</svg>
