<svg width="49" height="49" viewBox="0 0 49 49" fill="none" xmlns="http://www.w3.org/2000/svg">
<g clip-path="url(#clip0_81_1114)">
<path d="M45.6057 37.3984H36.6298C35.5359 37.3984 34.646 38.2884 34.646 39.3822V39.4589C34.646 40.5528 35.5359 41.4426 36.6298 41.4426C39.2678 41.4426 41.4141 43.5888 41.4141 46.227V46.3037C41.4141 47.1955 42.0058 47.9514 42.817 48.2003H48.1822C48.1822 44.3127 47.2527 40.6427 45.6057 37.3984Z" fill="#225EC9"/>
<path d="M13.0346 20.0746C16.9081 20.0746 20.0594 16.9233 20.0594 13.0498V12.7192L15.3003 3.20099H22.8833V19.0481C22.0397 19.5335 21.4713 20.4434 21.4713 21.4866V24.4675C17.316 24.9548 13.4873 26.5089 10.2645 28.847V33.7857C10.2645 34.7673 11.0631 35.5658 12.0447 35.5658H15.2251C17.751 35.5658 19.8059 37.6207 19.8059 40.1465C19.8059 41.1281 20.6044 41.9267 21.5861 41.9267C24.1119 41.9267 26.1668 43.9816 26.1668 46.5073C26.1668 47.1053 26.0504 47.6762 25.8411 48.2004H39.0063C38.7539 47.6185 38.6133 46.9774 38.6133 46.3038V46.2271C38.6133 45.1333 37.7234 44.2433 36.6296 44.2433C33.9915 44.2433 31.8452 42.0971 31.8452 39.4591V39.3823C31.8452 36.7442 33.9915 34.598 36.6296 34.598H43.9334C40.1228 29.1046 34.0686 25.2851 27.0959 24.4675V21.4866C27.0959 20.4434 26.5274 19.5336 25.6839 19.0481V3.20099H33.2669L28.5078 12.7192V13.0498C28.5078 16.9233 31.6592 20.0746 35.5327 20.0746C39.4062 20.0746 42.5575 16.9233 42.5575 13.0498V12.7192L36.3981 0.400391H12.1691L6.00977 12.7192V13.0498C6.00977 16.9233 9.161 20.0746 13.0346 20.0746ZM38.8915 11.6495H32.1739L35.5327 4.93186L38.8915 11.6495ZM13.0346 4.93186L16.3934 11.6495H9.67575L13.0346 4.93186Z" fill="#225EC9"/>
<path d="M23.3662 46.5073C23.3662 45.5257 22.5677 44.7272 21.5861 44.7272C19.0602 44.7272 17.0053 42.6723 17.0053 40.1465C17.0053 39.1649 16.2067 38.3664 15.2252 38.3664H12.0447C9.51885 38.3664 7.46396 36.3114 7.46396 33.7857V31.226C3.09334 35.5562 0.385254 41.5614 0.385254 48.2004H22.134C22.8481 47.9687 23.3662 47.2977 23.3662 46.5073Z" fill="#225EC9"/>
</g>
<defs>
<clipPath id="clip0_81_1114">
<rect width="47.8" height="47.8" fill="white" transform="translate(0.383789 0.400391)"/>
</clipPath>
</defs>
</svg>
