<svg width="49" height="49" viewBox="0 0 49 49" fill="none" xmlns="http://www.w3.org/2000/svg">
<g clip-path="url(#clip0_81_1096)">
<path d="M15.2841 24.7998C12.8578 24.7998 10.8838 26.7739 10.8838 29.2002C10.8838 31.6265 12.8578 33.6005 15.2841 33.6005C17.7104 33.6005 19.6844 31.6265 19.6844 29.2002C19.6844 26.7739 17.7104 24.7998 15.2841 24.7998Z" fill="#225EC9"/>
<path d="M15.2841 9.601H27.2839C29.7102 9.601 31.6842 7.62701 31.6842 5.20069C31.6842 2.77438 29.7103 0.800293 27.2839 0.800293H15.2841C12.8578 0.800293 10.8838 2.77438 10.8838 5.20069C10.8838 7.62701 12.8578 9.601 15.2841 9.601Z" fill="#225EC9"/>
<path d="M5.23645 38.3746C4.47016 38.1132 3.18479 37.5481 3.18479 36.7001C3.18479 35.8181 3.90235 35.1005 4.78432 35.1005C5.21106 35.1005 5.6126 35.2671 5.91508 35.5695C6.46189 36.1163 7.34862 36.1162 7.89552 35.5693C8.44232 35.0224 8.44223 34.1358 7.89542 33.5889C7.40622 33.0997 6.82188 32.7411 6.1848 32.5277V32.2001C6.1848 31.4267 5.5578 30.7997 4.78441 30.7997C4.01102 30.7997 3.38402 31.4267 3.38402 32.2001V32.5295C1.6424 33.1159 0.384102 34.7633 0.384102 36.7001C0.384102 38.0589 1.06908 39.9123 4.33236 41.0254C5.09856 41.2867 6.38403 41.8518 6.38403 42.7C6.38403 43.5819 5.66647 44.2995 4.7845 44.2995C3.60117 44.2995 2.57618 43.6645 2.54444 43.6445C1.89792 43.2266 1.03444 43.4092 0.612553 44.0543C0.189261 44.7016 0.370845 45.5695 1.01811 45.9929C1.14853 46.0782 2.07493 46.6622 3.38411 46.9461V47.1999C3.38411 47.9733 4.01111 48.6003 4.7845 48.6003C5.55789 48.6003 6.18489 47.9733 6.18489 47.1999V46.8705C7.92651 46.2841 9.18481 44.6367 9.18481 42.7C9.18462 41.3411 8.49964 39.4877 5.23645 38.3746Z" fill="#225EC9"/>
<path d="M43.7834 0.800293H32.5112C32.5112 0.800293 34.4848 2.50476 34.4848 5.20069C34.4848 7.89663 32.5112 9.6011 32.5112 9.6011H43.7834C46.1879 9.6011 48.1837 7.65903 48.1837 5.20069C48.1837 2.74235 46.1879 0.800293 43.7834 0.800293Z" fill="#225EC9"/>
<path d="M25.6841 17.2005C25.6841 14.7741 23.7101 12.8 21.2838 12.8H15.2839C12.8575 12.8 10.8835 14.7741 10.8835 17.2005C10.8835 19.6268 12.8575 21.6008 15.2839 21.6008H21.2838C23.7101 21.6008 25.6841 19.6268 25.6841 17.2005Z" fill="#225EC9"/>
<path d="M26.5112 21.6009H43.7834C46.1878 21.6009 48.1837 19.6588 48.1837 17.2005C48.1837 14.7421 46.1878 12.8 43.7834 12.8H26.5112C26.5112 12.8 28.4848 14.5045 28.4848 17.2005C28.4848 19.8964 26.5112 21.6009 26.5112 21.6009Z" fill="#225EC9"/>
<path d="M43.7833 24.7998H20.5112C20.5112 24.7998 22.4848 26.5043 22.4848 29.2002C22.4848 31.8961 20.5112 33.6006 20.5112 33.6006H43.7832C46.1877 33.6006 48.1835 31.6585 48.1835 29.2002C48.1835 26.7419 46.1878 24.7998 43.7833 24.7998Z" fill="#225EC9"/>
</g>
<defs>
<clipPath id="clip0_81_1096">
<rect width="47.8" height="47.8" fill="white" transform="translate(0.383789 0.800293)"/>
</clipPath>
</defs>
</svg>
