<svg width="49" height="48" viewBox="0 0 49 48" fill="none" xmlns="http://www.w3.org/2000/svg">
<g clip-path="url(#clip0_81_1137)">
<path d="M6.07861 1.60107V38.1979C6.07861 38.972 6.70496 39.5983 7.479 39.5983H32.686C33.4601 39.5983 34.0864 38.972 34.0864 38.1979V1.60107C34.0864 0.827032 33.4601 0.200684 32.686 0.200684H7.479C6.70496 0.200684 6.07861 0.827032 6.07861 1.60107ZM28.4849 32.503H22.8833C22.1093 32.503 21.4829 31.8767 21.4829 31.1026C21.4829 30.3286 22.1093 29.7022 22.8833 29.7022H28.4849C29.2589 29.7022 29.8853 30.3286 29.8853 31.1026C29.8853 31.8767 29.2589 32.503 28.4849 32.503ZM11.6802 7.296H20.0825C20.8566 7.296 21.4829 7.92234 21.4829 8.69639C21.4829 9.47043 20.8566 10.0968 20.0825 10.0968H11.6802C10.9061 10.0968 10.2798 9.47043 10.2798 8.69639C10.2798 7.92234 10.9061 7.296 11.6802 7.296ZM11.6802 12.8976H28.4849C29.2589 12.8976 29.8853 13.5239 29.8853 14.2979C29.8853 15.072 29.2589 15.6983 28.4849 15.6983H11.6802C10.9061 15.6983 10.2798 15.072 10.2798 14.2979C10.2798 13.5239 10.9061 12.8976 11.6802 12.8976ZM11.6802 18.4991H28.4849C29.2589 18.4991 29.8853 19.1255 29.8853 19.8995C29.8853 20.6736 29.2589 21.2999 28.4849 21.2999H11.6802C10.9061 21.2999 10.2798 20.6736 10.2798 19.8995C10.2798 19.1255 10.9061 18.4991 11.6802 18.4991ZM11.6802 24.1007H28.4849C29.2589 24.1007 29.8853 24.727 29.8853 25.5011C29.8853 26.2751 29.2589 26.9015 28.4849 26.9015H11.6802C10.9061 26.9015 10.2798 26.2751 10.2798 25.5011C10.2798 24.727 10.9061 24.1007 11.6802 24.1007Z" fill="#225EC9"/>
<path d="M15.8813 48.0007H41.0884C41.8624 48.0007 42.4888 47.3744 42.4888 46.6003V10.0968C42.4888 9.32276 41.8624 8.69641 41.0884 8.69641H36.8872V38.198C36.8872 40.5146 35.0027 42.3991 32.686 42.3991H14.481V46.6003C14.481 47.3744 15.1073 48.0007 15.8813 48.0007Z" fill="#225EC9"/>
</g>
<defs>
<clipPath id="clip0_81_1137">
<rect width="47.8" height="47.8" fill="white" transform="translate(0.383789 0.200684)"/>
</clipPath>
</defs>
</svg>
