<svg width="49" height="48" viewBox="0 0 49 48" fill="none" xmlns="http://www.w3.org/2000/svg">
<g clip-path="url(#clip0_81_1090)">
<path d="M20.4561 46.133C20.4561 47.1643 19.6202 48.0002 18.5889 48.0002H10.3733C6.2549 48.0002 2.90454 44.6498 2.90454 40.5314V7.66895C2.90454 3.55056 6.2549 0.200195 10.3733 0.200195H33.3295C37.4475 0.200195 40.7982 3.55056 40.7982 7.66895V25.5006C40.7982 26.5319 39.962 27.3678 38.931 27.3678C37.8997 27.3678 37.0639 26.5319 37.0639 25.5006V7.66895C37.0639 5.60993 35.3885 3.93457 33.3295 3.93457H10.3733C8.31428 3.93457 6.63892 5.60993 6.63892 7.66895V40.5314C6.63892 42.5905 8.31428 44.2658 10.3733 44.2658H18.5889C19.6202 44.2658 20.4561 45.1017 20.4561 46.133ZM31.4623 11.4033H12.2303C11.1989 11.4033 10.3631 12.2392 10.3631 13.2705C10.3631 14.3018 11.1989 15.1377 12.2303 15.1377H31.4623C32.4933 15.1377 33.3295 14.3018 33.3295 13.2705C33.3295 12.2392 32.4933 11.4033 31.4623 11.4033ZM33.3295 20.7393C33.3295 19.7079 32.4933 18.8721 31.4623 18.8721H12.2303C11.1989 18.8721 10.3631 19.7079 10.3631 20.7393C10.3631 21.7706 11.1989 22.6064 12.2303 22.6064H31.4623C32.4933 22.6064 33.3295 21.7706 33.3295 20.7393ZM12.2303 26.3408C11.1989 26.3408 10.3631 27.1767 10.3631 28.208C10.3631 29.2393 11.1989 30.0752 12.2303 30.0752H22.0432C23.0745 30.0752 23.9104 29.2393 23.9104 28.208C23.9104 27.1767 23.0745 26.3408 22.0432 26.3408H12.2303ZM45.417 40.0176C45.3513 40.1113 45.1263 40.4297 44.9866 40.6058C44.3612 41.3925 42.8974 43.2338 40.8606 44.8592C38.2491 46.9433 35.5617 48.0002 32.8729 48.0002C30.1841 48.0002 27.4967 46.9433 24.8852 44.8592C22.8484 43.2338 21.3846 41.3921 20.7595 40.6058C20.6195 40.4297 20.3945 40.111 20.3288 40.0176C19.8763 39.3736 19.8763 38.5147 20.3288 37.8707C20.3945 37.7773 20.6195 37.4586 20.7595 37.2825C21.3846 36.4962 22.8484 34.6549 24.8852 33.0295C27.4967 30.9453 30.1841 29.8885 32.8729 29.8885C35.5617 29.8885 38.2491 30.9453 40.8606 33.0295C42.8974 34.6549 44.3612 36.4966 44.9863 37.2828C45.1263 37.459 45.3513 37.7777 45.417 37.8711C45.8695 38.5151 45.8695 39.3736 45.417 40.0176ZM41.5221 38.9443C38.5532 35.4124 35.6463 33.6229 32.8729 33.6229C30.0998 33.6229 27.1926 35.412 24.2237 38.9443C27.1926 42.4763 30.0995 44.2658 32.8729 44.2658C35.6463 44.2658 38.5532 42.4767 41.5221 38.9443ZM32.9663 35.3967C31.0068 35.3967 29.4186 36.9849 29.4186 38.9443C29.4186 40.9038 31.0068 42.492 32.9663 42.492C34.9257 42.492 36.5139 40.9038 36.5139 38.9443C36.5139 36.9849 34.9257 35.3967 32.9663 35.3967Z" fill="#225EC9"/>
</g>
<defs>
<clipPath id="clip0_81_1090">
<rect width="47.8" height="47.8" fill="white" transform="translate(0.383789 0.200195)"/>
</clipPath>
</defs>
</svg>
