<svg width="49" height="48" viewBox="0 0 49 48" fill="none" xmlns="http://www.w3.org/2000/svg">
<g clip-path="url(#clip0_81_1141)">
<path d="M6.07861 1.40137V37.9982C6.07861 38.7723 6.70496 39.3986 7.479 39.3986H32.686C33.4601 39.3986 34.0864 38.7723 34.0864 37.9982V1.40137C34.0864 0.627325 33.4601 0.000976562 32.686 0.000976562H7.479C6.70496 0.000976562 6.07861 0.627325 6.07861 1.40137ZM28.4849 32.3033H22.8833C22.1093 32.3033 21.4829 31.677 21.4829 30.9029C21.4829 30.1289 22.1093 29.5025 22.8833 29.5025H28.4849C29.2589 29.5025 29.8853 30.1289 29.8853 30.9029C29.8853 31.677 29.2589 32.3033 28.4849 32.3033ZM11.6802 7.09629H20.0825C20.8566 7.09629 21.4829 7.72264 21.4829 8.49668C21.4829 9.27072 20.8566 9.89707 20.0825 9.89707H11.6802C10.9061 9.89707 10.2798 9.27072 10.2798 8.49668C10.2798 7.72264 10.9061 7.09629 11.6802 7.09629ZM11.6802 12.6979H28.4849C29.2589 12.6979 29.8853 13.3242 29.8853 14.0982C29.8853 14.8723 29.2589 15.4986 28.4849 15.4986H11.6802C10.9061 15.4986 10.2798 14.8723 10.2798 14.0982C10.2798 13.3242 10.9061 12.6979 11.6802 12.6979ZM11.6802 18.2994H28.4849C29.2589 18.2994 29.8853 18.9258 29.8853 19.6998C29.8853 20.4738 29.2589 21.1002 28.4849 21.1002H11.6802C10.9061 21.1002 10.2798 20.4738 10.2798 19.6998C10.2798 18.9258 10.9061 18.2994 11.6802 18.2994ZM11.6802 23.901H28.4849C29.2589 23.901 29.8853 24.5273 29.8853 25.3014C29.8853 26.0754 29.2589 26.7018 28.4849 26.7018H11.6802C10.9061 26.7018 10.2798 26.0754 10.2798 25.3014C10.2798 24.5273 10.9061 23.901 11.6802 23.901Z" fill="#225EC9"/>
<path d="M15.8813 47.801H41.0884C41.8624 47.801 42.4888 47.1747 42.4888 46.4006V9.89709C42.4888 9.12305 41.8624 8.4967 41.0884 8.4967H36.8872V37.9983C36.8872 40.3149 35.0027 42.1994 32.686 42.1994H14.481V46.4006C14.481 47.1747 15.1073 47.801 15.8813 47.801Z" fill="#225EC9"/>
</g>
<defs>
<clipPath id="clip0_81_1141">
<rect width="47.8" height="47.8" fill="white" transform="translate(0.383789 0.000976562)"/>
</clipPath>
</defs>
</svg>
