<svg width="49" height="49" viewBox="0 0 49 49" fill="none" xmlns="http://www.w3.org/2000/svg">
<g clip-path="url(#clip0_81_1125)">
<path d="M6.07861 2.20117V38.798C6.07861 39.5721 6.70496 40.1984 7.479 40.1984H32.686C33.4601 40.1984 34.0864 39.5721 34.0864 38.798V2.20117C34.0864 1.42713 33.4601 0.800781 32.686 0.800781H7.479C6.70496 0.800781 6.07861 1.42713 6.07861 2.20117ZM28.4849 33.1031H22.8833C22.1093 33.1031 21.4829 32.4768 21.4829 31.7027C21.4829 30.9287 22.1093 30.3023 22.8833 30.3023H28.4849C29.2589 30.3023 29.8853 30.9287 29.8853 31.7027C29.8853 32.4768 29.2589 33.1031 28.4849 33.1031ZM11.6802 7.89609H20.0825C20.8566 7.89609 21.4829 8.52244 21.4829 9.29648C21.4829 10.0705 20.8566 10.6969 20.0825 10.6969H11.6802C10.9061 10.6969 10.2798 10.0705 10.2798 9.29648C10.2798 8.52244 10.9061 7.89609 11.6802 7.89609ZM11.6802 13.4977H28.4849C29.2589 13.4977 29.8853 14.124 29.8853 14.898C29.8853 15.6721 29.2589 16.2984 28.4849 16.2984H11.6802C10.9061 16.2984 10.2798 15.6721 10.2798 14.898C10.2798 14.124 10.9061 13.4977 11.6802 13.4977ZM11.6802 19.0992H28.4849C29.2589 19.0992 29.8853 19.7256 29.8853 20.4996C29.8853 21.2737 29.2589 21.9 28.4849 21.9H11.6802C10.9061 21.9 10.2798 21.2737 10.2798 20.4996C10.2798 19.7256 10.9061 19.0992 11.6802 19.0992ZM11.6802 24.7008H28.4849C29.2589 24.7008 29.8853 25.3271 29.8853 26.1012C29.8853 26.8752 29.2589 27.5016 28.4849 27.5016H11.6802C10.9061 27.5016 10.2798 26.8752 10.2798 26.1012C10.2798 25.3271 10.9061 24.7008 11.6802 24.7008Z" fill="#225EC9"/>
<path d="M15.8813 48.6008H41.0884C41.8624 48.6008 42.4888 47.9745 42.4888 47.2004V10.6969C42.4888 9.92286 41.8624 9.29651 41.0884 9.29651H36.8872V38.7981C36.8872 41.1147 35.0027 42.9992 32.686 42.9992H14.481V47.2004C14.481 47.9745 15.1073 48.6008 15.8813 48.6008Z" fill="#225EC9"/>
</g>
<defs>
<clipPath id="clip0_81_1125">
<rect width="47.8" height="47.8" fill="white" transform="translate(0.383789 0.800781)"/>
</clipPath>
</defs>
</svg>
