<svg width="49" height="49" viewBox="0 0 49 49" fill="none" xmlns="http://www.w3.org/2000/svg">
<g clip-path="url(#clip0_81_1133)">
<path d="M6.07861 1.80078V38.3977C6.07861 39.1717 6.70496 39.798 7.479 39.798H32.686C33.4601 39.798 34.0864 39.1717 34.0864 38.3977V1.80078C34.0864 1.02674 33.4601 0.400391 32.686 0.400391H7.479C6.70496 0.400391 6.07861 1.02674 6.07861 1.80078ZM28.4849 32.7027H22.8833C22.1093 32.7027 21.4829 32.0764 21.4829 31.3023C21.4829 30.5283 22.1093 29.902 22.8833 29.902H28.4849C29.2589 29.902 29.8853 30.5283 29.8853 31.3023C29.8853 32.0764 29.2589 32.7027 28.4849 32.7027ZM11.6802 7.4957H20.0825C20.8566 7.4957 21.4829 8.12205 21.4829 8.89609C21.4829 9.67014 20.8566 10.2965 20.0825 10.2965H11.6802C10.9061 10.2965 10.2798 9.67014 10.2798 8.89609C10.2798 8.12205 10.9061 7.4957 11.6802 7.4957ZM11.6802 13.0973H28.4849C29.2589 13.0973 29.8853 13.7236 29.8853 14.4977C29.8853 15.2717 29.2589 15.898 28.4849 15.898H11.6802C10.9061 15.898 10.2798 15.2717 10.2798 14.4977C10.2798 13.7236 10.9061 13.0973 11.6802 13.0973ZM11.6802 18.6988H28.4849C29.2589 18.6988 29.8853 19.3252 29.8853 20.0992C29.8853 20.8733 29.2589 21.4996 28.4849 21.4996H11.6802C10.9061 21.4996 10.2798 20.8733 10.2798 20.0992C10.2798 19.3252 10.9061 18.6988 11.6802 18.6988ZM11.6802 24.3004H28.4849C29.2589 24.3004 29.8853 24.9267 29.8853 25.7008C29.8853 26.4748 29.2589 27.1012 28.4849 27.1012H11.6802C10.9061 27.1012 10.2798 26.4748 10.2798 25.7008C10.2798 24.9267 10.9061 24.3004 11.6802 24.3004Z" fill="#225EC9"/>
<path d="M15.8813 48.2004H41.0884C41.8624 48.2004 42.4888 47.5741 42.4888 46.8V10.2965C42.4888 9.52247 41.8624 8.89612 41.0884 8.89612H36.8872V38.3977C36.8872 40.7143 35.0027 42.5989 32.686 42.5989H14.481V46.8C14.481 47.5741 15.1073 48.2004 15.8813 48.2004Z" fill="#225EC9"/>
</g>
<defs>
<clipPath id="clip0_81_1133">
<rect width="47.8" height="47.8" fill="white" transform="translate(0.383789 0.400391)"/>
</clipPath>
</defs>
</svg>
