<svg width="49" height="49" viewBox="0 0 49 49" fill="none" xmlns="http://www.w3.org/2000/svg">
<g clip-path="url(#clip0_81_1129)">
<path d="M6.07861 2.00098V38.5979C6.07861 39.3719 6.70496 39.9982 7.479 39.9982H32.686C33.4601 39.9982 34.0864 39.3719 34.0864 38.5979V2.00098C34.0864 1.22693 33.4601 0.600586 32.686 0.600586H7.479C6.70496 0.600586 6.07861 1.22693 6.07861 2.00098ZM28.4849 32.9029H22.8833C22.1093 32.9029 21.4829 32.2766 21.4829 31.5025C21.4829 30.7285 22.1093 30.1021 22.8833 30.1021H28.4849C29.2589 30.1021 29.8853 30.7285 29.8853 31.5025C29.8853 32.2766 29.2589 32.9029 28.4849 32.9029ZM11.6802 7.6959H20.0825C20.8566 7.6959 21.4829 8.32225 21.4829 9.09629C21.4829 9.87033 20.8566 10.4967 20.0825 10.4967H11.6802C10.9061 10.4967 10.2798 9.87033 10.2798 9.09629C10.2798 8.32225 10.9061 7.6959 11.6802 7.6959ZM11.6802 13.2975H28.4849C29.2589 13.2975 29.8853 13.9238 29.8853 14.6979C29.8853 15.4719 29.2589 16.0982 28.4849 16.0982H11.6802C10.9061 16.0982 10.2798 15.4719 10.2798 14.6979C10.2798 13.9238 10.9061 13.2975 11.6802 13.2975ZM11.6802 18.899H28.4849C29.2589 18.899 29.8853 19.5254 29.8853 20.2994C29.8853 21.0735 29.2589 21.6998 28.4849 21.6998H11.6802C10.9061 21.6998 10.2798 21.0735 10.2798 20.2994C10.2798 19.5254 10.9061 18.899 11.6802 18.899ZM11.6802 24.5006H28.4849C29.2589 24.5006 29.8853 25.1269 29.8853 25.901C29.8853 26.675 29.2589 27.3014 28.4849 27.3014H11.6802C10.9061 27.3014 10.2798 26.675 10.2798 25.901C10.2798 25.1269 10.9061 24.5006 11.6802 24.5006Z" fill="#225EC9"/>
<path d="M15.8813 48.4006H41.0884C41.8624 48.4006 42.4888 47.7743 42.4888 47.0002V10.4967C42.4888 9.72266 41.8624 9.09631 41.0884 9.09631H36.8872V38.5979C36.8872 40.9145 35.0027 42.799 32.686 42.799H14.481V47.0002C14.481 47.7743 15.1073 48.4006 15.8813 48.4006Z" fill="#225EC9"/>
</g>
<defs>
<clipPath id="clip0_81_1129">
<rect width="47.8" height="47.8" fill="white" transform="translate(0.383789 0.600586)"/>
</clipPath>
</defs>
</svg>
