<svg width="49" height="48" viewBox="0 0 49 48" fill="none" xmlns="http://www.w3.org/2000/svg">
<g clip-path="url(#clip0_81_1119)">
<path d="M28.7126 9.86406V0.294495H8.3799C7.28667 0.294495 6.40039 1.18078 6.40039 2.274V46.0207C6.40039 47.1139 7.28667 48.0002 8.3799 48.0002H40.0517C41.145 48.0002 42.0312 47.1139 42.0312 46.0207V13.5637H32.4122C30.3723 13.5637 28.7126 11.904 28.7126 9.86406ZM20.7188 37.7083L16.5075 41.9196C16.2346 42.1925 15.8769 42.329 15.5193 42.329C15.1617 42.329 14.8039 42.1926 14.531 41.9197L12.7827 40.1714C12.2369 39.6256 12.2369 38.7407 12.7827 38.1949C13.3284 37.6491 14.2134 37.6491 14.7592 38.1949L15.5193 38.9549L18.7424 35.7318C19.2881 35.186 20.1731 35.186 20.7189 35.7318C21.2647 36.2776 21.2647 37.1624 20.7188 37.7083ZM20.7188 28.3907L16.5075 32.6021C16.2346 32.875 15.8769 33.0115 15.5193 33.0115C15.1617 33.0115 14.8039 32.8751 14.531 32.6022L12.7827 30.8539C12.2369 30.3081 12.2369 29.4232 12.7827 28.8774C13.3284 28.3316 14.2134 28.3316 14.7592 28.8774L15.5193 29.6374L18.7424 26.4143C19.2881 25.8685 20.1731 25.8685 20.7189 26.4143C21.2647 26.96 21.2647 27.8449 20.7188 28.3907ZM20.7188 18.3616L16.5075 22.573C16.2346 22.8459 15.8769 22.9824 15.5193 22.9824C15.1617 22.9824 14.8039 22.846 14.531 22.573L12.7827 20.8246C12.2369 20.2788 12.2369 19.3939 12.7827 18.8481C13.3284 18.3023 14.2134 18.3023 14.7592 18.8481L15.5193 19.6081L18.7424 16.3851C19.2881 15.8393 20.1731 15.8393 20.7189 16.3851C21.2647 16.9309 21.2647 17.8158 20.7188 18.3616ZM34.6607 40.2233H25.7159C24.944 40.2233 24.3183 39.5976 24.3183 38.8257C24.3183 38.0538 24.944 37.4281 25.7159 37.4281H34.6607C35.4326 37.4281 36.0583 38.0538 36.0583 38.8257C36.0583 39.5976 35.4326 40.2233 34.6607 40.2233ZM24.3183 29.5082C24.3183 28.7363 24.944 28.1106 25.7159 28.1106H34.6207C35.3926 28.1106 36.0184 28.7363 36.0184 29.5082C36.0184 30.2801 35.3926 30.9058 34.6207 30.9058H25.7159C24.944 30.9058 24.3183 30.2801 24.3183 29.5082ZM36.0185 20.1907C36.0185 20.9625 35.3927 21.5883 34.6208 21.5883H25.716C24.9441 21.5883 24.3184 20.9625 24.3184 20.1907C24.3184 19.4188 24.9441 18.793 25.716 18.793H34.6208C35.3927 18.793 36.0185 19.4188 36.0185 20.1907Z" fill="#225EC9"/>
<path d="M31.5078 9.86405C31.5078 10.3627 31.9135 10.7684 32.4122 10.7684H42.1671L31.5078 0.200195V9.86405Z" fill="#225EC9"/>
</g>
<defs>
<clipPath id="clip0_81_1119">
<rect width="47.8" height="47.8" fill="white" transform="translate(0.383789 0.200195)"/>
</clipPath>
</defs>
</svg>
