<svg width="49" height="48" viewBox="0 0 49 48" fill="none" xmlns="http://www.w3.org/2000/svg">
<g clip-path="url(#clip0_81_738)">
<path d="M42.2836 0.0012207H10.7841C7.53071 0.0012207 4.88379 2.64815 4.88379 5.90153V41.901C4.88379 45.1543 7.53062 47.8012 10.784 47.8012H42.2835C43.0569 47.8012 43.6839 47.1741 43.6839 46.4008V37.401V1.40161C43.684 0.628222 43.057 0.0012207 42.2836 0.0012207ZM15.284 9.00097H33.2838C34.0572 9.00097 34.6842 9.62797 34.6842 10.4014C34.6842 11.1748 34.0572 11.8018 33.2838 11.8018H15.284C14.5106 11.8018 13.8836 11.1748 13.8836 10.4014C13.8836 9.62797 14.5105 9.00097 15.284 9.00097ZM10.7842 45.0004C9.07507 45.0004 7.68466 43.6099 7.68466 41.901C7.68466 41.8476 7.68606 41.7944 7.68868 41.7417C7.77186 40.1063 9.12856 38.8014 10.7841 38.8014H40.8832V45.0004H10.7842Z" fill="#225EC9"/>
</g>
<defs>
<clipPath id="clip0_81_738">
<rect width="47.8" height="47.8" fill="white" transform="translate(0.383789 0.0012207)"/>
</clipPath>
</defs>
</svg>
