<svg width="49" height="49" viewBox="0 0 49 49" fill="none" xmlns="http://www.w3.org/2000/svg">
<g clip-path="url(#clip0_81_1153)">
<path d="M13.2213 31.2499C13.7191 27.2944 16.2973 23.978 19.8219 22.4328C15.9336 18.5506 18.7293 11.737 24.2838 11.7503C29.8381 11.737 32.634 18.5516 28.7455 22.4328C32.2701 23.9779 34.8483 27.2944 35.3462 31.2499H45.1838V11.5511C45.1838 9.12475 43.2098 7.15076 40.7835 7.15076H7.7841C5.35778 7.15076 3.38379 9.12475 3.38379 11.5511V31.2499H13.2213Z" fill="#225EC9"/>
<path d="M16.0525 31.2499H19.7839C20.1552 31.2499 20.5112 31.3974 20.7739 31.6598C20.9901 31.8759 21.2892 31.9999 21.5945 31.9999H26.9732C27.2785 31.9999 27.5775 31.876 27.7936 31.66C28.0561 31.3975 28.4124 31.2499 28.7837 31.2499H32.5152C30.7883 22.0419 17.7758 22.0484 16.0525 31.2499Z" fill="#225EC9"/>
<path d="M27.7582 18.0255C27.7582 16.1097 26.1996 14.551 24.2837 14.551C19.6805 14.7257 19.6818 21.3261 24.2837 21.5C26.1995 21.5 27.7582 19.9414 27.7582 18.0255Z" fill="#225EC9"/>
<path d="M46.7833 34.0507H29.2937C28.6227 34.5377 27.8179 34.8007 26.9731 34.8007H21.5944C20.7495 34.8007 19.9448 34.5378 19.2738 34.0507H1.78418C1.01079 34.0507 0.383789 34.6777 0.383789 35.451V37.0506C0.383696 39.504 2.37458 41.451 4.784 41.451H43.7833C46.1927 41.451 48.1836 39.504 48.1836 37.0507V35.4511C48.1837 34.6777 47.5567 34.0507 46.7833 34.0507Z" fill="#225EC9"/>
</g>
<defs>
<clipPath id="clip0_81_1153">
<rect width="47.8" height="47.8" fill="white" transform="translate(0.383789 0.400879)"/>
</clipPath>
</defs>
</svg>
