<svg width="49" height="48" viewBox="0 0 49 48" fill="none" xmlns="http://www.w3.org/2000/svg">
<g clip-path="url(#clip0_81_1159)">
<path d="M41.0884 8.69688C43.4049 8.69688 45.2896 6.81218 45.2896 4.4957C45.2896 2.17922 43.4049 0.201172 41.0884 0.201172C38.7719 0.201172 36.8872 2.17922 36.8872 4.4957C36.8872 6.81218 38.7719 8.69688 41.0884 8.69688Z" fill="#225EC9"/>
<path d="M41.0556 11.5002C37.0947 11.5002 34.0864 14.9728 34.0864 18.899V31.1032H38.2876V48.0012H43.8892V31.1032H48.1837V18.4996C48.1837 14.7029 45.0383 11.5002 41.0556 11.5002Z" fill="#225EC9"/>
<path d="M14.4811 46.6008C14.4811 42.7337 11.3462 39.5055 7.4791 39.5055C3.61198 39.5055 0.383789 42.7337 0.383789 46.6008V48.0012H14.4811V46.6008Z" fill="#225EC9"/>
<path d="M11.6802 32.5035C11.6802 34.8237 9.79913 36.7047 7.479 36.7047C5.15888 36.7047 3.27783 34.8237 3.27783 32.5035C3.27783 30.1834 5.15888 28.3024 7.479 28.3024C9.79913 28.3024 11.6802 30.1834 11.6802 32.5035Z" fill="#225EC9"/>
<path d="M17.2817 46.6008V48.0012H31.2856V46.6008C31.2856 42.7337 28.1508 39.5055 24.2837 39.5055C20.4166 39.5055 17.2817 42.7337 17.2817 46.6008Z" fill="#225EC9"/>
<path d="M28.4849 32.5035C28.4849 34.8237 26.6038 36.7047 24.2837 36.7047C21.9636 36.7047 20.0825 34.8237 20.0825 32.5035C20.0825 30.1834 21.9636 28.3024 24.2837 28.3024C26.6038 28.3024 28.4849 30.1834 28.4849 32.5035Z" fill="#225EC9"/>
<path d="M34.0864 8.6969H3.27783V26.9377C4.45175 26.049 5.89664 25.5016 7.479 25.5016C10.86 25.5016 13.6885 27.9111 14.3391 31.1031H17.4236C18.0742 27.9111 20.9027 25.5016 24.2837 25.5016C27.6647 25.5016 30.4932 27.9111 31.1438 31.1031H31.2856V18.899C31.2856 16.1248 32.3589 13.6121 34.0864 11.7716V8.6969ZM25.6841 21.3004H8.87939V18.4996H25.6841V21.3004ZM25.6841 15.6989H8.87939V12.8981H25.6841V15.6989Z" fill="#225EC9"/>
<path d="M34.0865 4.4957C34.0865 2.91333 34.6339 1.37509 35.5227 0.201172H0.383789V5.89609H34.2284C34.1358 5.44352 34.0865 4.97526 34.0865 4.4957Z" fill="#225EC9"/>
</g>
<defs>
<clipPath id="clip0_81_1159">
<rect width="47.8" height="47.8" fill="white" transform="translate(0.383789 0.201172)"/>
</clipPath>
</defs>
</svg>
