<svg width="49" height="49" viewBox="0 0 49 49" fill="none" xmlns="http://www.w3.org/2000/svg">
<g clip-path="url(#clip0_81_752)">
<path d="M13.6339 13.921C15.0164 12.5388 16.6265 11.4532 18.4204 10.6942C20.2792 9.90835 22.2518 9.50975 24.2838 9.50975C26.3158 9.50975 28.2884 9.90835 30.1472 10.6942C31.9411 11.4532 33.5515 12.5388 34.9337 13.921C35.531 14.5183 36.073 15.1587 36.5569 15.8378V14.2226C36.5569 9.04332 32.3433 4.82974 27.1641 4.82974H15.5124V0.69458L0.383789 10.2271L11.2266 17.0591C11.8841 15.9162 12.6897 14.8651 13.6339 13.921Z" fill="#225EC9"/>
<path d="M48.1839 38.9148L37.341 32.0828C36.6835 33.2257 35.8779 34.2763 34.9338 35.2209C33.5512 36.603 31.9411 37.6887 30.1473 38.4472C28.2885 39.2335 26.3159 39.6321 24.2839 39.6321C22.2518 39.6321 20.2792 39.2335 18.4204 38.4472C16.6266 37.6887 15.0161 36.603 13.634 35.2209C13.0366 34.6235 12.4947 33.9831 12.0107 33.3041V34.9193C12.0107 40.0985 16.2243 44.3121 21.4036 44.3121H33.0556V48.4473L48.1839 38.9148Z" fill="#225EC9"/>
<path d="M12.0264 24.571C12.0264 31.3407 17.5141 36.8288 24.2838 36.8288C31.0538 36.8288 36.5416 31.3407 36.5416 24.571C36.5416 17.8014 31.0538 12.3132 24.2838 12.3132C17.5141 12.3132 12.0264 17.8014 12.0264 24.571ZM19.6169 22.5788C19.6169 20.8469 20.8736 19.3907 23.3874 19.0384V17.3678H25.5482V19.0078C26.6823 19.115 27.7859 19.406 28.6593 19.8965L27.5711 22.5171C26.5138 21.9807 25.5175 21.7203 24.5825 21.7203C23.5253 21.7203 23.1879 22.0266 23.1879 22.3946C23.1879 23.6819 29.1192 22.609 29.1192 26.5633C29.1192 28.2186 27.9237 29.6591 25.5482 30.073V31.7743H23.3874V30.1496C21.8546 30.0577 20.3682 29.6438 19.4484 29.0767L20.6132 26.4408C21.6249 27.0385 22.9735 27.4218 24.1536 27.4218C25.1802 27.4218 25.5482 27.207 25.5482 26.8394C25.5482 25.4904 19.6169 26.5786 19.6169 22.5788Z" fill="#225EC9"/>
</g>
<defs>
<clipPath id="clip0_81_752">
<rect width="47.8" height="47.8" fill="white" transform="translate(0.383789 0.601318)"/>
</clipPath>
</defs>
</svg>
