<svg width="49" height="49" viewBox="0 0 49 49" fill="none" xmlns="http://www.w3.org/2000/svg">
<g clip-path="url(#clip0_81_756)">
<path d="M24.2838 8.36792C8.35042 8.36792 0.383789 24.3013 0.383789 24.3013C0.383789 24.3013 8.35042 40.2346 24.2838 40.2346C40.2172 40.2346 48.1838 24.3013 48.1838 24.3013C48.1838 24.3013 40.2172 8.36792 24.2838 8.36792ZM24.2838 36.2513C17.6839 36.2513 12.3338 30.9011 12.3338 24.3013C12.3338 17.7014 17.6839 12.3513 24.2838 12.3513C30.8835 12.3513 36.2338 17.7014 36.2338 24.3013C36.2338 30.9011 30.8835 36.2513 24.2838 36.2513Z" fill="#225EC9"/>
<path d="M31.4736 20.8668C30.993 21.348 30.3288 21.6457 29.5949 21.6457C28.1282 21.6457 26.9394 20.4568 26.9394 18.9902C26.9394 18.2563 27.2371 17.5921 27.7181 17.1116C26.6782 16.6139 25.5137 16.3347 24.2838 16.3347C19.8839 16.3347 16.3171 19.9015 16.3171 24.3014C16.3171 25.1182 16.4407 25.9062 16.669 26.6482C17.2934 25.2647 18.684 24.3013 20.3004 24.3013C22.5004 24.3013 24.2838 26.0846 24.2838 28.2846C24.2838 29.901 23.3203 31.2916 21.9369 31.9161C22.6788 32.1445 23.4669 32.268 24.2838 32.268C28.6836 32.268 32.2504 28.7012 32.2504 24.3014C32.2504 23.0713 31.9712 21.9069 31.4736 20.8668Z" fill="#225EC9"/>
</g>
<defs>
<clipPath id="clip0_81_756">
<rect width="47.8" height="47.8" fill="white" transform="translate(0.383789 0.401367)"/>
</clipPath>
</defs>
</svg>
