<svg version="1.1" xmlns="http://www.w3.org/2000/svg" xmlns:xlink="http://www.w3.org/1999/xlink" width="108" height="44" viewBox="0,0,256,104.28125"><g fill="#ffffff" fill-rule="nonzero" stroke="none" stroke-width="1" stroke-linecap="butt" stroke-linejoin="miter" stroke-miterlimit="10" stroke-dasharray="" stroke-dashoffset="0" font-family="none" font-weight="none" font-size="none" text-anchor="none" style="mix-blend-mode: normal"><g transform="translate(0,0.04785) scale(2.37037,2.37037)"><g id="Group"><g id="Group_2"><path d="M106.909,7.06992c-0.772,-3.35389 -3.515,-5.82791 -6.817,-6.19617c-7.8177,-0.87328 -15.7341,-0.8774 -23.6117,-0.87328c-7.881,-0.00412 -15.7957,0 -23.6157,0.87328c-3.3003,0.36908 -6.0421,2.8431 -6.8132,6.19617c-1.099,4.77588 -1.1122,9.98918 -1.1122,14.90678c0,4.9175 0,10.13 1.099,14.9059c0.7711,3.353 3.5129,5.827 6.8149,6.1961c7.8183,0.8741 15.7331,0.8774 23.6132,0.8741c7.8809,0.0042 15.794,0 23.6147,-0.8741c3.3,-0.3691 6.044,-2.8431 6.815,-6.1961c1.098,-4.7759 1.104,-9.9884 1.104,-14.9059c-0.001,-4.9184 0.007,-10.1309 -1.091,-14.90678zM62.9263,10.7715h-4.5641v24.2525h-4.2395v-24.2525h-4.481v-3.97263h13.2846zM74.4413,35.0248h-3.8136v-2.2944c-1.5151,1.7366 -2.9535,2.5836 -4.3549,2.5836c-1.2284,0 -2.0736,-0.4977 -2.4551,-1.5629c-0.2076,-0.636 -0.3361,-1.6427 -0.3361,-3.1273v-16.6302h3.8103v15.4842c0,0.8931 0,1.3569 0.0346,1.4821c0.0914,0.5915 0.3806,0.8914 0.8914,0.8914c0.7645,0 1.5637,-0.589 2.4089,-1.7844v-16.0733h3.8136zM88.9188,28.7124c0,1.9452 -0.131,3.3465 -0.3856,4.2379c-0.5091,1.5645 -1.5282,2.3637 -3.0441,2.3637c-1.3561,0 -2.6643,-0.753 -3.9388,-2.3266v2.0382h-3.8103v-28.22673h3.8103v9.21803c1.2308,-1.515 2.5374,-2.2812 3.9388,-2.2812c1.5159,0 2.5358,0.7983 3.0441,2.3727c0.2562,0.8461 0.3856,2.2367 0.3856,4.228zM103.301,25.2037h-7.6217v3.7279c0,1.9467 0.6368,2.9189 1.9467,2.9189c0.9384,0 1.4846,-0.51 1.7021,-1.5283c0.0354,-0.2067 0.0857,-1.0537 0.0857,-2.5819h3.8882v0.5561c0,1.2284 -0.047,2.0745 -0.082,2.4551c-0.128,0.8436 -0.428,1.6089 -0.89,2.2829c-1.055,1.5274 -2.6188,2.2804 -4.6092,2.2804c-1.9937,0 -3.5113,-0.7176 -4.6128,-2.1536c-0.8081,-1.0528 -1.2234,-2.7104 -1.2234,-4.9455v-7.3661c0,-2.2483 0.3683,-3.8927 1.1781,-4.9554c1.1007,-1.4393 2.6174,-2.156 4.5642,-2.156c1.9121,0 3.4281,0.7167 4.4961,2.156c0.798,1.0627 1.179,2.7071 1.179,4.9554v4.3541z" id="Vector"></path><path d="M97.5923,17.167c-1.2736,0 -1.9121,0.973 -1.9121,2.9172v1.946h3.8103v-1.946c-0.0008,-1.9442 -0.6377,-2.9172 -1.8982,-2.9172z" id="Vector_2"></path><path d="M83.4499,17.167c-0.6277,0 -1.2637,0.2966 -1.9006,0.9268v12.8183c0.636,0.6377 1.2729,0.9392 1.9006,0.9392c1.0991,0 1.6576,-0.9392 1.6576,-2.8382v-8.9766c0,-1.8965 -0.5585,-2.8695 -1.6576,-2.8695z" id="Vector_3"></path><g id="Group 1"><path d="M32.1624,35.9978c1.4046,0 2.8661,-0.8535 4.3993,-2.61v2.3184h3.8515v-21.2545h-3.8515v16.2446c-0.8535,1.2061 -1.6625,1.8026 -2.4328,1.8026c-0.5157,0 -0.8189,-0.3048 -0.903,-0.9021c-0.0469,-0.1261 -0.0469,-0.5948 -0.0469,-1.4969v-15.6482h-3.8392v16.8065c0,1.501 0.1286,2.5169 0.3411,3.1603c0.3872,1.0768 1.2416,1.5793 2.4815,1.5793z" id="Vector_4"></path><path d="M5.35008,24.1547v11.5512h4.27084v-11.5512l5.13748,-16.96964h-4.3186l-2.91393,11.20024l-3.03177,-11.20024h-4.4941c0.90047,2.64373 1.83718,5.30064 2.73765,7.94684c1.37006,3.9776 2.22522,6.9764 2.61243,9.0228z" id="Vector_5"></path><path d="M20.4825,35.9978c1.9294,0 3.4288,-0.7259 4.4924,-2.1758c0.8082,-1.0636 1.1954,-2.7393 1.1954,-4.9983v-7.4427c0,-2.2722 -0.3864,-3.933 -1.1954,-5.0065c-1.0636,-1.4541 -2.5621,-2.1799 -4.4924,-2.1799c-1.9196,0 -3.4182,0.7258 -4.4842,2.1799c-0.8181,1.0735 -1.2053,2.7343 -1.2053,5.0065v7.4427c0,2.259 0.3872,3.9347 1.2053,4.9983c1.0652,1.4499 2.5646,2.1758 4.4842,2.1758zM18.6445,20.6091c0,-1.9666 0.5964,-2.9469 1.838,-2.9469c1.2415,0 1.8363,0.9795 1.8363,2.9469v8.9404c0,1.9665 -0.5948,2.9502 -1.8363,2.9502c-1.2416,0 -1.838,-0.9837 -1.838,-2.9502z" id="Vector_6"></path></g></g></g></g></g></svg>