<svg version="1.1" xmlns="http://www.w3.org/2000/svg" xmlns:xlink="http://www.w3.org/1999/xlink" width="22" height="27" viewBox="0,0,208.57813,256"><defs><clipPath id="clip-1"><rect x="0" y="0.5" width="22" height="26" id="clip0_216_52" fill="none"></rect></clipPath></defs><g fill="none" fill-rule="nonzero" stroke="none" stroke-width="1" stroke-linecap="butt" stroke-linejoin="miter" stroke-miterlimit="10" stroke-dasharray="" stroke-dashoffset="0" font-family="none" font-weight="none" font-size="none" text-anchor="none" style="mix-blend-mode: normal"><g transform="translate(-0.00723,0) scale(9.48148,9.48148)"><g clip-path="url(#clip-1)" id="Camada_1"><path d="M0.54249,26.4999c-0.40736,-0.1859 -0.55685,-0.5061 -0.54184,-0.9688c0.10184,-3.0745 1.28997,-5.6023 3.55656,-7.5642c1.7378,-1.5041 3.76024,-2.2374 6.02617,-2.2327c0.96092,0.0021 1.92122,-0.0129 2.88222,0.0027c3.4351,0.0557 6.0823,1.6275 7.984,4.5637c1.0177,1.5719 1.4995,3.335 1.5497,5.2305c0.0124,0.4613 -0.1351,0.7822 -0.5418,0.9688z" id="Vector" fill="#ffffff"></path><path d="M11.0163,0.5c3.6388,0.00204 6.5817,3.07251 6.5798,6.86549c-0.0013,3.79431 -2.958,6.84851 -6.6255,6.84451c-3.64076,-0.0041 -6.57388,-3.0875 -6.568,-6.90421c0.00718,-3.75567 2.97228,-6.80782 6.6137,-6.80579z" id="Vector_2" fill="#ffffff"></path></g></g></g></svg>