<svg width="51" height="61" viewBox="0 0 51 61" fill="none" xmlns="http://www.w3.org/2000/svg">
<g id="Camada_1" clip-path="url(#clip0_648_1519)">
<path id="Vector" d="M1.35206 60.2856C0.414563 59.8578 0.0705122 59.1208 0.105068 58.056C0.339443 50.9802 3.07382 45.1628 8.29016 40.6476C12.2896 37.1862 16.944 35.4984 22.1589 35.5093C24.3704 35.514 26.5804 35.4797 28.792 35.5156C36.6976 35.6436 42.7899 39.2611 47.1664 46.0184C49.5086 49.636 50.6174 53.6938 50.7331 58.056C50.7616 59.1177 50.4221 59.8562 49.4861 60.2856H1.35206Z" fill="black"/>
<path id="Vector_2" d="M25.4566 0.448733C33.831 0.453417 40.6038 7.51984 40.5993 16.249C40.5963 24.9814 33.7919 32.0103 25.3514 32.001C16.9725 31.9916 10.2222 24.8955 10.2357 16.1117C10.2523 7.46832 17.0762 0.444049 25.4566 0.448733Z" fill="black"/>
</g>
<defs>
<clipPath id="clip0_648_1519">
<rect width="50.631" height="59.8367" fill="white" transform="translate(0.103577 0.44873)"/>
</clipPath>
</defs>
</svg>
