<svg version="1.1" xmlns="http://www.w3.org/2000/svg" xmlns:xlink="http://www.w3.org/1999/xlink" width="46" height="46" viewBox="0,0,256,256"><defs><clipPath id="clip-1"><rect x="0" y="0" width="46" height="46" id="clip0_228_4557" fill="none"></rect></clipPath></defs><g fill="none" fill-rule="nonzero" stroke="none" stroke-width="1" stroke-linecap="butt" stroke-linejoin="miter" stroke-miterlimit="10" stroke-dasharray="" stroke-dashoffset="0" font-family="none" font-weight="none" font-size="none" text-anchor="none" style="mix-blend-mode: normal"><g transform="scale(5.56522,5.56522)"><g clip-path="url(#clip-1)" id="Facebook"><path d="M42.6824,0h-39.36485c-1.83232,0 -3.31755,1.48523 -3.31755,3.31755v39.36485c0,1.8324 1.48523,3.3176 3.31755,3.3176h21.25475v-17.7891h-5.9746v-6.9629h5.9746v-5.1242c0,-5.9423 3.6278,-9.1767 8.9285,-9.1767c2.5388,0 4.7207,0.18916 5.3566,0.27374v6.21076h-3.6551c-2.8842,0 -3.4425,1.3705 -3.4425,3.3818v4.4346h6.8955l-0.8985,6.9629h-5.997v17.7891h10.9226c1.8324,0 3.3176,-1.4852 3.3176,-3.3176v-39.36485c0,-1.83232 -1.4852,-3.31755 -3.3176,-3.31755z" id="Vector" fill="#ffffff"></path></g></g></g></svg>