<svg xmlns="http://www.w3.org/2000/svg" width="11" height="12" viewBox="0 0 11 12" fill="none">
  <g clip-path="url(#clip0_1_87)">
    <path d="M10.7394 0.498779C10.9308 0.584863 11.0003 0.73063 11 0.941247C10.9957 3.87267 10.9971 6.80438 10.9971 9.7358C10.9971 9.97826 10.8321 10.1444 10.6132 10.1217C10.4895 10.1088 10.4086 10.027 10.3343 9.93809C9.92539 9.44914 9.45623 9.02647 8.93227 8.66435C8.12252 8.10509 7.23385 7.72948 6.27144 7.52833C6.2043 7.51427 6.18478 7.49361 6.18478 7.42647C6.18651 6.01614 6.18651 4.60581 6.18478 3.19577C6.18478 3.12891 6.20401 3.10796 6.27115 3.09361C7.84389 2.75559 9.17273 1.99491 10.2433 0.789741C10.3446 0.675824 10.4298 0.543256 10.5894 0.498779H10.7397L10.7394 0.498779Z" fill="white"/>
    <path d="M0 4.17218C0.0984218 3.98107 0.256528 3.92311 0.466571 3.93258C0.762984 3.94606 1.06026 3.93602 1.37475 3.93602C1.37475 3.82756 1.37446 3.72196 1.37475 3.61637C1.37561 3.38681 1.51248 3.24879 1.74089 3.24879C2.68924 3.2485 3.63788 3.24994 4.58623 3.24793C4.88608 3.24736 5.18594 3.23674 5.49211 3.23071V7.39054H4.24993C4.26198 7.41751 4.27575 7.45109 4.29182 7.48322C4.64792 8.19599 5.00402 8.90848 5.36011 9.62124C5.53429 9.96988 5.48867 10.2514 5.21263 10.5266C4.96413 10.7742 4.71593 11.0221 4.46571 11.268C4.05997 11.6669 3.48694 11.5389 3.28637 11.0049C2.84362 9.82584 2.40115 8.64678 1.95839 7.46773C1.9472 7.43817 1.93572 7.40862 1.92224 7.37332C1.8637 7.37332 1.80689 7.37332 1.75007 7.37332C1.51363 7.37246 1.37561 7.23645 1.37504 7.00288C1.37475 6.90274 1.37504 6.80288 1.37504 6.68581C1.33716 6.68581 1.30301 6.68581 1.26915 6.68581C0.989957 6.68581 0.710473 6.67748 0.431851 6.68868C0.222956 6.697 0.0803443 6.62096 0.000286944 6.42813V4.17246L0 4.17218Z" fill="white"/>
  </g>
  <defs>
    <clipPath id="clip0_1_87">
      <rect width="11" height="11.0026" fill="white" transform="translate(0 0.498779)"/>
    </clipPath>
  </defs>
</svg>