<svg width="22" height="27" viewBox="0 0 22 27" fill="none" xmlns="http://www.w3.org/2000/svg">
<g id="Camada_1" clip-path="url(#clip0_216_52)">
<path id="Vector" d="M0.542493 26.4999C0.135134 26.314 -0.014362 25.9938 0.000652886 25.5311C0.102493 22.4566 1.29062 19.9288 3.55721 17.9669C5.29501 16.4628 7.31745 15.7295 9.58338 15.7342C10.5443 15.7363 11.5046 15.7213 12.4656 15.7369C15.9007 15.7926 18.5479 17.3644 20.4496 20.3006C21.4673 21.8725 21.9491 23.6356 21.9993 25.5311C22.0117 25.9924 21.8642 26.3133 21.4575 26.4999H0.542493Z" fill="#225EC9"/>
<path id="Vector_2" d="M11.0163 0.500001C14.6551 0.502036 17.598 3.57251 17.5961 7.36549C17.5948 11.1598 14.6381 14.214 10.9706 14.21C7.32984 14.2059 4.39672 11.1225 4.4026 7.30579C4.40978 3.55012 7.37488 0.497966 11.0163 0.500001Z" fill="#225EC9"/>
</g>
<defs>
<clipPath id="clip0_216_52">
<rect width="22" height="26" fill="white" transform="translate(0 0.5)"/>
</clipPath>
</defs>
</svg>
