<svg xmlns="http://www.w3.org/2000/svg" width="14" height="13" viewBox="0 0 14 13" fill="none">
  <g clip-path="url(#clip0_1_116)">
    <path d="M12.6351 13.0002C12.4141 12.924 12.2594 12.7686 12.1016 12.6101C11.1229 11.6228 10.138 10.6416 9.15935 9.65421C9.08042 9.57498 9.02991 9.56889 8.93521 9.62983C7.93764 10.2698 6.83589 10.5501 5.63943 10.4922C3.19601 10.3703 1.07775 8.63335 0.597908 6.23204C0.0580828 3.52904 1.8133 0.862605 4.58504 0.167809C7.53356 -0.56965 10.5768 1.21 11.2397 4.08061C11.6186 5.71704 11.2524 7.20414 10.1885 8.52974C10.1632 8.56021 10.1411 8.59069 10.1096 8.62726C10.441 8.95942 10.7694 9.29158 11.1008 9.62374C11.8174 10.3429 12.5214 11.0743 13.257 11.7782C13.6926 12.1957 13.5158 12.86 12.9697 12.985C12.9634 12.985 12.9571 12.9972 12.9507 13.0033H12.6351V13.0002ZM5.94249 9.12397C8.15862 9.12397 9.95172 7.39613 9.95488 5.25993C9.95804 3.11764 8.15862 1.37761 5.94565 1.37761C3.73584 1.37761 1.93327 3.1146 1.93011 5.2447C1.93011 7.38698 3.72321 9.12397 5.94249 9.12397Z" fill="#292774"/>
  </g>
  <defs>
    <clipPath id="clip0_1_116">
      <rect width="13" height="13" fill="white" transform="translate(0.5)"/>
    </clipPath>
  </defs>
</svg>