<?xml version="1.0" encoding="UTF-8"?>
<svg id="Camada_2" data-name="Camada 2" xmlns="http://www.w3.org/2000/svg" xmlns:xlink="http://www.w3.org/1999/xlink" viewBox="0 0 899.79 175.64">
  <defs>
    <style>
      .cls-1 {
        fill: #0085b0;
      }

      .cls-2 {
        fill: #fff;
      }

      .cls-3 {
        fill: url(#Gradiente_sem_nome_17);
      }

      .cls-4 {
        fill: url(#Gradiente_sem_nome_68);
      }

      .cls-5 {
        fill: url(#Gradiente_sem_nome_22);
      }

      .cls-6 {
        fill: #ff4b4f;
      }

      .cls-7 {
        fill: url(#Gradiente_sem_nome_69);
      }
    </style>
    <linearGradient id="Gradiente_sem_nome_68" data-name="Gradiente sem nome 68" x1="170.79" y1="154.79" x2="12.57" y2="22.03" gradientUnits="userSpaceOnUse">
      <stop offset=".03" stop-color="#34e2ff"/>
      <stop offset=".32" stop-color="#e5fafe"/>
      <stop offset=".52" stop-color="#34e2ff"/>
      <stop offset=".64" stop-color="#34e2ff"/>
      <stop offset=".86" stop-color="#bdf5fe"/>
      <stop offset="1" stop-color="#e5fafe"/>
    </linearGradient>
    <linearGradient id="Gradiente_sem_nome_22" data-name="Gradiente sem nome 22" x1="28.77" y1="126.64" x2="139.66" y2="126.64" gradientUnits="userSpaceOnUse">
      <stop offset=".35" stop-color="#e5fafe"/>
      <stop offset="1" stop-color="#34e2ff"/>
    </linearGradient>
    <linearGradient id="Gradiente_sem_nome_17" data-name="Gradiente sem nome 17" x1="88.28" y1="38.85" x2="160.3" y2="38.85" gradientUnits="userSpaceOnUse">
      <stop offset=".35" stop-color="#fff"/>
      <stop offset="1" stop-color="#fbc1bc"/>
    </linearGradient>
    <linearGradient id="Gradiente_sem_nome_69" data-name="Gradiente sem nome 69" x1="25.43" y1="65.77" x2="199.73" y2="65.77" gradientUnits="userSpaceOnUse">
      <stop offset=".47" stop-color="#00dfff"/>
      <stop offset="1" stop-color="#0894ab"/>
    </linearGradient>
  </defs>
  <g id="Camada_1-2" data-name="Camada 1">
    <g>
      <g>
        <path class="cls-4" d="M25.58,6.52c-7.42,11.21-14.84,22.41-22.26,33.62-.88,1.21-2.07,3.18-2.76,5.83-1.02,3.89-.42,7.17,0,8.8,3.72,8.94,7.44,17.88,11.16,26.82.61,1.24,1.55,2.92,2.97,4.71,3.07,3.85,6.47,5.79,8.19,6.76,5.64,3.15,10.81,3.66,13.41,3.89,3.74.33,6.86.03,9.01-.31,6.17-6.8,12.34-13.61,18.51-20.41.36-.4.9-.94,1.61-1.49,1.86-1.45,3.65-2.03,4.56-2.32.8-.25,1.9-.53,3.26-.66,22.57,16.64,45.13,33.27,67.7,49.91.26.76.54,1.73.71,2.88.12.78.29,1.96.15,3.48-.11,1.13-.3,3.16-1.65,4.98-.27.37-.69.8-1.51,1.66-1.06,1.1-1.9,1.87-2.1,2.06-1.41,1.3-8.66,8.13-18.75,17.64,1.05,1.07,2.41,2.28,4.15,3.41,1.07.7,4.11,2.56,8.53,3.48,0,0,2.6.55,5.6.55,8.8,0,21.68-4.96,23.47-5.66,9.1-7.59,18.22-15.33,27.36-23.2,2.74-2.36,5.46-4.71,8.17-7.07-5.86-16.43-14.14-25.69-20.52-31.07-14.91-12.59-26.04-9.63-48.59-25.38-8.72-6.1-14.62-11.83-22.11-19.11-23.83-23.16-21.16-29.69-33.57-34.39-8.99-3.4-17.43-2.64-33.3-10.65-2.56-1.29-4.62-2.46-6.01-3.28-1.79,1.51-3.59,3.02-5.38,4.53Z"/>
        <path class="cls-5" d="M62.71,77.65c-5.8,6.28-11.61,12.61-17.42,18.99-4.77,5.23-9.51,10.45-14.23,15.66-.16.43-.4,1.08-.65,1.88-6.11,19.47,6.35,39.99,12.97,47.63,0,0,5.18,5.98,13.65,11.72.23.16.54.36.96.59,3.5,1.93,7.1,1.58,9.14,1.33,4.08-.49,16.28-2.24,32.75-5.32,6.07-5.35,12.14-10.69,18.21-16.04,7.19-6.8,14.38-13.6,21.58-20.4-25.65-18.68-51.3-37.36-76.95-56.04Z"/>
        <path class="cls-3" d="M99.69,5.43c-.58.3-1.35.79-2.09,1.57-.37.39-.66.78-.89,1.13-.48.75-.95,1.5-1.43,2.25-2.32,3.64-4.66,7.25-6.99,10.82,3.39,9.2,7.51,16.1,10.65,20.68,5.25,7.66,13.75,19.73,29.27,26.41,5.69,2.45,10.75,3.49,14.13,3.99,5.99-6.02,11.98-12.04,17.97-18.06L99.69,5.43Z"/>
        <path class="cls-1" d="M80.64,128.91c-9.1-18.98-15.27-31.56-17.74-36.03-.17-.3-.75-1.36-1.23-2.87-.45-1.42-2.2-6.98.82-12.01,3.5-5.85,10.62-6.25,11.19-6.28h31.39c1.75.24,4.67.87,7.78,2.73,3.37,2.01,5.39,4.52,6.41,6.01,6.87,12.97,13.74,25.93,20.61,38.9.74,1.31,1.48,3.06,1.77,5.19.19,1.38.7,5.04-1.5,8.46-1.15,1.78-2.6,2.84-3.55,3.41-9.74,1.77-19.47,3.55-29.21,5.32-2.04.52-5.17,1.01-8.87.41-7.72-1.25-12.38-6.38-13.78-8.05-1.36-1.73-2.73-3.46-4.09-5.19Z"/>
        <path class="cls-6" d="M113.52,44.92c2.95,4.77,6.94,7.25,8.98,8.49,1.9,1.15,4.13,2.48,7.33,3,1.01.16,1.78.19,2.33.21,0,0,15.2.54,24.14-.37.14-.01.42-.04.78-.13,2.68-.64,4.13-3.02,4.21-3.15,1.22-2.06.93-4.11.82-4.85-.31-1.98-1.29-3.31-1.77-3.89-5.98-10.01-11.96-20.02-17.95-30.02-2.15-2.64-5.96-6.42-11.74-8.05-1.35-.38-2.56-.54-4.98-.85-1.67-.22-5.85-.7-14.84-.55-2.41.04-5.66.14-9.52.38-.7.03-1.85.19-2.87.99-2.01,1.57-1.87,4.32-1.84,4.95.08,1.63.72,2.82.89,3.14,1.01,1.95,6.07,12.3,15.21,29.26.28.52.49.92.83,1.45Z"/>
        <path class="cls-7" d="M52.76,55.08c-2.26-1.27-5.4-3.45-9.62-8.5-.94-1.13-4.04-4.68-7.2-10.52-2.58-4.76-5.21-10.48-7.44-17.11-1.31-3.91-2.31-7.62-3.07-11.05.02-.85.19-2.39,1.13-3.99.45-.77,1.82-2.79,4.4-3.58C31.95.01,32.82-.02,33.42,0c10.95.41,21.9.82,32.86,1.23,1.63.15,3.99.52,6.65,1.54,2.57.99,6.23,2.88,10.54,7.57,4.93,5.36,7.27,10.61,8.91,14.13,6.52,14.02,10.02,20.91,14.33,26.24,0,0,7.95,9.82,18.42,14.71,4.81,2.24,9.42,2.97,9.42,2.97,1.78.28,3.22.36,5.58.42,6.57.16,9.54-.07,12.9-.06,6.53.03,13.47.06,20.01,3.94,2.52,1.49,4.32,3.17,5.46,4.37,10.26,18.3,14.69,25.6,16.39,27.93.19.26,1.21,1.63,2.3,3.63,1.15,2.11,1.95,3.58,2.32,5.56.17.94.78,4.47-1.23,8.05-1.31,2.34-3.13,3.64-4.09,4.23-7.68,1.6-12.63,2.93-15.97,3.96-.97.3-2.98.93-5.73,1.09-3.63.21-6.42-.54-7.37-.82-3.88-1.14-6.31-3.11-8.87-5.19-1.39-1.13-4.46-3.78-7.37-8.05-1.69-2.48-2.64-4.5-3.41-6.14-3.98-8.44-7.44-15.66-8.6-18.02-3.52-7.15-5.27-10.72-8.46-14.74-1.66-2.09-7.3-8.85-17.14-14.01-3.25-1.7-10.78-5.55-20.66-6.06-.84-.04-4.29.02-11.19.14-4.11.07-8.28.17-13.78-.14-3-.16-6.28-.44-10.1-2.05-.3-.13-1.39-.59-2.76-1.36Z"/>
      </g>
      <g>
        <path class="cls-2" d="M267.74,60.24h16.31l28.21,55.16h-13.48l-5.36-10.4h-28.45l5.36-10.48h17.73l-12.21-23.8-22.85,44.68h-13.48l28.21-55.16Z"/>
        <path class="cls-2" d="M360.6,92.63c2.02,1.15,3.55,2.68,4.57,4.57,1.02,1.89,1.54,3.89,1.54,5.99s-.5,4.08-1.5,5.95c-1,1.87-2.5,3.38-4.49,4.53-2,1.16-4.41,1.73-7.25,1.73h-36.33v-10.48h33.17c1.47,0,2.6-.22,3.39-.67.79-.45,1.18-.98,1.18-1.61s-.42-1.18-1.26-1.65c-.84-.47-2-.71-3.47-.71h-19.94c-2.84,0-5.25-.58-7.25-1.73s-3.49-2.65-4.49-4.49c-1-1.84-1.5-3.81-1.5-5.91s.51-4.1,1.54-5.99c1.02-1.89,2.55-3.41,4.57-4.57,2.02-1.16,4.45-1.73,7.29-1.73h33.41v10.48h-30.26c-1.47,0-2.63.24-3.47.71-.84.47-1.26,1.02-1.26,1.65,0,.58.39,1.09,1.18,1.54.79.45,1.92.67,3.39.67h19.94c2.84,0,5.26.58,7.29,1.73Z"/>
        <path class="cls-2" d="M415.05,92.63c2.02,1.15,3.55,2.68,4.57,4.57,1.02,1.89,1.54,3.89,1.54,5.99s-.5,4.08-1.5,5.95c-1,1.87-2.5,3.38-4.49,4.53-2,1.16-4.41,1.73-7.25,1.73h-36.33v-10.48h33.17c1.47,0,2.6-.22,3.39-.67.79-.45,1.18-.98,1.18-1.61s-.42-1.18-1.26-1.65c-.84-.47-2-.71-3.47-.71h-19.94c-2.84,0-5.25-.58-7.25-1.73s-3.49-2.65-4.49-4.49c-1-1.84-1.5-3.81-1.5-5.91s.51-4.1,1.54-5.99c1.02-1.89,2.55-3.41,4.57-4.57,2.02-1.16,4.45-1.73,7.29-1.73h33.41v10.48h-30.26c-1.47,0-2.63.24-3.47.71-.84.47-1.26,1.02-1.26,1.65,0,.58.39,1.09,1.18,1.54.79.45,1.92.67,3.39.67h19.94c2.84,0,5.26.58,7.29,1.73Z"/>
        <path class="cls-2" d="M437.39,71.27h-11.5v-11.03h11.5v11.03ZM425.89,115.4v-39.4h11.5v39.4h-11.5Z"/>
        <path class="cls-2" d="M485.73,92.63c2.02,1.15,3.55,2.68,4.57,4.57,1.02,1.89,1.54,3.89,1.54,5.99s-.5,4.08-1.5,5.95c-1,1.87-2.5,3.38-4.49,4.53-2,1.16-4.41,1.73-7.25,1.73h-36.33v-10.48h33.17c1.47,0,2.6-.22,3.39-.67.79-.45,1.18-.98,1.18-1.61s-.42-1.18-1.26-1.65c-.84-.47-2-.71-3.47-.71h-19.94c-2.84,0-5.25-.58-7.25-1.73s-3.49-2.65-4.49-4.49c-1-1.84-1.5-3.81-1.5-5.91s.51-4.1,1.54-5.99c1.02-1.89,2.55-3.41,4.57-4.57,2.02-1.16,4.45-1.73,7.29-1.73h33.41v10.48h-30.26c-1.47,0-2.63.24-3.47.71-.84.47-1.26,1.02-1.26,1.65,0,.58.39,1.09,1.18,1.54.79.45,1.92.67,3.39.67h19.94c2.84,0,5.26.58,7.29,1.73Z"/>
        <path class="cls-2" d="M515.48,104.92v10.48h-5.83c-2.47,0-4.7-.58-6.7-1.73-2-1.15-3.56-2.73-4.69-4.73-1.13-2-1.7-4.23-1.7-6.7v-45.94h11.5v15.44h5.44v11.5h-5.44v15.52c0,1.79.33,3.26.99,4.41.65,1.15,1.9,1.73,3.74,1.73h2.68Z"/>
        <path class="cls-2" d="M536.99,92.71l20.8-3.47c0-.84-.37-1.5-1.1-1.97-.74-.47-1.68-.71-2.84-.71h-17.73c-1.73,0-2.92.59-3.55,1.77-.63,1.18-.92,2.8-.87,4.85v5.59c0,1.79.33,3.26.99,4.41.65,1.15,1.9,1.73,3.74,1.73h27.58v10.48h-30.73c-2.47,0-4.68-.58-6.62-1.73-1.95-1.15-3.49-2.73-4.65-4.73-1.16-2-1.76-4.23-1.81-6.7v-15.05c.05-2.21.7-4.16,1.93-5.87s2.81-3.01,4.73-3.9c1.92-.89,3.87-1.34,5.87-1.34h24.51c1.99,0,3.95.45,5.87,1.34,1.92.89,3.49,2.2,4.73,3.9s1.88,3.66,1.93,5.87l.08,2.13c0,4.94-2.29,7.7-6.85,8.28l-26,3.94v-8.83Z"/>
        <path class="cls-2" d="M586.87,88.33c-.63,1.18-.92,2.8-.87,4.85v5.59c0,1.79.33,3.26.99,4.41.65,1.15,1.9,1.73,3.74,1.73h17.1c1.84,0,3.08-.58,3.74-1.73s.98-2.63.98-4.41h11.51v3.47c-.05,2.47-.66,4.7-1.81,6.7-1.15,2-2.71,3.57-4.65,4.73-1.94,1.16-4.15,1.73-6.62,1.73h-23.4c-2.47,0-4.68-.58-6.62-1.73-1.95-1.15-3.49-2.73-4.65-4.73-1.16-2-1.76-4.23-1.81-6.7v-15.05c.05-2.21.7-4.16,1.93-5.87s2.81-3.01,4.73-3.9c1.92-.89,3.87-1.34,5.87-1.34h24.51c1.99,0,3.95.45,5.87,1.34,1.92.89,3.49,2.2,4.73,3.9s1.88,3.66,1.93,5.87v4.81h-11.51c-.11-1.73-.48-3.07-1.14-4.02-.66-.95-1.75-1.42-3.27-1.42h-17.73c-1.73,0-2.92.59-3.55,1.77Z"/>
        <path class="cls-2" d="M628.78,115.4v-59.1h11.5v59.1h-11.5ZM665.86,88.18c-.66-1.13-1.9-1.69-3.74-1.69h-16.55v-10.48h19.7c2.47,0,4.67.58,6.62,1.73,1.94,1.15,3.49,2.73,4.65,4.73,1.16,2,1.76,4.23,1.81,6.7v26.24h-11.51v-22.77c0-1.84-.33-3.32-.98-4.45Z"/>
        <g>
          <path class="cls-2" d="M690.8,60.24v10.48h46.65c3.05,0,4.52,1.95,4.41,5.83v5.59c0,1.79-.33,3.26-.99,4.41-.66,1.16-1.9,1.73-3.74,1.73h-34.83v-11.66h-11.5v38.77h11.5v-16.63h37.98c2.47,0,4.67-.58,6.62-1.73,1.94-1.15,3.49-2.73,4.65-4.73.58-1.01,1.02-2.07,1.33-3.2l-14.81-28.87h-47.27Z"/>
          <path class="cls-2" d="M896.71,95.27c1.94-2.34,2.97-5.21,3.07-8.63v-15.29c-.05-2.21-.7-4.16-1.93-5.87-1.24-1.71-2.81-3.01-4.73-3.9-1.92-.89-3.87-1.34-5.87-1.34h-39.21l-5.36,10.48h41.18c3.05,0,4.52,1.95,4.42,5.83v5.59c0,1.79-.33,3.26-.99,4.41-.66,1.16-1.9,1.73-3.74,1.73h-34.83v-11.66h-9.06l-2.44,4.77v34h11.5v-16.63h27.11l10.79,16.63h13.16l-10.88-16.63c3.26,0,5.86-1.17,7.8-3.5Z"/>
          <polygon class="cls-2" points="835.08 60.24 832.43 60.24 809.58 104.92 786.73 60.24 773.25 60.24 786.33 85.85 776.64 104.92 753.79 60.24 743 60.24 740.24 60.24 755.04 89.11 768.53 115.4 784.76 115.4 793.11 99.01 801.46 115.4 817.69 115.4 835.08 81.4 837.52 76.63 840.55 70.72 845.91 60.24 835.08 60.24"/>
        </g>
      </g>
    </g>
  </g>
</svg>