<?xml version="1.0" encoding="UTF-8"?>
<svg id="Camada_2" data-name="Camada 2" xmlns="http://www.w3.org/2000/svg" viewBox="0 0 94.99 75.99">
  <defs>
    <style>
      .cls-1 {
        fill: #fc0;
      }

      .cls-1, .cls-2, .cls-3 {
        fill-rule: evenodd;
      }

      .cls-2 {
        fill: #2b2171;
      }

      .cls-3 {
        fill: #008237;
      }
    </style>
  </defs>
  <g id="Layer_1" data-name="Layer 1">
    <g>
      <path class="cls-1" d="M19.67,55.33c5.31,17.89,35.15,22.57,54.65.55-19.89,27.1-60.24,26.73-66.42-.55h11.77Z"/>
      <path class="cls-3" d="M83.32,21.54h-11.67c.92-20.07-33.72-23.47-54.5,0,20.75-28.27,66.39-29.15,66.17,0h0Z"/>
      <path class="cls-2" d="M60,21.54h11.66l-1.53,17.13c-.28,3.15,2.11,5.7,5.32,5.7s6.05-2.55,6.34-5.69l1.53-17.14h11.66l-1.53,17.12h0v.12h-.01c-.91,9.4-9.4,17-19.02,17s-16.26-7.25-16.03-16.04l.09-1.04h0l.13-1.76v-.02c.46-5.15.92-10.26,1.38-15.4h0ZM21.14,31.81c-1.91,7.54-3.42,15.83-1.47,23.52H7.9c-1.55-6.83-.06-15.46,1.43-23.52H0l1.76-10.27h30.56v.03s-1.12,6.6-1.12,6.6c4.1-5.65,10.84-9.48,18.18-9.48,3.21,0,6.19.73,8.78,2.02l-.92,10.23c-1.8-1.85-4.37-2.99-7.32-2.99-6.04,0-11.37,4.8-11.9,10.71-.53,5.91,3.94,10.71,9.99,10.71,4.12,0,7.91-2.23,10.07-5.52l-1.04,11.67c-3.34,1.97-7.2,3.11-11.22,3.11-11.27,0-19.6-8.94-18.62-19.97.21-2.4.86-4.71,1.86-6.85h-7.92Z"/>
    </g>
  </g>
</svg>