<svg width="49" height="49" viewBox="0 0 49 49" fill="none" xmlns="http://www.w3.org/2000/svg">
<g clip-path="url(#clip0_81_844)">
<path fill-rule="evenodd" clip-rule="evenodd" d="M13.5048 47.0475C13.6259 47.7231 14.2146 48.1972 14.8778 48.1965L33.6845 48.2017C34.4144 48.2017 35.0139 47.6432 35.079 46.9302C35.8569 42.674 36.7556 38.4423 37.5921 34.198H10.9724C11.8137 38.4818 12.7213 42.752 13.5048 47.0475Z" fill="#225EC9"/>
<path fill-rule="evenodd" clip-rule="evenodd" d="M9.71948 15.0724L12.4568 13.2404C13.0972 12.8114 13.2687 11.9444 12.8397 11.3039C12.4108 10.6635 11.5437 10.4921 10.9033 10.9211L7.6386 13.106C7.20924 13.3452 6.9187 13.8036 6.9187 14.3301V18.5133H9.71948V15.0724Z" fill="#225EC9"/>
<path fill-rule="evenodd" clip-rule="evenodd" d="M36.1107 13.2402L38.848 15.0722V18.5132H41.6487V14.3299C41.6487 13.8036 41.3582 13.3451 40.9289 13.1058L37.6642 10.9208C37.0237 10.4918 36.1567 10.6632 35.7277 11.3037C35.2987 11.9442 35.4701 12.8113 36.1107 13.2402Z" fill="#225EC9"/>
<path d="M24.2837 10.5686C27.0912 10.5686 29.3672 8.29267 29.3672 5.48512C29.3672 2.67758 27.0912 0.401611 24.2837 0.401611C21.4762 0.401611 19.2002 2.67758 19.2002 5.48512C19.2002 8.29267 21.4762 10.5686 24.2837 10.5686Z" fill="#225EC9"/>
<path fill-rule="evenodd" clip-rule="evenodd" d="M42.489 21.3142H6.07862C5.30523 21.3142 4.67822 21.9412 4.67822 22.7146V29.9967C4.67822 30.7701 5.30523 31.3971 6.07862 31.3971H42.489C43.2624 31.3971 43.8894 30.7701 43.8894 29.9967V22.7146C43.8894 21.9412 43.2624 21.3142 42.489 21.3142ZM25.6791 26.4565C25.6272 27.1826 25.0231 27.756 24.2837 27.756C23.5376 27.756 22.9294 27.172 22.8874 26.4363C22.8858 26.4094 22.8833 26.3828 22.8833 26.3556C22.8833 26.3282 22.8858 26.3014 22.8874 26.2744C22.9286 25.5594 23.505 24.9893 24.2227 24.9583C24.2431 24.9575 24.2632 24.9552 24.2837 24.9552C24.3042 24.9552 24.324 24.9575 24.3442 24.9583C25.0554 24.9888 25.6282 25.5484 25.679 26.2541C25.6814 26.2878 25.6841 26.3214 25.6841 26.3556C25.6842 26.3897 25.6815 26.423 25.6791 26.4565Z" fill="#225EC9"/>
<path fill-rule="evenodd" clip-rule="evenodd" d="M35.0201 15.4345C35.0201 14.8219 34.6267 14.3012 34.0788 14.1112C32.4981 13.469 30.9026 12.9218 29.2807 12.5274C28.0874 12.2371 26.8891 12.0346 25.6841 11.9439V14.4565C25.6841 15.2299 25.0571 15.8569 24.2838 15.8569C23.5104 15.8569 22.8834 15.2299 22.8834 14.4565V11.9429C19.9661 12.1605 17.1676 13.024 14.4226 14.1436C13.8818 14.3636 13.554 14.8845 13.5538 15.4345L13.5474 18.5134H35.0201V15.4345Z" fill="#225EC9"/>
</g>
<defs>
<clipPath id="clip0_81_844">
<rect width="47.8" height="47.8" fill="white" transform="translate(0.383789 0.401611)"/>
</clipPath>
</defs>
</svg>
