<svg width="49" height="48" viewBox="0 0 49 48" fill="none" xmlns="http://www.w3.org/2000/svg">
<g clip-path="url(#clip0_81_621)">
<path d="M40.2797 31.6836V42.5022C36.4391 42.5022 12.1306 42.5022 8.28798 42.5022C8.28798 40.6433 8.28798 33.6655 8.28798 31.6836H3.92529V47.8002H44.6424V31.6836H40.2797Z" fill="#225EC9"/>
<path d="M11.0889 39.7011H37.479V17.2229C36.6554 17.7767 35.7214 18.1866 34.7447 18.4516L29.3687 23.6976C28.6992 24.351 27.9012 24.828 27.034 25.1081H32.6196V27.9089H15.9484V25.1081H23.3428C21.8077 24.6268 20.4476 23.4267 19.7708 21.9596H15.9484V19.1588H19.2107C19.2695 17.7508 19.8144 16.4269 20.7658 15.3843C18.8279 15.3843 12.9294 15.3843 11.0891 15.3843V39.7011H11.0889ZM15.9483 31.0574H32.6195V33.8582H15.9483V31.0574Z" fill="#225EC9"/>
<path d="M13.8396 12.5833H27.4187L22.9137 17.1883C21.6936 18.4353 21.7047 20.432 22.9382 21.6655C24.171 22.8983 26.1655 22.9098 27.4126 21.6929L33.2879 15.9597L34.2185 15.6872C36.8714 14.9102 38.6942 12.477 38.6942 9.71273L41.7205 8.86625V0H33.5613C15.6533 0 13.8396 12.5833 13.8396 12.5833Z" fill="#225EC9"/>
</g>
<defs>
<clipPath id="clip0_81_621">
<rect width="47.8" height="47.8" fill="white" transform="translate(0.383789)"/>
</clipPath>
</defs>
</svg>
