<svg width="49" height="49" viewBox="0 0 49 49" fill="none" xmlns="http://www.w3.org/2000/svg">
<g clip-path="url(#clip0_81_612)">
<path d="M10.2799 36.9039C15.7761 36.9039 20.0826 33.8283 20.0826 29.902V28.5016H16.9383L12.6828 13.6084C14.2321 13.3313 15.4887 13.0253 16.6336 12.7431C18.5689 12.2673 20.3333 11.8653 22.8834 11.7481V40.4489L11.2536 48.2004H37.3112L25.6842 40.449V11.7481C28.2344 11.8652 29.9987 12.2673 31.9339 12.7431C33.0789 13.0253 34.3355 13.3313 35.8848 13.6084L31.6293 28.5016H28.485V29.902C28.485 33.8283 32.7914 36.9039 38.2877 36.9039C43.7839 36.9039 48.1838 33.8283 48.1838 29.902V28.5016H44.9461L40.8677 14.2288C42.8616 14.3905 45.2864 14.4977 48.1838 14.4977V11.6969C39.7842 11.6969 36.1898 9.11082 33.1005 6.82968C30.9392 5.23267 28.8814 3.62325 25.6842 3.27651V0.400391H22.8834V3.27651C19.6862 3.62316 17.6284 5.23267 15.4671 6.82968C12.3778 9.11082 8.78343 11.6969 0.383789 11.6969V14.4977C3.28045 14.4977 5.70518 14.3907 7.69878 14.229L3.62149 28.5016H0.383789V29.902C0.383789 33.8283 4.78363 36.9039 10.2799 36.9039ZM42.0322 28.5016H34.5431L38.2874 15.397L42.0322 28.5016ZM10.2794 15.3949L14.0244 28.5016H6.53514L10.2794 15.3949Z" fill="#225EC9"/>
</g>
<defs>
<clipPath id="clip0_81_612">
<rect width="47.8" height="47.8" fill="white" transform="translate(0.383789 0.400391)"/>
</clipPath>
</defs>
</svg>
