<svg width="49" height="48" viewBox="0 0 49 48" fill="none" xmlns="http://www.w3.org/2000/svg">
<g clip-path="url(#clip0_81_865)">
<path d="M47.871 11.0303L34.2905 24.6106L47.5359 37.8657C47.9369 37.1762 48.1837 36.3859 48.1837 35.5324V12.6711C48.1837 12.0917 48.0644 11.5426 47.871 11.0303Z" fill="#225EC9"/>
<path d="M43.5077 7.99487H5.05989C4.28249 7.99487 3.55998 8.20362 2.91431 8.54075L23.3278 28.9541C23.9201 29.5463 24.9488 29.5463 25.5307 28.9541L45.8481 8.64652C45.1571 8.24293 44.3643 7.99487 43.5077 7.99487Z" fill="#225EC9"/>
<path d="M0.775992 10.8083C0.526349 11.3799 0.383789 12.0084 0.383789 12.6711V35.5324C0.383789 36.3724 0.624003 37.1501 1.01331 37.8321L14.4017 24.4341L0.775992 10.8083Z" fill="#225EC9"/>
<path d="M32.0772 26.8239L27.744 31.1674C25.9239 32.9669 22.9749 32.9964 21.1248 31.1674L16.6149 26.6472L3.37183 39.8809C3.89697 40.0855 4.4632 40.2083 5.05986 40.2083H43.5077C44.0898 40.2083 44.6416 40.0884 45.1561 39.8931L32.0772 26.8239Z" fill="#225EC9"/>
</g>
<defs>
<clipPath id="clip0_81_865">
<rect width="47.8" height="47.8" fill="white" transform="translate(0.383789 0.20166)"/>
</clipPath>
</defs>
</svg>
