<svg width="49" height="49" viewBox="0 0 49 49" fill="none" xmlns="http://www.w3.org/2000/svg">
<g clip-path="url(#clip0_81_887)">
<path d="M46.8695 26.422H30.3032C29.5792 26.422 28.989 27.0122 28.989 27.736C28.989 28.1047 29.1457 28.4369 29.39 28.6765L41.0552 40.3416C41.2948 40.5998 41.641 40.7614 42.0191 40.7614C42.4755 40.7614 42.8765 40.5308 43.1117 40.1804C45.9796 36.8513 47.824 32.6233 48.1561 27.9711C48.1745 27.8927 48.1837 27.8144 48.1837 27.7359C48.1838 27.0122 47.5981 26.422 46.8695 26.422Z" fill="#225EC9"/>
<path d="M25.3004 2.6073C24.5764 2.61173 23.991 3.19748 23.991 3.92133V22.3321C23.991 23.0607 24.5764 23.6508 25.3004 23.6508H43.7159C44.4399 23.6508 45.0299 23.0607 45.0299 22.3321C44.3797 11.7368 35.9005 3.25753 25.3004 2.6073Z" fill="#225EC9"/>
<path d="M35.421 39.2675L21.8378 25.6843C21.6073 25.4491 21.4691 25.1217 21.4691 24.7667L21.4642 5.58119C21.4642 4.85733 20.8788 4.27173 20.1548 4.27173C9.12123 4.94497 0.383789 14.111 0.383789 25.3108C0.383789 36.953 9.82221 46.3958 21.4642 46.3958C26.7758 46.3958 31.6263 44.4317 35.3334 41.1902C35.6193 40.9503 35.7992 40.5908 35.7992 40.1897C35.7992 39.8345 35.6561 39.5071 35.421 39.2675Z" fill="#225EC9"/>
</g>
<defs>
<clipPath id="clip0_81_887">
<rect width="47.8" height="47.8" fill="white" transform="translate(0.383789 0.601562)"/>
</clipPath>
</defs>
</svg>
