<svg width="49" height="49" viewBox="0 0 49 49" fill="none" xmlns="http://www.w3.org/2000/svg">
<g clip-path="url(#clip0_81_651)">
<path d="M42.1839 14.201C42.1839 12.2311 44.0546 9.91564 44.7736 9.19136C45.3205 8.64446 45.3205 7.75783 44.7736 7.21093L38.7738 1.211C38.2691 0.706208 37.4653 0.661862 36.9082 1.10821L36.0352 1.80729C32.8154 4.38251 28.1895 4.12606 25.2749 1.2111C25.0124 0.948382 24.6553 0.800781 24.2839 0.800781C23.9124 0.800781 23.5561 0.948382 23.2936 1.2111C20.379 4.12624 15.753 4.38251 12.534 1.80794C11.9986 1.37914 11.6585 1.10737 11.6585 1.10737C11.1012 0.661956 10.2982 0.706675 9.79394 1.2111L3.79401 7.21084C3.24851 7.75633 3.2487 8.64203 3.79224 9.18949C4.51306 9.91546 6.38371 12.231 6.38371 14.2009C6.38371 17.6812 5.70377 19.3811 4.98397 21.1808C4.19723 23.1475 3.38379 25.1811 3.38379 29.2007C3.38379 37.5023 10.3744 40.6646 15.9913 43.2056C19.1344 44.6275 22.1032 45.9705 23.0313 47.8266C23.2685 48.3011 23.7534 48.6008 24.2839 48.6008C24.8143 48.6008 25.2992 48.3011 25.5364 47.8266C26.4645 45.9705 29.4332 44.6275 32.5763 43.2056C38.1933 40.6646 45.1839 37.5023 45.1839 29.2007C45.1839 25.1811 44.3704 23.1475 43.5837 21.1808C42.864 19.3811 42.1839 17.6813 42.1839 14.201ZM35.2474 20.9591L30.782 25.312L31.8357 31.4585C31.9258 31.9838 31.7098 32.5148 31.2785 32.8281C30.8474 33.1413 30.2758 33.1828 29.8038 32.9347L24.2839 30.0328L18.7638 32.9347C18.7458 32.9442 18.0153 33.3559 17.289 32.828C16.8578 32.5147 16.6418 31.9837 16.7319 31.4583L17.7865 25.3119L13.3211 20.9591C12.9393 20.5871 12.8019 20.0306 12.9667 19.5236C13.1313 19.0167 13.5696 18.6472 14.0971 18.5705L20.2684 17.6737L23.0281 12.0814C23.2639 11.6034 23.7508 11.3007 24.2838 11.3007C24.8169 11.3007 25.3037 11.6033 25.5396 12.0813L28.2999 17.6738L34.4713 18.5706C34.9988 18.6473 35.4371 19.0168 35.6017 19.5237C35.7665 20.0306 35.6291 20.5871 35.2474 20.9591Z" fill="#225EC9"/>
<path d="M26.114 19.5734L24.2838 15.8652L22.454 19.5732C22.25 19.9866 21.8557 20.273 21.3996 20.3394L17.3076 20.9341L20.2684 23.8202C20.5985 24.1419 20.7491 24.6055 20.6712 25.0598L19.972 29.1352L23.632 27.2111C23.836 27.1039 24.0597 27.0502 24.2835 27.0502C24.5073 27.0502 24.7312 27.1038 24.9352 27.2111L28.5955 29.1353L27.8968 25.0596C27.819 24.6054 27.9695 24.1419 28.2995 23.8202L31.2604 20.9341L27.1683 20.3394C26.7124 20.2731 26.3181 19.9866 26.114 19.5734Z" fill="#225EC9"/>
</g>
<defs>
<clipPath id="clip0_81_651">
<rect width="47.8" height="47.8" fill="white" transform="translate(0.383789 0.800781)"/>
</clipPath>
</defs>
</svg>
