<svg width="49" height="48" viewBox="0 0 49 48" fill="none" xmlns="http://www.w3.org/2000/svg">
<g clip-path="url(#clip0_81_901)">
<path d="M40.1937 10.4973C36.7457 6.93064 32.2831 4.66266 27.44 3.97273L28.8204 2.59232C29.3673 2.04542 29.3673 1.15879 28.8204 0.611887C28.2736 0.0650808 27.3869 0.0650808 26.84 0.611887L23.2935 4.15824C22.7466 4.70504 22.7466 5.59177 23.2935 6.13867L26.8399 9.68502C27.1133 9.95847 27.4717 10.0952 27.8301 10.0952C28.1884 10.0952 28.5469 9.95847 28.8202 9.68502C29.3671 9.13821 29.3671 8.25148 28.8202 7.70458L28.0271 6.9115C31.8748 7.66444 35.4036 9.57215 38.1799 12.4439C41.6813 16.0659 43.6097 20.8358 43.6097 25.8748C43.6098 36.5313 34.9401 45.2009 24.2838 45.2009C13.6275 45.2009 4.95776 36.5312 4.95776 25.8749C4.95776 21.8087 6.2057 17.9189 8.56676 14.6263C10.8788 11.402 14.0661 8.99603 17.7843 7.66864C18.5127 7.40854 18.8923 6.60733 18.6323 5.87885C18.3723 5.15046 17.5709 4.77086 16.8425 5.03087C12.585 6.55085 8.93627 9.30458 6.29056 12.9942C3.58631 16.7656 2.15698 21.2197 2.15698 25.875C2.15698 31.7853 4.45857 37.3418 8.6378 41.521C12.817 45.7 18.3735 48.0017 24.2838 48.0017C30.1941 48.0017 35.7506 45.7001 39.9298 41.5209C44.109 37.3417 46.4106 31.7852 46.4106 25.8749C46.4106 20.1055 44.2027 14.6443 40.1937 10.4973Z" fill="#225EC9"/>
<path d="M9.89575 25.875C9.89575 33.8085 16.3502 40.263 24.2839 40.263C32.2175 40.263 38.672 33.8085 38.672 25.875C38.672 17.9414 32.2175 11.4867 24.2839 11.4867C16.3502 11.4867 9.89575 17.9413 9.89575 25.875ZM25.1436 27.1214C23.1278 26.4088 21.9598 25.8471 21.1125 25.1825C20.0697 24.3646 19.5923 22.952 19.8666 21.496C20.1643 19.9166 21.2657 18.6592 22.7413 18.2147C22.7617 18.2086 22.7818 18.2036 22.8021 18.1976V17.6338C22.8021 16.8604 23.4291 16.2334 24.2025 16.2334C24.9759 16.2334 25.6029 16.8604 25.6029 17.6338V18.1085C26.5807 18.3375 27.2631 18.7844 27.539 18.9906C28.1584 19.4538 28.2852 20.3313 27.8222 20.9508C27.359 21.5703 26.4817 21.6969 25.862 21.234C25.5655 21.0123 24.7471 20.5355 23.5491 20.8964C22.8413 21.1096 22.6583 21.8062 22.619 22.0146C22.5414 22.4264 22.6305 22.8139 22.8409 22.9788C23.5735 23.5532 24.8878 24.0604 26.0769 24.4807C28.2522 25.2496 29.4617 27.2648 29.0868 29.4951C28.9027 30.5901 28.3519 31.6061 27.5355 32.3562C26.9742 32.8719 26.32 33.2386 25.6029 33.4455V34.116C25.6029 34.8894 24.9759 35.5164 24.2025 35.5164C23.4291 35.5164 22.8021 34.8894 22.8021 34.116V33.5832C21.8705 33.4737 21.0931 33.1868 20.0476 32.5028C19.4003 32.0794 19.2189 31.2115 19.6423 30.5642C20.0657 29.9169 20.9337 29.7356 21.5809 30.1589C22.5502 30.7931 22.9168 30.8514 24.1932 30.8425C25.4499 30.8341 26.179 29.8974 26.3248 29.0307C26.3961 28.6074 26.4234 27.5738 25.1436 27.1214Z" fill="#225EC9"/>
</g>
<defs>
<clipPath id="clip0_81_901">
<rect width="47.8" height="47.8" fill="white" transform="translate(0.383789 0.20166)"/>
</clipPath>
</defs>
</svg>
