<svg width="49" height="48" viewBox="0 0 49 48" fill="none" xmlns="http://www.w3.org/2000/svg">
<g clip-path="url(#clip0_81_905)">
<path d="M40.4208 23.0174C40.2672 21.9944 39.3901 21.2571 38.3579 21.2571H21.6365L18.5998 17.6628C17.9562 16.9071 17.0115 16.4309 16.0177 16.4309H5.1533C4.37913 16.4309 3.64337 16.7934 3.14262 17.3863C2.64341 17.9808 2.4299 18.7949 2.56046 19.5583L2.84924 21.2571H2.65877C2.0505 21.2571 1.47448 21.5044 1.08126 21.9653C0.681887 22.4276 0.508314 23.0297 0.602013 23.6303L3.97515 45.5158C4.17945 46.8322 5.31305 47.8014 6.64479 47.8014H41.6619C42.2701 47.8014 42.8462 47.5342 43.2394 47.078C43.6341 46.6171 43.8123 46.0196 43.7217 45.419L40.4208 23.0174Z" fill="#225EC9"/>
<path d="M32.0955 6.68481H19.0161C18.1145 6.68481 17.3833 7.49892 17.3833 8.40211C17.3833 9.3053 18.116 10.1194 19.0161 10.1194H32.0955C33.0002 10.1194 33.7298 9.3053 33.7298 8.40211C33.7298 7.49892 32.9971 6.68481 32.0955 6.68481Z" fill="#225EC9"/>
<path d="M47.505 18.7197C47.1287 18.2819 46.5773 18.007 45.9982 18.007H42.2871L43.1319 25.8331L45.1487 39.5054L47.972 20.3172C48.0503 19.7458 47.8844 19.159 47.505 18.7197Z" fill="#225EC9"/>
<path d="M14.2451 3.15803H37.0767V18.6582H40.2348V2.00907C40.2333 0.909264 39.3148 0.00146484 38.2149 0.00146484H12.9655C11.7582 0.00146484 10.812 0.995282 10.812 2.20261V14.2021H14.2451V3.15803Z" fill="#225EC9"/>
<path d="M32.0953 12.9963H19.0159C18.231 12.9963 17.5767 13.6169 17.4185 14.3772C18.5382 14.6629 19.5566 15.2727 20.3231 16.1713L20.5612 16.4294H32.0953C33 16.4294 33.7297 15.6153 33.7297 14.7121C33.7297 13.8089 32.997 12.9963 32.0953 12.9963Z" fill="#225EC9"/>
</g>
<defs>
<clipPath id="clip0_81_905">
<rect width="47.8" height="47.8" fill="white" transform="translate(0.383789 0.00146484)"/>
</clipPath>
</defs>
</svg>
