<svg width="49" height="49" viewBox="0 0 49 49" fill="none" xmlns="http://www.w3.org/2000/svg">
<g clip-path="url(#clip0_81_923)">
<path d="M9.5992 45.5988H5.14185L10.1713 40.5201C10.7155 39.9706 10.7112 39.0839 10.1616 38.5397C9.61208 37.9956 8.72545 37.9996 8.18116 38.5494L3.18457 43.595V39.1077C3.18457 38.3343 2.55757 37.7073 1.78418 37.7073C1.01079 37.7073 0.383789 38.3343 0.383789 39.1077V46.9992C0.383789 47.7726 1.01079 48.3996 1.78418 48.3996H9.5992C10.3726 48.3996 10.9996 47.7726 10.9996 46.9992C10.9996 46.2258 10.3726 45.5988 9.5992 45.5988Z" fill="#225EC9"/>
<path d="M46.7833 37.7073C46.0099 37.7073 45.3829 38.3343 45.3829 39.1077V43.595L40.6211 38.7866C40.0768 38.237 39.1901 38.2328 38.6407 38.7769C38.0911 39.3212 38.0868 40.2078 38.631 40.7573L43.4256 45.5988H38.9683C38.1949 45.5988 37.5679 46.2258 37.5679 46.9992C37.5679 47.7726 38.1949 48.3996 38.9683 48.3996H46.7833C47.5567 48.3996 48.1837 47.7726 48.1837 46.9992V39.1077C48.1837 38.3343 47.5567 37.7073 46.7833 37.7073Z" fill="#225EC9"/>
<path d="M30.2628 17.524V10.9862C30.2628 8.57521 28.3084 6.62073 25.8975 6.62073H22.7865C20.3756 6.62073 18.4211 8.57521 18.4211 10.9862V17.524C18.4211 19.355 19.5489 20.9218 21.1474 21.5701V23.4124C21.1474 23.4124 20.1941 23.6467 18.8709 24.0688L24.3272 30.7326L29.7384 24.0449C28.454 23.6376 27.5367 23.4123 27.5367 23.4123V21.57C29.1351 20.9217 30.2628 19.3549 30.2628 17.524Z" fill="#225EC9"/>
<path d="M32.5305 25.0468L25.4223 33.8316C25.1573 34.159 24.759 34.3498 24.3378 34.351C24.3364 34.351 24.3351 34.351 24.3337 34.351C23.9138 34.351 23.5162 34.1627 23.2502 33.8378L16.0776 25.078C13.7385 26.0398 11.3903 27.3604 11 28.8857V35.2179C11 36.4268 11.98 37.4068 13.1889 37.4068H35.4952C36.7041 37.4068 37.6841 36.4268 37.6841 35.2179V28.8858C37.2895 27.3439 34.8946 26.0111 32.5305 25.0468Z" fill="#225EC9"/>
<path d="M46.7833 0.599609H38.9683C38.1949 0.599609 37.5679 1.22661 37.5679 2C37.5679 2.77339 38.1949 3.40039 38.9683 3.40039H43.4256L38.3962 8.47914C37.852 9.02865 37.8563 9.91538 38.4059 10.4596C38.6789 10.7299 39.0351 10.8649 39.3913 10.8649C39.7518 10.8649 40.1126 10.7265 40.3863 10.45L45.3829 5.40426V9.89157C45.3829 10.665 46.0099 11.292 46.7833 11.292C47.5567 11.292 48.1837 10.665 48.1837 9.89157V2C48.1837 1.22661 47.5567 0.599609 46.7833 0.599609Z" fill="#225EC9"/>
<path d="M10.9996 2C10.9996 1.22661 10.3726 0.599609 9.5992 0.599609H1.78418C1.01079 0.599609 0.383789 1.22661 0.383789 2V9.89157C0.383789 10.665 1.01079 11.292 1.78418 11.292C2.55757 11.292 3.18457 10.665 3.18457 9.89157V5.40426L7.94636 10.2126C8.22028 10.4892 8.58074 10.6276 8.94139 10.6276C9.29746 10.6276 9.65382 10.4926 9.9268 10.2223C10.4764 9.67806 10.4807 8.79133 9.93651 8.24182L5.14185 3.40039H9.5992C10.3726 3.40039 10.9996 2.77339 10.9996 2Z" fill="#225EC9"/>
</g>
<defs>
<clipPath id="clip0_81_923">
<rect width="47.8" height="47.8" fill="white" transform="translate(0.383789 0.599609)"/>
</clipPath>
</defs>
</svg>
