<?xml version="1.0" encoding="UTF-8"?>
<svg id="Camada_2" xmlns="http://www.w3.org/2000/svg" viewBox="0 0 154.54 155.53">
  <defs>
    <style>
      .cls-1 {
        fill: #2864ae;
      }

      .cls-2 {
        fill: #fabd10;
      }

      .cls-3 {
        fill: #46ad44;
      }
    </style>
  </defs>
  <g id="svg2">
    <g>
      <path class="cls-3" d="M150.87,2.69L2.68,150.87s0,0,0,0c-.04.02-.07.06-.1.1-1.58-1.6-2.57-3.78-2.57-6.2V8.85C0,3.96,3.96,0,8.85,0h135.91c.61,0,1.34.06,2.15.27,2.02.52,3.38,1.65,4.07,2.32"/>
      <path class="cls-2" d="M152.18,4.04c-.06-.08-.12-.17-.18-.25-.03-.05-.07-.09-.1-.14-.04-.04-.16.09-.11.13L3.76,151.78s-.03-.02-.05-.04c-.03.05-.07.09-.12.11.11.09.23.18.35.27,1.69,1.64,3.89,3.41,6.19,3.41h69.06v-.99h.12s0,0,0,0h-.12v-.27c0-.22.01-.43.02-.65h.04s0-.05,0-.07h-.04c.4-40.88,33.45-73.93,74.33-74.31h0s.01,0,.02,0c.02,0,.03,0,.05,0v-.02c.22,0,.43-.02.65-.02h.28V10.13c0-2.26-.85-4.43-2.36-6.09Z"/>
      <path class="cls-1" d="M153.61,80.25v-.02s-.03,0-.05,0c0,0-.01,0-.02,0v.02c-40.08.9-72.39,33.21-73.31,73.29h-.04s0,.05,0,.07h.03c0,.31-.02.61-.02.92h-.09s0,0,0,0h.09c0,.24-.02.48-.02.72v.27h66.22c4.97-.02,8-4,8.12-8.94,0-.06,0-.12,0-.18v-66.12s-.01-.04-.02-.07c-.31,0-.61.02-.91.02ZM146.29,143.89l-2.28,2.24s-.03.03-.04.04c-.46.43-1.18.42-1.61-.04l-7.18-7.17c-.1-.16-.27-.26-.46-.29-.35-.05-.67.2-.72.55l-2.21,6.6c-.2.59-.55.59-.76,0l-7.93-22.16c-.21-.59.1-.91.69-.69l22.17,7.93c.59.21.59.54,0,.74l-6.6,2.23c-.19.02-.35.13-.46.29-.19.3-.11.69.19.88l7.18,7.18s.01.01.02.02c.45.46.44,1.19-.02,1.63Z"/>
    </g>
  </g>
</svg>