<?xml version="1.0" encoding="UTF-8"?>
<svg id="Camada_2" xmlns="http://www.w3.org/2000/svg" viewBox="0 0 153.61 153.61">
  <defs>
    <style>
      .cls-1 {
        fill: #2864ae;
      }

      .cls-2 {
        fill: #fff;
      }

      .cls-3 {
        fill: #fabd10;
      }

      .cls-4 {
        fill: #46ad44;
      }
    </style>
  </defs>
  <g id="svg2">
    <rect id="Rectangle_102" class="cls-4" width="153.61" height="153.61" rx="8.85" ry="8.85"/>
    <path id="Path_434" class="cls-3" d="M2.68,150.87c1.71,1.71,4.04,2.67,6.45,2.67h135.28c5.03-.02,9.11-4.09,9.13-9.12V9.13c0-2.42-.96-4.73-2.67-6.44"/>
    <path id="Path_435" class="cls-1" d="M153.54,78.21h-.28c-41.45,0-75.06,33.6-75.07,75.05v.28h66.2c5.04,0,9.13-4.09,9.15-9.13v-66.2Z"/>
    <path id="Path_436" class="cls-2" d="M145.29,142.89c.46-.45.46-1.18.02-1.63,0,0-.01-.01-.02-.02l-7.18-7.18c-.3-.19-.38-.59-.19-.88.1-.16.27-.26.46-.29l6.6-2.23c.59-.2.59-.53,0-.74l-22.17-7.93c-.59-.21-.91.1-.69.69l7.93,22.16c.21.59.56.59.76,0l2.21-6.6c.05-.35.37-.6.72-.55.19.02.35.13.46.29l7.18,7.17c.43.46,1.15.47,1.61.04.01-.01.03-.03.04-.04l2.28-2.24Z"/>
  </g>
</svg>