<svg width="49" height="49" viewBox="0 0 49 49" fill="none" xmlns="http://www.w3.org/2000/svg">
<g clip-path="url(#clip0_81_710)">
<path d="M46.7834 41.1011H29.3638L28.274 42.1909C28.0114 42.4535 27.6552 42.6011 27.2838 42.6011H21.2838C20.9123 42.6011 20.5561 42.4535 20.2936 42.1909L19.2038 41.1011H1.78418C1.01079 41.1011 0.383789 41.7281 0.383789 42.5015V44.2006C0.383789 46.6594 2.38075 48.6009 4.78419 48.6009H43.7834C46.2423 48.6009 48.1838 46.604 48.1838 44.2006V42.5015C48.1838 41.728 47.5568 41.1011 46.7834 41.1011Z" fill="#225EC9"/>
<path d="M28.6841 2.78149V7.00012H32.9026L28.6841 2.78149Z" fill="#225EC9"/>
<path d="M20.7741 38.7105L21.8639 39.8003H26.7038L27.7936 38.7105C28.0561 38.4479 28.4124 38.3003 28.7838 38.3003H43.6839V18.7011C43.6839 16.2748 41.7099 14.3008 39.2836 14.3008H37.684V30.9001C37.684 33.2166 35.7994 35.1012 33.4828 35.1012H15.0849C12.7684 35.1012 10.8837 33.2166 10.8837 30.9001V14.3008H9.2841C6.85778 14.3008 4.88379 16.2748 4.88379 18.7011V38.3003H19.7839C20.1553 38.3004 20.5116 38.4479 20.7741 38.7105Z" fill="#225EC9"/>
<path d="M15.0847 32.3005H33.4827C34.2561 32.3005 34.8831 31.6735 34.8831 30.9001V9.80087H27.2837C26.5103 9.80087 25.8833 9.17387 25.8833 8.40048V0.801025H15.0847C14.3113 0.801025 13.6843 1.42803 13.6843 2.20142V30.9001C13.6843 31.6735 14.3112 32.3005 15.0847 32.3005ZM18.2838 6.80095H21.2837C23.1385 6.8692 23.1395 9.53311 21.2837 9.60173H18.2838C16.429 9.53339 16.428 6.86957 18.2838 6.80095ZM18.2838 12.8008H21.2837C23.1385 12.869 23.1395 15.5329 21.2837 15.6016H18.2838C16.429 15.5333 16.428 12.8695 18.2838 12.8008ZM18.2838 18.8007H30.2835C31.0569 18.8007 31.6839 19.4277 31.6839 20.2011C31.6839 20.9745 31.0569 21.6015 30.2835 21.6015H18.2838C16.4315 21.5344 16.4256 18.8702 18.2838 18.8007ZM18.2838 24.8006H30.2835C31.0569 24.8006 31.6839 25.4276 31.6839 26.201C31.6839 26.9744 31.0569 27.6014 30.2835 27.6014H18.2838C16.4315 27.5343 16.4256 24.8701 18.2838 24.8006Z" fill="#225EC9"/>
</g>
<defs>
<clipPath id="clip0_81_710">
<rect width="47.8" height="47.8" fill="white" transform="translate(0.383789 0.801025)"/>
</clipPath>
</defs>
</svg>
