<svg width="49" height="49" viewBox="0 0 49 49" fill="none" xmlns="http://www.w3.org/2000/svg">
<g clip-path="url(#clip0_81_1025)">
<path d="M24.2838 0.799805C11.1565 0.799805 0.383789 11.5725 0.383789 24.6998C0.383789 37.8271 11.1565 48.5998 24.2838 48.5998C37.411 48.5998 48.1838 37.8271 48.1838 24.6998C48.1838 11.5725 37.411 0.799805 24.2838 0.799805ZM24.2838 40.1041C22.7398 40.1041 21.483 38.8473 21.483 37.3033C21.483 35.7593 22.7398 34.5025 24.2838 34.5025C25.8278 34.5025 27.0846 35.7593 27.0846 37.3033C27.0846 38.8473 25.8278 40.1041 24.2838 40.1041ZM29.2467 24.4756C27.8518 25.5012 27.0846 26.8113 27.0846 28.1638V31.7018H21.483V28.1638C21.483 25.0253 23.1049 22.0344 25.9331 19.9598C26.6647 19.4237 27.0846 18.599 27.0846 17.6979C27.0846 16.1539 25.8278 14.8971 24.2838 14.8971C22.7398 14.8971 21.483 16.1539 21.483 17.6979H15.8814C15.8814 13.0645 19.6505 9.29551 24.2838 9.29551C28.9171 9.29551 32.6861 13.0645 32.6861 17.6979C32.6861 20.3619 31.4006 22.896 29.2467 24.4756Z" fill="#225EC9"/>
</g>
<defs>
<clipPath id="clip0_81_1025">
<rect width="47.8" height="47.8" fill="white" transform="translate(0.383789 0.799805)"/>
</clipPath>
</defs>
</svg>
