<svg width="49" height="48" viewBox="0 0 49 48" fill="none" xmlns="http://www.w3.org/2000/svg">
<g clip-path="url(#clip0_81_763)">
<path d="M15.1873 35.3631C14.2755 36.1957 14.2396 37.6208 15.1161 38.4973C15.9894 39.3706 17.4144 39.3416 18.2502 38.4261L25.9205 30.0254L23.5881 27.6929L15.1873 35.3631Z" fill="#225EC9"/>
<path d="M23.0706 46.4994C23.1254 40.9261 27.6645 36.3315 33.2463 36.3315H37.6342V29.5783C37.9636 29.2488 43.494 23.7184 43.6345 23.5779C44.1814 23.031 44.1814 22.1443 43.6345 21.5974C43.0877 21.0505 42.2009 21.0505 41.654 21.5974L41.0599 22.1916L37.6342 18.7657V1.60181C37.6342 0.828791 37.0068 0.201416 36.2338 0.201416H1.78418C1.01116 0.201416 0.383789 0.828791 0.383789 1.60181V46.601C0.383789 47.374 1.01116 48.0014 1.78418 48.0014H23.3116C23.1442 47.526 23.0579 47.0336 23.0706 46.4994ZM10.9325 21.1279V20.9936C10.2873 20.8804 9.69779 20.639 8.95306 20.1518C8.3058 19.7284 8.1244 18.8604 8.54779 18.2132C8.97117 17.566 9.83913 17.3846 10.4863 17.808C11.1689 18.2546 11.3901 18.2894 12.3233 18.2829C13.2242 18.2769 13.5832 17.5697 13.6533 17.1529C13.7163 16.7786 13.6456 16.281 12.9515 16.0357C11.7888 15.6247 10.5966 15.153 9.75194 14.4905C7.82864 12.982 8.40924 9.53661 10.9326 8.61972V8.41704C10.9326 7.64365 11.5596 7.01665 12.3329 7.01665C13.1063 7.01665 13.7333 7.64365 13.7333 8.41704V8.49472C14.4234 8.68946 14.979 9.04162 15.3608 9.4299C15.9031 9.98137 15.8956 10.868 15.3443 11.4102C14.7931 11.9523 13.9071 11.9451 13.3648 11.3946C13.2867 11.3184 12.8553 10.9587 11.9213 11.2399C11.5484 11.3523 11.4483 11.739 11.4264 11.8547C11.3809 12.0965 11.4458 12.2595 11.4805 12.2868C12.0087 12.7011 12.9924 13.0795 13.885 13.3952C17.576 14.6998 17.1264 19.6087 13.7333 20.8353V21.128C13.7333 21.9014 13.1063 22.5284 12.3329 22.5284C11.5596 22.5284 10.9325 21.9013 10.9325 21.1279ZM13.1357 40.4778C11.1381 38.4803 11.1967 35.2142 13.2987 33.2948L22.6877 24.7223C23.2408 24.2174 24.0929 24.2368 24.6222 24.7662L25.7445 25.8885L27.989 23.644L24.1601 19.815L23.5659 20.4092C23.0191 20.9561 22.1324 20.9562 21.5855 20.4092C21.0386 19.8623 21.0386 18.9757 21.5855 18.4288L30.0355 9.97885C30.5823 9.43195 31.469 9.43195 32.0159 9.97885C32.5628 10.5257 32.5628 11.4124 32.0159 11.9593L31.4217 12.5535L37.6342 18.7659V22.7265L39.0796 24.1719L37.6342 25.6174V22.7272L29.4411 14.534L26.1408 17.8343L35.7791 27.4726L37.6342 25.6176V29.5779L36.7687 30.4433C36.225 30.987 35.3379 30.9925 34.7886 30.4433L29.9696 25.6243L27.725 27.8688L28.8473 28.9911C29.3767 29.5205 29.3961 30.3726 28.8913 30.9256L20.3187 40.3146C18.4133 42.4013 15.1476 42.4897 13.1357 40.4778Z" fill="#225EC9"/>
<path d="M40.8083 39.1323C38.0936 39.1323 35.959 39.1323 33.2462 39.1323C29.1963 39.1323 25.8983 42.507 25.871 46.5507C25.8432 47.3387 26.4741 48.0015 27.2712 48.0015H46.7833C47.5563 48.0015 48.1837 47.3741 48.1837 46.6011C48.1837 42.5343 44.8751 39.1323 40.8083 39.1323Z" fill="#225EC9"/>
</g>
<defs>
<clipPath id="clip0_81_763">
<rect width="47.8" height="47.8" fill="white" transform="translate(0.383789 0.201416)"/>
</clipPath>
</defs>
</svg>
