<svg width="49" height="48" viewBox="0 0 49 48" fill="none" xmlns="http://www.w3.org/2000/svg">
<g clip-path="url(#clip0_81_1049)">
<path d="M24.2837 5.80068C25.0572 5.80068 25.6841 5.17379 25.6841 4.40029V1.40039C25.6841 0.626894 25.0572 0 24.2837 0C23.5102 0 22.8833 0.626894 22.8833 1.40039V4.40029C22.8833 5.17379 23.5102 5.80068 24.2837 5.80068Z" fill="#225EC9"/>
<path d="M9.28394 17.8006H12.2842C13.0573 17.8006 13.6846 17.1734 13.6846 16.4003C13.6846 15.6268 13.0573 14.9999 12.2842 14.9999H9.28394C8.5108 14.9999 7.88354 15.6268 7.88354 16.4003C7.88354 17.1734 8.5108 17.8006 9.28394 17.8006Z" fill="#225EC9"/>
<path d="M34.8831 16.4003C34.8831 17.1734 35.5103 17.8006 36.2834 17.8006H39.2837C40.0568 17.8006 40.6841 17.1734 40.6841 16.4003C40.6841 15.6268 40.0568 14.9999 39.2837 14.9999H36.2834C35.5103 14.9999 34.8831 15.6268 34.8831 16.4003Z" fill="#225EC9"/>
<path d="M14.8081 8.90524C15.3548 9.4519 16.2413 9.45227 16.7883 8.90524C17.3354 8.35858 17.3354 7.47203 16.7887 6.925L14.6677 4.80363C14.121 4.2566 13.2341 4.2566 12.6871 4.80326C12.1404 5.35029 12.1404 6.23684 12.6871 6.78387L14.8081 8.90524Z" fill="#225EC9"/>
<path d="M33.7595 8.90524L35.8805 6.78387C36.4271 6.23684 36.4271 5.35029 35.8805 4.80326C35.3334 4.2566 34.4469 4.2566 33.8999 4.80363L31.7788 6.925C31.2322 7.47166 31.2322 8.35858 31.7792 8.90524C32.3259 9.4519 33.2128 9.45227 33.7595 8.90524Z" fill="#225EC9"/>
<path d="M10.784 35.9995C14.0924 35.9995 16.7841 33.3078 16.7841 29.9994C16.7841 26.6909 14.0924 23.9996 10.784 23.9996C7.47592 23.9996 4.78418 26.6913 4.78418 29.9994C4.78418 33.3078 7.47592 35.9995 10.784 35.9995Z" fill="#225EC9"/>
<path d="M10.7839 35.9995C5.04009 35.9995 0.383789 40.6558 0.383789 46.3996C0.383789 47.1731 1.01068 47.8 1.78418 47.8H19.7839C20.5574 47.8 21.1843 47.1731 21.1843 46.3996C21.1843 40.6558 16.528 35.9995 10.7839 35.9995Z" fill="#225EC9"/>
<path d="M31.7839 29.9994C31.7839 33.3078 34.4753 35.9995 37.7837 35.9995C41.0922 35.9995 43.7835 33.3078 43.7835 29.9994C43.7835 26.6909 41.0922 23.9996 37.7837 23.9996C34.4753 23.9996 31.7839 26.6913 31.7839 29.9994Z" fill="#225EC9"/>
<path d="M37.7838 35.9995C32.0396 35.9995 27.3833 40.6558 27.3833 46.3996C27.3833 47.1731 28.0102 47.8 28.7837 47.8H46.7835C47.5569 47.8 48.1838 47.1731 48.1838 46.3996C48.1838 40.6558 43.5275 35.9995 37.7838 35.9995Z" fill="#225EC9"/>
<path d="M18.9189 22.0474C19.6979 22.7994 20.207 23.7946 20.3707 24.8558H28.2067C28.3704 23.7957 28.8792 22.8019 29.6578 22.0514C31.2219 20.5635 32.0822 18.5566 32.0822 16.401C32.0822 12.1006 28.5841 8.60146 24.2838 8.60146C19.9834 8.60146 16.4854 12.1002 16.4854 16.401C16.4854 18.5311 17.3719 20.5894 18.9189 22.0474Z" fill="#225EC9"/>
<path d="M20.4998 27.6566C20.8458 29.4294 22.4103 30.7714 24.2837 30.7714C26.175 30.7714 27.7234 29.4206 28.0677 27.6566H20.4998Z" fill="#225EC9"/>
</g>
<defs>
<clipPath id="clip0_81_1049">
<rect width="47.8" height="47.8" fill="white" transform="translate(0.383789)"/>
</clipPath>
</defs>
</svg>
