<svg width="49" height="49" viewBox="0 0 49 49" fill="none" xmlns="http://www.w3.org/2000/svg">
<g clip-path="url(#clip0_81_1077)">
<path d="M24.8896 36.3001V38.9282H27.5177L24.8896 36.3001Z" fill="#225EC9"/>
<path d="M19.7727 14.0358L42.5823 36.8453V4.85299C42.5823 4.07998 41.9549 3.45261 41.1819 3.45261H10.0905V35.1406C10.0905 35.8221 9.53777 36.3748 8.85624 36.3748C8.72647 36.3757 6.97412 36.3869 6.22818 36.3916C4.58226 36.3916 3.23882 37.6893 3.17627 39.3025C3.20521 39.8944 3.12772 40.6469 4.09399 41.7345C4.97063 42.6168 6.08067 42.6495 6.30567 42.6513H12.7643V16.9393C12.7643 15.2709 13.7595 13.7819 15.299 13.1461C15.7994 12.9379 16.3278 12.8333 16.8693 12.8333C17.9662 12.8333 18.9979 13.26 19.7727 14.0358ZM37.4475 16.324H28.2927C27.5187 16.324 26.8923 15.6967 26.8923 14.9237C26.8923 14.1506 27.5187 13.5233 28.2927 13.5233H37.4475C38.2205 13.5233 38.8479 14.1506 38.8479 14.9237C38.8479 15.6967 38.2205 16.324 37.4475 16.324ZM22.6911 7.92171H37.4475C38.2158 7.92171 38.8479 8.55375 38.8479 9.3221C38.8479 10.0904 38.2158 10.7225 37.4475 10.7225H22.6911C21.9228 10.7225 21.2908 10.0904 21.2908 9.3221C21.2908 8.55375 21.9228 7.92171 22.6911 7.92171Z" fill="#225EC9"/>
<path d="M7.28957 33.5843V1.90376C7.28957 1.18023 6.6298 0.627171 5.92046 0.769823C2.76249 1.40504 0.383789 4.19489 0.383789 7.53986V38.8535C0.505063 37.4801 1.17697 36.1919 2.17068 35.219C3.26579 34.1715 4.70259 33.5936 6.21781 33.5908C6.48761 33.5889 6.88532 33.5861 7.28957 33.5843Z" fill="#225EC9"/>
<path d="M47.8019 46.0253L17.7925 16.0159C17.4191 15.6425 16.858 15.5314 16.3706 15.7331C15.8824 15.9347 15.5649 16.4109 15.5649 16.9393V46.9477C15.5649 47.6684 16.1494 48.2529 16.8701 48.2529H46.8786C47.406 48.2529 47.8831 47.9336 48.0848 47.4472C48.2864 46.9608 48.1744 46.3978 47.8019 46.0253ZM22.0889 41.7289V29.5381L34.2797 41.7289H22.0889Z" fill="#225EC9"/>
</g>
<defs>
<clipPath id="clip0_81_1077">
<rect width="47.8" height="47.8" fill="white" transform="translate(0.383789 0.600098)"/>
</clipPath>
</defs>
</svg>
