<svg width="39" height="48" viewBox="0 0 39 48" fill="none" xmlns="http://www.w3.org/2000/svg">
<path d="M22.291 26.9539V48.0012H38.1699V26.9539H22.291ZM28.7304 44.8531H25.7553V42.0523H28.7304V44.8531ZM28.7304 38.878H25.7553V36.0771H28.7304V38.878ZM34.7056 44.8531H31.7304V42.0523H34.7056V44.8531ZM34.7056 38.878H31.7304V36.0771H34.7056V38.878ZM34.7056 32.9028H25.7553V30.102H34.7056V32.9028Z" fill="#225EC9"/>
<path d="M25.6548 1.60156V7.76341H31.8166L25.6548 1.60156Z" fill="#225EC9"/>
<path d="M33.2176 24.1017V10.5643H22.8545V0.201172H0.397705V45.0146H19.4896V24.154H33.1876L33.2176 24.1017ZM7.81704 38.946H4.84189V36.1452H7.81704V38.946ZM7.81704 32.971H4.84189V30.1702H7.81704V32.971ZM7.81704 26.996H4.84189V24.1951H7.81704V26.996ZM11.4644 20.7007H8.66355V19.1068C6.83861 18.7616 5.45369 17.1561 5.45369 15.2322H8.25453C8.25453 15.8626 8.76736 16.3755 9.39774 16.3755H10.7621C11.3917 16.3755 11.9038 15.8633 11.9038 15.2338C11.9038 14.6042 11.3917 14.092 10.7621 14.092H9.36581C7.19189 14.092 5.42325 12.3235 5.42325 10.1495C5.42325 8.21531 6.82367 6.60315 8.66355 6.27087V4.68261H11.4644V6.26714C13.2916 6.58886 14.6845 8.18656 14.6845 10.1045H11.8837C11.8837 9.49978 11.3917 9.00786 10.787 9.00786H9.36581C8.73627 9.00786 8.22409 9.51994 8.22409 10.1496C8.22409 10.7792 8.73627 11.2913 9.36581 11.2913H10.7622C12.9361 11.2913 14.7048 13.0598 14.7048 15.2338C14.7048 17.168 13.3044 18.7802 11.4645 19.1125L11.4644 20.7007ZM10.817 38.946L10.8169 36.1452L15.292 36.145L15.2921 38.9459L10.817 38.946ZM10.817 32.971L10.8169 30.1702L15.292 30.17L15.2921 32.9708L10.817 32.971ZM10.8171 26.996L10.8169 24.1951L15.292 24.1949L15.2922 26.9957L10.8171 26.996Z" fill="#225EC9"/>
</svg>
