<svg width="49" height="49" viewBox="0 0 49 49" fill="none" xmlns="http://www.w3.org/2000/svg">
<g clip-path="url(#clip0_81_742)">
<path d="M17.2817 37.3982V41.5994C17.2817 42.372 17.9095 42.9998 18.6821 42.9998H29.8853C30.6579 42.9998 31.2856 42.372 31.2856 41.5994V37.3982H17.2817Z" fill="#225EC9"/>
<path d="M43.9826 37.3982H34.0865V41.5994C34.0865 43.916 32.202 45.8005 29.8854 45.8005H18.6822C16.3656 45.8005 14.4811 43.916 14.4811 41.5994V37.3982H4.58496C2.26834 37.3982 0.383789 39.2827 0.383789 41.5994V44.4001C0.383789 46.7168 2.26834 48.6013 4.58496 48.6013H43.9826C46.2992 48.6013 48.1838 46.7168 48.1838 44.4001V41.5994C48.1838 39.2827 46.2992 37.3982 43.9826 37.3982Z" fill="#225EC9"/>
<path d="M41.0884 12.1911H36.8872V9.39033H41.0884C41.8624 9.39033 42.4888 8.76398 42.4888 7.98994V2.20166C42.4888 1.42762 41.8624 0.80127 41.0884 0.80127H24.2837C23.5096 0.80127 22.8833 1.42762 22.8833 2.20166V7.98994C22.8833 8.76398 23.5096 9.39033 24.2837 9.39033H28.4849V12.1911H7.479C5.16238 12.1911 3.27783 14.0757 3.27783 16.3923V34.5974H45.2896V16.3923C45.2896 14.0757 43.405 12.1911 41.0884 12.1911ZM22.8833 30.3962C22.8833 31.1702 22.257 31.7966 21.4829 31.7966H10.2798C9.50574 31.7966 8.87939 31.1702 8.87939 30.3962V19.1931C8.87939 18.419 9.50574 17.7927 10.2798 17.7927H21.4829C22.257 17.7927 22.8833 18.419 22.8833 19.1931V30.3962ZM29.8853 31.7966H27.0845C26.3104 31.7966 25.6841 31.1702 25.6841 30.3962C25.6841 29.6221 26.3104 28.9958 27.0845 28.9958H29.8853C30.6593 28.9958 31.2856 29.6221 31.2856 30.3962C31.2856 31.1702 30.6593 31.7966 29.8853 31.7966ZM29.8853 26.195H27.0845C26.3104 26.195 25.6841 25.5687 25.6841 24.7946C25.6841 24.0206 26.3104 23.3942 27.0845 23.3942H29.8853C30.6593 23.3942 31.2856 24.0206 31.2856 24.7946C31.2856 25.5687 30.6593 26.195 29.8853 26.195ZM29.8853 20.5935H27.0845C26.3104 20.5935 25.6841 19.9671 25.6841 19.1931C25.6841 18.419 26.3104 17.7927 27.0845 17.7927H29.8853C30.6593 17.7927 31.2856 18.419 31.2856 19.1931C31.2856 19.9671 30.6593 20.5935 29.8853 20.5935ZM38.2876 31.7966H35.4868C34.7128 31.7966 34.0864 31.1702 34.0864 30.3962C34.0864 29.6221 34.7128 28.9958 35.4868 28.9958H38.2876C39.0616 28.9958 39.688 29.6221 39.688 30.3962C39.688 31.1702 39.0616 31.7966 38.2876 31.7966ZM38.2876 26.195H35.4868C34.7128 26.195 34.0864 25.5687 34.0864 24.7946C34.0864 24.0206 34.7128 23.3942 35.4868 23.3942H38.2876C39.0616 23.3942 39.688 24.0206 39.688 24.7946C39.688 25.5687 39.0616 26.195 38.2876 26.195ZM38.2876 20.5935H35.4868C34.7128 20.5935 34.0864 19.9671 34.0864 19.1931C34.0864 18.419 34.7128 17.7927 35.4868 17.7927H38.2876C39.0616 17.7927 39.688 18.419 39.688 19.1931C39.688 19.9671 39.0616 20.5935 38.2876 20.5935Z" fill="#225EC9"/>
</g>
<defs>
<clipPath id="clip0_81_742">
<rect width="47.8" height="47.8" fill="white" transform="translate(0.383789 0.80127)"/>
</clipPath>
</defs>
</svg>
