<svg width="49" height="49" viewBox="0 0 49 49" fill="none" xmlns="http://www.w3.org/2000/svg">
<g clip-path="url(#clip0_81_1106)">
<path d="M23.5639 14.7601L24.2838 15.1917C30.4777 11.7772 30.4042 6.59143 30.2802 4.75813H28.9089C26.4396 4.64461 25.064 2.77985 24.2877 2.01953C23.4974 2.78125 22.1395 4.63929 19.6587 4.75813H18.2873C18.2697 6.21463 17.7464 11.0705 23.5639 14.7601Z" fill="#225EC9"/>
<path d="M10.9801 38.5792H0.383789V41.38H21.034C18.0166 39.5604 14.5333 38.5792 10.9801 38.5792Z" fill="#225EC9"/>
<path d="M27.5337 41.38H48.1839V38.5792H37.5876C34.0343 38.5792 30.5511 39.5604 27.5337 41.38Z" fill="#225EC9"/>
<path d="M0.383789 44.1808H48.1838V46.9816H0.383789V44.1808Z" fill="#225EC9"/>
<path d="M18.7392 37.1789C20.1844 37.7157 21.5745 38.4038 22.8834 39.2309C22.8834 38.4607 22.8834 21.6387 22.8834 20.4106C19.486 17.7835 15.2849 16.3439 10.9801 16.3439H0.383789V35.7785H10.9801C13.6427 35.7785 16.2717 36.2602 18.7392 37.1789ZM7.29238 21.2499H10.9801C13.8425 21.2499 16.6414 21.7923 19.2993 22.8641L18.2518 25.4613C15.9281 24.525 13.4821 24.0507 10.9801 24.0507H7.29238V21.2499ZM7.29238 28.3704H10.9801C13.8425 28.3704 16.6414 28.9138 19.2993 29.9846L18.2518 32.5828C15.9291 31.6464 13.4821 31.1712 10.9801 31.1712H7.29238V28.3704Z" fill="#225EC9"/>
<path d="M37.5874 16.3439C33.2826 16.3439 29.0814 17.7835 25.6841 20.4106V39.2309C29.2358 36.9867 33.369 35.7789 37.5874 35.7785H48.1837V16.3439H37.5874ZM41.2751 31.1712H37.5874C35.0854 31.1712 32.6384 31.6464 30.3156 32.5828L29.2681 29.9846C31.9261 28.9138 34.725 28.3704 37.5874 28.3704H41.2751V31.1712ZM41.2751 24.0507H37.5874C35.0854 24.0507 32.6394 24.525 30.3156 25.4613L29.2681 22.8641C31.9261 21.7923 34.725 21.2499 37.5874 21.2499H41.2751V24.0507Z" fill="#225EC9"/>
</g>
<defs>
<clipPath id="clip0_81_1106">
<rect width="47.8" height="47.8" fill="white" transform="translate(0.383789 0.600586)"/>
</clipPath>
</defs>
</svg>
