<svg width="49" height="48" viewBox="0 0 49 48" fill="none" xmlns="http://www.w3.org/2000/svg">
<g clip-path="url(#clip0_81_1122)">
<path d="M28.7126 9.66435V0.0947876H8.3799C7.28667 0.0947876 6.40039 0.98107 6.40039 2.0743V45.821C6.40039 46.9142 7.28667 47.8005 8.3799 47.8005H40.0517C41.145 47.8005 42.0312 46.9142 42.0312 45.821V13.364H32.4122C30.3723 13.364 28.7126 11.7043 28.7126 9.66435ZM20.7188 37.5085L16.5075 41.7199C16.2346 41.9928 15.8769 42.1293 15.5193 42.1293C15.1617 42.1293 14.8039 41.9929 14.531 41.72L12.7827 39.9717C12.2369 39.4259 12.2369 38.541 12.7827 37.9952C13.3284 37.4494 14.2134 37.4494 14.7592 37.9952L15.5193 38.7552L18.7424 35.5321C19.2881 34.9863 20.1731 34.9863 20.7189 35.5321C21.2647 36.0778 21.2647 36.9627 20.7188 37.5085ZM20.7188 28.191L16.5075 32.4024C16.2346 32.6753 15.8769 32.8118 15.5193 32.8118C15.1617 32.8118 14.8039 32.6754 14.531 32.4025L12.7827 30.6542C12.2369 30.1084 12.2369 29.2235 12.7827 28.6777C13.3284 28.1319 14.2134 28.1319 14.7592 28.6777L15.5193 29.4377L18.7424 26.2146C19.2881 25.6688 20.1731 25.6688 20.7189 26.2146C21.2647 26.7603 21.2647 27.6452 20.7188 28.191ZM20.7188 18.1619L16.5075 22.3733C16.2346 22.6462 15.8769 22.7827 15.5193 22.7827C15.1617 22.7827 14.8039 22.6463 14.531 22.3733L12.7827 20.6249C12.2369 20.0791 12.2369 19.1942 12.7827 18.6484C13.3284 18.1026 14.2134 18.1026 14.7592 18.6484L15.5193 19.4084L18.7424 16.1854C19.2881 15.6396 20.1731 15.6396 20.7189 16.1854C21.2647 16.7312 21.2647 17.6161 20.7188 18.1619ZM34.6607 40.0236H25.7159C24.944 40.0236 24.3183 39.3979 24.3183 38.626C24.3183 37.8541 24.944 37.2284 25.7159 37.2284H34.6607C35.4326 37.2284 36.0583 37.8541 36.0583 38.626C36.0583 39.3979 35.4326 40.0236 34.6607 40.0236ZM24.3183 29.3085C24.3183 28.5366 24.944 27.9109 25.7159 27.9109H34.6207C35.3926 27.9109 36.0184 28.5366 36.0184 29.3085C36.0184 30.0803 35.3926 30.7061 34.6207 30.7061H25.7159C24.944 30.7061 24.3183 30.0803 24.3183 29.3085ZM36.0185 19.991C36.0185 20.7628 35.3927 21.3886 34.6208 21.3886H25.716C24.9441 21.3886 24.3184 20.7628 24.3184 19.991C24.3184 19.2191 24.9441 18.5933 25.716 18.5933H34.6208C35.3927 18.5933 36.0185 19.2191 36.0185 19.991Z" fill="#225EC9"/>
<path d="M31.5078 9.66434C31.5078 10.163 31.9135 10.5687 32.4122 10.5687H42.1671L31.5078 0.000488281V9.66434Z" fill="#225EC9"/>
</g>
<defs>
<clipPath id="clip0_81_1122">
<rect width="47.8" height="47.8" fill="white" transform="translate(0.383789 0.000488281)"/>
</clipPath>
</defs>
</svg>
