<svg width="49" height="49" viewBox="0 0 49 49" fill="none" xmlns="http://www.w3.org/2000/svg">
<g clip-path="url(#clip0_81_1149)">
<path d="M41.1837 7.60067C36.6695 3.08665 30.6677 0.600586 24.2838 0.600586C17.8999 0.600586 11.8981 3.08665 7.38388 7.60067C2.86986 12.1149 0.383789 18.1167 0.383789 24.5006C0.383789 30.8845 2.86986 36.8863 7.38388 41.4005C11.8981 45.9145 17.8999 48.4006 24.2838 48.4006C30.6677 48.4006 36.6695 45.9145 41.1837 41.4005C45.6977 36.8863 48.1838 30.8845 48.1838 24.5006C48.1838 18.1167 45.6977 12.1149 41.1837 7.60067ZM24.2838 7.13574C27.1151 7.13574 29.4186 9.4392 29.4186 12.2705C29.4186 15.1018 27.1151 17.4053 24.2838 17.4053C21.4525 17.4053 19.149 15.1018 19.149 12.2705C19.149 9.4392 21.4525 7.13574 24.2838 7.13574ZM30.8189 39.8115H17.7486V37.0107H20.5494V23.0068H17.7486V20.2061H28.0182V37.0107H30.8189V39.8115Z" fill="#225EC9"/>
</g>
<defs>
<clipPath id="clip0_81_1149">
<rect width="47.8" height="47.8" fill="white" transform="translate(0.383789 0.600586)"/>
</clipPath>
</defs>
</svg>
